M48
;DRILL file {KiCad 4.0.6-e0-6349~53~ubuntu14.04.1} date Tue Jan 16 08:33:48 2018
;FORMAT={-:-/ absolute / metric / decimal}
FMAT,2
METRIC,TZ
T1C0.100
T2C0.700
T3C1.000
T4C2.300
%
G90
G05
M71
T1
X130.626Y-29.155
X130.626Y-56.155
X230.956Y-78.05
X230.956Y-105.05
X276.409Y-21.188
X276.409Y-48.188
T2
X96.031Y-97.373
X101.531Y-97.373
X150.304Y-185.722
X155.804Y-185.722
X197.246Y-75.355
X197.246Y-80.855
T3
X22.31Y-34.251
X22.31Y-73.191
X111.167Y-34.251
X111.167Y-73.191
T4
X128.026Y-26.305
X128.026Y-59.005
X228.356Y-75.2
X228.356Y-107.9
X279.009Y-18.338
X279.009Y-51.038
T0
M30
