M48
;DRILL file {KiCad 4.0.6-e0-6349~53~ubuntu14.04.1} date Thu Feb  1 14:10:02 2018
;FORMAT={-:-/ absolute / metric / decimal}
FMAT,2
METRIC,TZ
T1C0.400
T2C0.500
T3C0.700
T4C0.800
T5C1.000
T6C1.001
T7C1.016
%
G90
G05
M71
T1
X21.59Y-180.086
X21.971Y-169.926
X22.225Y-135.89
X22.606Y-125.73
X23.622Y-166.497
X24.257Y-122.301
X27.305Y-175.133
X27.94Y-130.937
X28.829Y-100.584
X30.734Y-166.37
X30.734Y-169.799
X31.115Y-180.086
X31.369Y-122.174
X31.369Y-125.603
X31.648Y-31.801
X31.75Y-135.89
X32.791Y-86.487
X34.976Y-75.717
X34.976Y-78.257
X34.976Y-80.696
X34.976Y-83.439
X35.027Y-73.228
X35.128Y-70.587
X35.687Y-185.293
X35.687Y-189.992
X35.814Y-175.006
X36.322Y-141.097
X36.322Y-145.796
X36.322Y-180.086
X36.449Y-130.81
X36.957Y-135.89
X37.719Y-181.737
X38.354Y-137.541
X39.624Y-189.738
X40.259Y-145.542
X43.688Y-98.044
X43.713Y-89.814
X43.942Y-86.106
X44.602Y-57.556
X44.831Y-180.848
X45.466Y-136.652
X46.203Y-98.095
X46.228Y-88.265
X46.482Y-84.328
X48.768Y-98.044
X49.276Y-189.357
X49.759Y-78.054
X49.911Y-145.161
X51.435Y-98.171
X51.638Y-31.902
X52.197Y-180.086
X52.832Y-135.89
X53.213Y-176.784
X53.594Y-185.166
X53.848Y-98.171
X53.848Y-132.588
X53.848Y-181.356
X53.975Y-84.836
X54.229Y-140.97
X54.483Y-137.16
X57.912Y-185.166
X58.039Y-59.182
X58.293Y-84.506
X58.547Y-140.97
X59.792Y-22.073
X62.103Y-188.468
X62.738Y-144.272
X62.928Y-87.63
X68.123Y-93.04
X69.596Y-50.927
X69.698Y-22.149
X69.723Y-60.198
X71.755Y-21.285
X76.327Y-25.273
X76.581Y-27.813
X80.899Y-56.642
X81.026Y-54.102
X86.995Y-31.344
X89.179Y-57.861
X90.551Y-77.47
X94.513Y-49.251
X94.869Y-73.025
X96.977Y-45.517
X97.155Y-68.453
X97.536Y-166.497
X97.714Y-48.133
X102.514Y-27.813
X103.632Y-25.908
X104.775Y-28.524
X108.585Y-27.559
X110.871Y-165.1
X111.76Y-83.947
X115.951Y-122.047
X116.078Y-116.967
X121.666Y-146.812
X127.381Y-159.385
X140.335Y-32.893
X140.462Y-42.418
X141.732Y-60.833
X143.383Y-47.498
X143.51Y-55.118
X143.637Y-37.846
X144.018Y-32.639
X144.907Y-44.958
X145.923Y-37.719
X146.431Y-35.179
X150.241Y-60.833
X150.304Y-51.371
X151.384Y-33.401
X152.781Y-29.464
X153.67Y-51.689
X154.178Y-60.833
X155.321Y-166.497
X156.337Y-51.689
X156.845Y-60.833
X158.877Y-51.689
X159.258Y-60.833
X159.321Y-40.957
X161.544Y-51.689
X161.798Y-60.833
X164.338Y-51.689
X164.338Y-60.833
X166.878Y-60.833
X167.132Y-51.689
X168.656Y-165.1
X169.418Y-60.833
X169.799Y-51.689
X171.069Y-29.464
X172.212Y-51.689
X172.212Y-60.833
X173.736Y-122.047
X173.863Y-116.967
X175.641Y-35.179
X179.451Y-146.812
X185.166Y-159.385
T2
X89.408Y-25.857
X89.408Y-27.757
T3
X86.542Y-23.254
X91.542Y-21.654
X96.542Y-23.254
T4
X61.849Y-33.909
X61.849Y-36.449
X61.849Y-38.989
X61.849Y-41.529
X61.849Y-44.069
X61.849Y-46.609
X61.849Y-49.149
X61.849Y-51.689
X61.849Y-54.229
X61.849Y-56.769
X61.849Y-59.309
X61.849Y-61.849
X61.849Y-64.389
X61.849Y-66.929
X61.849Y-69.469
X61.849Y-72.009
X61.849Y-74.549
X61.849Y-77.089
X61.849Y-79.629
X61.849Y-82.169
X77.089Y-33.909
X77.089Y-36.449
X77.089Y-38.989
X77.089Y-41.529
X77.089Y-44.069
X77.089Y-46.609
X77.089Y-49.149
X77.089Y-51.689
X77.089Y-54.229
X77.089Y-56.769
X77.089Y-59.309
X77.089Y-61.849
X77.089Y-64.389
X77.089Y-66.929
X77.089Y-69.469
X77.089Y-72.009
X77.089Y-74.549
X77.089Y-77.089
X77.089Y-79.629
X77.089Y-82.169
X89.433Y-95.834
X89.433Y-98.374
X94.371Y-136.017
X98.171Y-136.017
X102.616Y-153.162
X105.41Y-89.916
X105.41Y-92.456
X106.416Y-153.162
X126.111Y-121.422
X126.111Y-125.222
X128.651Y-143.002
X132.451Y-143.002
X152.156Y-136.017
X155.956Y-136.017
X160.401Y-153.162
X164.201Y-153.162
X183.896Y-121.422
X183.896Y-125.222
X186.436Y-143.002
X190.236Y-143.002
T5
X34.036Y-166.37
X34.036Y-169.799
X34.671Y-122.174
X34.671Y-125.603
X36.576Y-166.37
X36.576Y-169.799
X37.211Y-122.174
X37.211Y-125.603
X39.116Y-166.37
X39.116Y-169.799
X39.751Y-122.174
X39.751Y-125.603
X41.656Y-166.37
X41.656Y-169.799
X42.291Y-122.174
X42.291Y-125.603
X43.713Y-92.888
X43.713Y-95.428
X44.196Y-166.37
X44.196Y-169.799
X44.831Y-122.174
X44.831Y-125.603
X46.253Y-92.888
X46.253Y-95.428
X46.736Y-166.37
X46.736Y-169.799
X47.371Y-122.174
X47.371Y-125.603
X48.793Y-92.888
X48.793Y-95.428
X49.276Y-166.37
X49.276Y-169.799
X49.911Y-122.174
X49.911Y-125.603
X50.927Y-25.654
X50.927Y-28.194
X51.333Y-92.888
X51.333Y-95.428
X51.816Y-166.37
X51.816Y-169.799
X52.451Y-122.174
X52.451Y-125.603
X53.873Y-92.888
X53.873Y-95.428
X54.356Y-166.37
X54.356Y-169.799
X54.991Y-122.174
X54.991Y-125.603
X64.897Y-168.148
X64.897Y-170.688
X64.897Y-173.228
X64.897Y-175.768
X64.897Y-178.308
X64.897Y-180.848
X64.897Y-183.388
X64.897Y-185.928
X64.897Y-188.468
X65.532Y-123.952
X65.532Y-126.492
X65.532Y-129.032
X65.532Y-131.572
X65.532Y-134.112
X65.532Y-136.652
X65.532Y-139.192
X65.532Y-141.732
X65.532Y-144.272
X109.474Y-87.376
X109.474Y-89.916
X137.795Y-37.338
X137.795Y-39.878
X137.795Y-42.418
X137.795Y-44.958
X137.795Y-47.498
X137.795Y-50.038
X137.795Y-52.578
X137.795Y-55.118
X150.368Y-54.483
X150.368Y-57.912
X152.908Y-54.483
X152.908Y-57.912
X155.448Y-54.483
X155.448Y-57.912
X157.988Y-54.483
X157.988Y-57.912
X160.528Y-54.483
X160.528Y-57.912
X163.068Y-54.483
X163.068Y-57.912
X165.608Y-54.483
X165.608Y-57.912
X168.148Y-54.483
X168.148Y-57.912
X170.688Y-54.483
X170.688Y-57.912
T6
X45.618Y-24.968
X45.618Y-28.143
T7
X38.456Y-32.55
X38.456Y-35.09
X38.456Y-37.63
X38.456Y-40.17
X38.456Y-42.71
X38.456Y-45.25
X38.456Y-47.79
X38.456Y-50.33
X38.456Y-52.87
X38.456Y-55.41
X38.456Y-57.95
X38.456Y-60.49
X38.456Y-63.03
X38.456Y-65.57
X38.456Y-68.11
X38.456Y-70.65
X38.456Y-73.19
X38.456Y-75.73
X38.456Y-78.27
X38.456Y-80.81
X38.456Y-83.35
X64.262Y-93.091
X64.262Y-95.631
X64.262Y-98.171
X68.199Y-25.273
X68.199Y-27.813
X70.739Y-25.273
X70.739Y-27.813
X73.279Y-25.273
X73.279Y-27.813
X96.266Y-123.317
X96.266Y-125.857
X96.901Y-153.162
X96.901Y-155.702
X96.901Y-158.242
X96.901Y-160.782
X101.6Y-32.893
X101.6Y-35.433
X101.6Y-37.973
X101.6Y-40.513
X101.6Y-43.053
X101.6Y-45.593
X101.6Y-48.133
X101.6Y-50.673
X101.6Y-53.213
X101.6Y-55.753
X101.6Y-58.293
X101.6Y-60.833
X101.6Y-63.373
X101.6Y-65.913
X101.6Y-68.453
X101.6Y-70.993
X101.6Y-73.533
X101.6Y-76.073
X101.6Y-78.613
X101.6Y-81.153
X101.6Y-83.693
X154.051Y-123.317
X154.051Y-125.857
X154.686Y-153.162
X154.686Y-155.702
X154.686Y-158.242
X154.686Y-160.782
T0
M30
