G04 #@! TF.FileFunction,Soldermask,Bot*
%FSLAX46Y46*%
G04 Gerber Fmt 4.6, Leading zero omitted, Abs format (unit mm)*
G04 Created by KiCad (PCBNEW 4.0.7-e2-6376~58~ubuntu16.04.1) date Sun Feb  4 19:32:13 2018*
%MOMM*%
%LPD*%
G01*
G04 APERTURE LIST*
%ADD10C,0.100000*%
%ADD11C,1.600000*%
%ADD12O,1.600000X1.600000*%
%ADD13R,3.500000X1.727200*%
%ADD14O,3.500000X1.727200*%
%ADD15R,1.700000X1.700000*%
%ADD16O,1.700000X1.700000*%
%ADD17C,1.000000*%
%ADD18C,1.600200*%
%ADD19R,1.727200X1.727200*%
%ADD20O,1.727200X1.727200*%
%ADD21O,3.500000X1.600000*%
%ADD22C,2.000000*%
%ADD23R,2.032000X1.727200*%
%ADD24O,2.032000X1.727200*%
%ADD25C,1.500000*%
%ADD26C,1.200000*%
%ADD27R,4.500000X4.850000*%
%ADD28R,3.500000X1.725000*%
%ADD29O,3.500000X1.725000*%
%ADD30R,1.725000X2.540000*%
%ADD31O,1.725000X2.540000*%
%ADD32R,3.500000X2.032000*%
%ADD33O,3.500000X2.032000*%
%ADD34R,2.540000X2.540000*%
%ADD35C,2.540000*%
G04 APERTURE END LIST*
D10*
D11*
X94640400Y-99517200D03*
D12*
X94640400Y-102057200D03*
D13*
X43662600Y-36233100D03*
D14*
X43662600Y-38773100D03*
X43662600Y-41313100D03*
X43662600Y-43853100D03*
X43662600Y-46393100D03*
X43662600Y-48933100D03*
X43662600Y-51473100D03*
X43662600Y-54013100D03*
X43662600Y-56553100D03*
X43662600Y-59093100D03*
X43662600Y-61633100D03*
X43662600Y-64173100D03*
X43662600Y-66713100D03*
X43662600Y-69253100D03*
X43662600Y-71793100D03*
X43662600Y-74333100D03*
X43662600Y-76873100D03*
X43662600Y-79413100D03*
X43662600Y-81953100D03*
X43662600Y-84493100D03*
X43662600Y-87033100D03*
D15*
X56134000Y-29337000D03*
D16*
X56134000Y-31877000D03*
D15*
X114681000Y-91059000D03*
D16*
X114681000Y-93599000D03*
D17*
X94615000Y-29540200D03*
X94615000Y-31440200D03*
D11*
X110617000Y-96139000D03*
D12*
X110617000Y-93599000D03*
D18*
X50825400Y-31826200D03*
X50825400Y-28651200D03*
D19*
X78486000Y-28956000D03*
D20*
X78486000Y-31496000D03*
X75946000Y-28956000D03*
X75946000Y-31496000D03*
X73406000Y-28956000D03*
X73406000Y-31496000D03*
D21*
X67056000Y-37592000D03*
X67056000Y-40132000D03*
X67056000Y-42672000D03*
X67056000Y-45212000D03*
X67056000Y-47752000D03*
X67056000Y-50292000D03*
X67056000Y-52832000D03*
X67056000Y-55372000D03*
X67056000Y-57912000D03*
X67056000Y-60452000D03*
X67056000Y-62992000D03*
X67056000Y-65532000D03*
X67056000Y-68072000D03*
X67056000Y-70612000D03*
X67056000Y-73152000D03*
X67056000Y-75692000D03*
X67056000Y-78232000D03*
X67056000Y-80772000D03*
X67056000Y-83312000D03*
X67056000Y-85852000D03*
X82296000Y-85852000D03*
X82296000Y-83312000D03*
X82296000Y-80772000D03*
X82296000Y-78232000D03*
X82296000Y-75692000D03*
X82296000Y-73152000D03*
X82296000Y-70612000D03*
X82296000Y-68072000D03*
X82296000Y-65532000D03*
X82296000Y-62992000D03*
X82296000Y-60452000D03*
X82296000Y-57912000D03*
X82296000Y-55372000D03*
X82296000Y-52832000D03*
X82296000Y-50292000D03*
X82296000Y-47752000D03*
X82296000Y-45212000D03*
X82296000Y-42672000D03*
X82296000Y-40132000D03*
X82296000Y-37592000D03*
D22*
X117898000Y-39966000D03*
X117898000Y-78906000D03*
X29041000Y-78906000D03*
X29041000Y-39966000D03*
D13*
X106807000Y-36576000D03*
D14*
X106807000Y-39116000D03*
X106807000Y-41656000D03*
X106807000Y-44196000D03*
X106807000Y-46736000D03*
X106807000Y-49276000D03*
X106807000Y-51816000D03*
X106807000Y-54356000D03*
X106807000Y-56896000D03*
X106807000Y-59436000D03*
X106807000Y-61976000D03*
X106807000Y-64516000D03*
X106807000Y-67056000D03*
X106807000Y-69596000D03*
X106807000Y-72136000D03*
X106807000Y-74676000D03*
X106807000Y-77216000D03*
X106807000Y-79756000D03*
X106807000Y-82296000D03*
X106807000Y-84836000D03*
X106807000Y-87376000D03*
D23*
X69469000Y-96774000D03*
D24*
X69469000Y-99314000D03*
X69469000Y-101854000D03*
D15*
X59080400Y-96570800D03*
D16*
X59080400Y-99110800D03*
X56540400Y-96570800D03*
X56540400Y-99110800D03*
X54000400Y-96570800D03*
X54000400Y-99110800D03*
X51460400Y-96570800D03*
X51460400Y-99110800D03*
X48920400Y-96570800D03*
X48920400Y-99110800D03*
D11*
X96748600Y-25336600D03*
X101748600Y-26936600D03*
X91748600Y-26936600D03*
D25*
X108261600Y-103088200D03*
X102761600Y-103088200D03*
D26*
X186620000Y-27792000D03*
X186620000Y-54792000D03*
D27*
X189220000Y-24942000D03*
X189220000Y-57642000D03*
D28*
X177673000Y-34290000D03*
D29*
X177673000Y-36830000D03*
X177673000Y-39370000D03*
X177673000Y-41910000D03*
X177673000Y-44450000D03*
X177673000Y-46990000D03*
X177673000Y-49530000D03*
X177673000Y-52070000D03*
X177673000Y-54610000D03*
D30*
X167132000Y-35941000D03*
D31*
X164592000Y-35941000D03*
X162052000Y-35941000D03*
X159512000Y-35941000D03*
X156972000Y-35941000D03*
X154432000Y-35941000D03*
X151892000Y-35941000D03*
X149352000Y-35941000D03*
X146812000Y-35941000D03*
D30*
X167132000Y-32512000D03*
D31*
X164592000Y-32512000D03*
X162052000Y-32512000D03*
X159512000Y-32512000D03*
X156972000Y-32512000D03*
X154432000Y-32512000D03*
X151892000Y-32512000D03*
X149352000Y-32512000D03*
X146812000Y-32512000D03*
D26*
X186366000Y-72496000D03*
X186366000Y-99496000D03*
D27*
X188966000Y-69646000D03*
X188966000Y-102346000D03*
D28*
X177419000Y-78994000D03*
D29*
X177419000Y-81534000D03*
X177419000Y-84074000D03*
X177419000Y-86614000D03*
X177419000Y-89154000D03*
X177419000Y-91694000D03*
X177419000Y-94234000D03*
X177419000Y-96774000D03*
X177419000Y-99314000D03*
D30*
X166878000Y-80645000D03*
D31*
X164338000Y-80645000D03*
X161798000Y-80645000D03*
X159258000Y-80645000D03*
X156718000Y-80645000D03*
X154178000Y-80645000D03*
X151638000Y-80645000D03*
X149098000Y-80645000D03*
X146558000Y-80645000D03*
D30*
X166878000Y-77216000D03*
D31*
X164338000Y-77216000D03*
X161798000Y-77216000D03*
X159258000Y-77216000D03*
X156718000Y-77216000D03*
X154178000Y-77216000D03*
X151638000Y-77216000D03*
X149098000Y-77216000D03*
X146558000Y-77216000D03*
D26*
X27756000Y-161311000D03*
X27756000Y-134311000D03*
D27*
X25156000Y-164161000D03*
X25156000Y-131461000D03*
D28*
X35179000Y-135509000D03*
D29*
X35179000Y-138049000D03*
X35179000Y-140589000D03*
X35179000Y-143129000D03*
X35179000Y-145669000D03*
X35179000Y-148209000D03*
X35179000Y-150749000D03*
X35179000Y-153289000D03*
D30*
X68072000Y-152654000D03*
D31*
X65532000Y-152654000D03*
X62992000Y-152654000D03*
X60452000Y-152654000D03*
X57912000Y-152654000D03*
X55372000Y-152654000D03*
X52832000Y-152654000D03*
X50292000Y-152654000D03*
X47752000Y-152654000D03*
D30*
X68072000Y-156083000D03*
D31*
X65532000Y-156083000D03*
X62992000Y-156083000D03*
X60452000Y-156083000D03*
X57912000Y-156083000D03*
X55372000Y-156083000D03*
X52832000Y-156083000D03*
X50292000Y-156083000D03*
X47752000Y-156083000D03*
D32*
X91440000Y-130048000D03*
D33*
X91440000Y-127508000D03*
D13*
X92075000Y-157353000D03*
D14*
X92075000Y-159893000D03*
X92075000Y-162433000D03*
X92075000Y-164973000D03*
D34*
X93345000Y-140208000D03*
D35*
X89545000Y-140208000D03*
D34*
X121285000Y-129413000D03*
D35*
X121285000Y-125613000D03*
D34*
X123825000Y-147193000D03*
D35*
X127625000Y-147193000D03*
D34*
X97790000Y-157353000D03*
D35*
X101590000Y-157353000D03*
D32*
X151384000Y-129286000D03*
D33*
X151384000Y-126746000D03*
D13*
X152019000Y-156591000D03*
D14*
X152019000Y-159131000D03*
X152019000Y-161671000D03*
X152019000Y-164211000D03*
D34*
X153289000Y-139446000D03*
D35*
X149489000Y-139446000D03*
D34*
X181229000Y-128651000D03*
D35*
X181229000Y-124851000D03*
D34*
X183769000Y-146431000D03*
D35*
X187569000Y-146431000D03*
D34*
X157734000Y-156591000D03*
D35*
X161534000Y-156591000D03*
M02*
