M48
;DRILL file {KiCad 4.0.6-e0-6349~53~ubuntu14.04.1} date Mon Feb  5 09:12:26 2018
;FORMAT={-:-/ absolute / metric / decimal}
FMAT,2
METRIC,TZ
T1C0.400
T2C0.500
T3C0.700
T4C0.800
T5C1.000
T6C1.001
T7C1.016
%
G90
G05
M71
T1
X34.036Y-104.267
X36.855Y-35.484
X37.719Y-131.064
X37.846Y-140.589
X37.998Y-90.17
X39.116Y-159.004
X40.183Y-79.4
X40.183Y-81.94
X40.183Y-84.379
X40.183Y-87.122
X40.234Y-76.911
X40.335Y-74.27
X40.767Y-145.669
X40.894Y-153.289
X41.021Y-136.017
X41.402Y-130.81
X42.291Y-143.129
X43.307Y-135.89
X43.815Y-133.35
X47.625Y-159.004
X47.688Y-149.542
X48.768Y-131.572
X48.895Y-101.727
X48.92Y-93.497
X49.149Y-89.789
X49.809Y-61.239
X50.165Y-127.635
X51.054Y-149.86
X51.41Y-101.778
X51.435Y-91.948
X51.562Y-159.004
X51.689Y-88.011
X53.721Y-149.86
X53.975Y-101.727
X54.229Y-159.004
X54.966Y-81.737
X56.261Y-149.86
X56.642Y-101.854
X56.642Y-159.004
X56.706Y-139.129
X56.845Y-35.585
X58.928Y-149.86
X59.055Y-101.854
X59.182Y-88.519
X59.182Y-159.004
X61.722Y-149.86
X61.722Y-159.004
X63.246Y-62.865
X63.5Y-88.189
X64.262Y-159.004
X64.516Y-149.86
X64.999Y-25.756
X66.802Y-159.004
X67.183Y-149.86
X68.135Y-91.313
X68.453Y-127.635
X69.596Y-149.86
X69.596Y-159.004
X73.025Y-133.35
X73.33Y-96.723
X74.803Y-54.61
X74.905Y-25.832
X74.93Y-63.881
X76.962Y-24.968
X81.534Y-28.956
X81.788Y-31.496
X86.106Y-60.325
X86.233Y-57.785
X92.202Y-35.027
X92.202Y-171.45
X93.726Y-42.672
X94.386Y-61.544
X95.758Y-81.153
X99.72Y-52.934
X100.076Y-76.708
X102.184Y-49.2
X102.362Y-72.136
X102.921Y-51.816
X106.045Y-169.291
X107.721Y-31.496
X108.839Y-29.591
X109.982Y-32.207
X111.125Y-126.238
X111.252Y-121.158
X113.792Y-31.242
X116.84Y-151.003
X116.967Y-87.63
X124.46Y-165.354
X134.112Y-90.932
X134.366Y-46.228
X134.493Y-80.772
X134.747Y-36.068
X136.144Y-77.343
X136.398Y-32.639
X139.827Y-85.979
X140.081Y-41.275
X143.256Y-77.216
X143.256Y-80.645
X143.51Y-32.512
X143.51Y-35.941
X143.637Y-90.932
X143.891Y-46.228
X148.209Y-96.139
X148.209Y-100.838
X148.336Y-85.852
X148.463Y-51.435
X148.463Y-56.134
X148.59Y-41.148
X148.844Y-90.932
X149.098Y-46.228
X150.241Y-92.583
X150.495Y-47.879
X152.146Y-100.584
X152.146Y-170.688
X152.4Y-55.88
X157.353Y-91.694
X157.607Y-46.99
X161.798Y-100.203
X162.052Y-55.499
X164.719Y-90.932
X164.973Y-46.228
X165.735Y-87.63
X165.989Y-42.926
X165.989Y-168.529
X166.116Y-96.012
X166.37Y-51.308
X166.37Y-92.202
X166.624Y-47.498
X170.434Y-96.012
X170.688Y-51.308
X171.069Y-125.476
X171.196Y-120.396
X174.625Y-99.314
X174.879Y-54.61
X176.784Y-150.241
X184.404Y-164.592
T2
X94.615Y-29.54
X94.615Y-31.44
T3
X91.749Y-26.937
X96.749Y-25.337
X101.749Y-26.937
T4
X67.056Y-37.592
X67.056Y-40.132
X67.056Y-42.672
X67.056Y-45.212
X67.056Y-47.752
X67.056Y-50.292
X67.056Y-52.832
X67.056Y-55.372
X67.056Y-57.912
X67.056Y-60.452
X67.056Y-62.992
X67.056Y-65.532
X67.056Y-68.072
X67.056Y-70.612
X67.056Y-73.152
X67.056Y-75.692
X67.056Y-78.232
X67.056Y-80.772
X67.056Y-83.312
X67.056Y-85.852
X82.296Y-37.592
X82.296Y-40.132
X82.296Y-42.672
X82.296Y-45.212
X82.296Y-47.752
X82.296Y-50.292
X82.296Y-52.832
X82.296Y-55.372
X82.296Y-57.912
X82.296Y-60.452
X82.296Y-62.992
X82.296Y-65.532
X82.296Y-68.072
X82.296Y-70.612
X82.296Y-73.152
X82.296Y-75.692
X82.296Y-78.232
X82.296Y-80.772
X82.296Y-83.312
X82.296Y-85.852
X89.545Y-140.208
X93.345Y-140.208
X94.64Y-99.517
X94.64Y-102.057
X97.79Y-157.353
X101.59Y-157.353
X110.617Y-93.599
X110.617Y-96.139
X121.285Y-125.613
X121.285Y-129.413
X123.825Y-147.193
X127.625Y-147.193
X149.489Y-139.446
X153.289Y-139.446
X157.734Y-156.591
X161.534Y-156.591
X181.229Y-124.851
X181.229Y-128.651
X183.769Y-146.431
X187.569Y-146.431
T5
X35.179Y-135.509
X35.179Y-138.049
X35.179Y-140.589
X35.179Y-143.129
X35.179Y-145.669
X35.179Y-148.209
X35.179Y-150.749
X35.179Y-153.289
X47.752Y-152.654
X47.752Y-156.083
X48.92Y-96.571
X48.92Y-99.111
X50.292Y-152.654
X50.292Y-156.083
X51.46Y-96.571
X51.46Y-99.111
X52.832Y-152.654
X52.832Y-156.083
X54.Y-96.571
X54.Y-99.111
X55.372Y-152.654
X55.372Y-156.083
X56.134Y-29.337
X56.134Y-31.877
X56.54Y-96.571
X56.54Y-99.111
X57.912Y-152.654
X57.912Y-156.083
X59.08Y-96.571
X59.08Y-99.111
X60.452Y-152.654
X60.452Y-156.083
X62.992Y-152.654
X62.992Y-156.083
X65.532Y-152.654
X65.532Y-156.083
X68.072Y-152.654
X68.072Y-156.083
X114.681Y-91.059
X114.681Y-93.599
X146.558Y-77.216
X146.558Y-80.645
X146.812Y-32.512
X146.812Y-35.941
X149.098Y-77.216
X149.098Y-80.645
X149.352Y-32.512
X149.352Y-35.941
X151.638Y-77.216
X151.638Y-80.645
X151.892Y-32.512
X151.892Y-35.941
X154.178Y-77.216
X154.178Y-80.645
X154.432Y-32.512
X154.432Y-35.941
X156.718Y-77.216
X156.718Y-80.645
X156.972Y-32.512
X156.972Y-35.941
X159.258Y-77.216
X159.258Y-80.645
X159.512Y-32.512
X159.512Y-35.941
X161.798Y-77.216
X161.798Y-80.645
X162.052Y-32.512
X162.052Y-35.941
X164.338Y-77.216
X164.338Y-80.645
X164.592Y-32.512
X164.592Y-35.941
X166.878Y-77.216
X166.878Y-80.645
X167.132Y-32.512
X167.132Y-35.941
X177.419Y-78.994
X177.419Y-81.534
X177.419Y-84.074
X177.419Y-86.614
X177.419Y-89.154
X177.419Y-91.694
X177.419Y-94.234
X177.419Y-96.774
X177.419Y-99.314
X177.673Y-34.29
X177.673Y-36.83
X177.673Y-39.37
X177.673Y-41.91
X177.673Y-44.45
X177.673Y-46.99
X177.673Y-49.53
X177.673Y-52.07
X177.673Y-54.61
T6
X50.825Y-28.651
X50.825Y-31.826
T7
X43.663Y-36.233
X43.663Y-38.773
X43.663Y-41.313
X43.663Y-43.853
X43.663Y-46.393
X43.663Y-48.933
X43.663Y-51.473
X43.663Y-54.013
X43.663Y-56.553
X43.663Y-59.093
X43.663Y-61.633
X43.663Y-64.173
X43.663Y-66.713
X43.663Y-69.253
X43.663Y-71.793
X43.663Y-74.333
X43.663Y-76.873
X43.663Y-79.413
X43.663Y-81.953
X43.663Y-84.493
X43.663Y-87.033
X69.469Y-96.774
X69.469Y-99.314
X69.469Y-101.854
X73.406Y-28.956
X73.406Y-31.496
X75.946Y-28.956
X75.946Y-31.496
X78.486Y-28.956
X78.486Y-31.496
X91.44Y-127.508
X91.44Y-130.048
X92.075Y-157.353
X92.075Y-159.893
X92.075Y-162.433
X92.075Y-164.973
X106.807Y-36.576
X106.807Y-39.116
X106.807Y-41.656
X106.807Y-44.196
X106.807Y-46.736
X106.807Y-49.276
X106.807Y-51.816
X106.807Y-54.356
X106.807Y-56.896
X106.807Y-59.436
X106.807Y-61.976
X106.807Y-64.516
X106.807Y-67.056
X106.807Y-69.596
X106.807Y-72.136
X106.807Y-74.676
X106.807Y-77.216
X106.807Y-79.756
X106.807Y-82.296
X106.807Y-84.836
X106.807Y-87.376
X151.384Y-126.746
X151.384Y-129.286
X152.019Y-156.591
X152.019Y-159.131
X152.019Y-161.671
X152.019Y-164.211
T0
M30
