%FSLAX45Y45*%
G04 Gerber Fmt 4.5, Leading zero omitted, Abs format (unit mm)*
G04 Created by KiCad (PCBNEW 4.0.6-e0-6349~53~ubuntu14.04.1) date Thu Feb  1 14:10:02 2018*
%MOMM*%
%LPD*%
G01*
G04 APERTURE LIST*
%ADD10C,0.127000*%
%ADD11C,0.200000*%
%ADD12C,0.300000*%
G04 APERTURE END LIST*
D10*
D11*
X2139000Y-17988600D02*
X2179000Y-18028600D01*
X2179000Y-17988600D02*
X2139000Y-18028600D01*
X2177100Y-16972600D02*
X2217100Y-17012600D01*
X2217100Y-16972600D02*
X2177100Y-17012600D01*
X2202500Y-13569000D02*
X2242500Y-13609000D01*
X2242500Y-13569000D02*
X2202500Y-13609000D01*
X2240600Y-12553000D02*
X2280600Y-12593000D01*
X2280600Y-12553000D02*
X2240600Y-12593000D01*
X2342200Y-16629700D02*
X2382200Y-16669700D01*
X2382200Y-16629700D02*
X2342200Y-16669700D01*
X2405700Y-12210100D02*
X2445700Y-12250100D01*
X2445700Y-12210100D02*
X2405700Y-12250100D01*
X2710500Y-17493300D02*
X2750500Y-17533300D01*
X2750500Y-17493300D02*
X2710500Y-17533300D01*
X2774000Y-13073700D02*
X2814000Y-13113700D01*
X2814000Y-13073700D02*
X2774000Y-13113700D01*
X2862900Y-10038400D02*
X2902900Y-10078400D01*
X2902900Y-10038400D02*
X2862900Y-10078400D01*
X3053400Y-16617000D02*
X3093400Y-16657000D01*
X3093400Y-16617000D02*
X3053400Y-16657000D01*
X3053400Y-16959900D02*
X3093400Y-16999900D01*
X3093400Y-16959900D02*
X3053400Y-16999900D01*
X3091500Y-17988600D02*
X3131500Y-18028600D01*
X3131500Y-17988600D02*
X3091500Y-18028600D01*
X3116900Y-12197400D02*
X3156900Y-12237400D01*
X3156900Y-12197400D02*
X3116900Y-12237400D01*
X3116900Y-12540300D02*
X3156900Y-12580300D01*
X3156900Y-12540300D02*
X3116900Y-12580300D01*
X3144840Y-3160080D02*
X3184840Y-3200080D01*
X3184840Y-3160080D02*
X3144840Y-3200080D01*
X3155000Y-13569000D02*
X3195000Y-13609000D01*
X3195000Y-13569000D02*
X3155000Y-13609000D01*
X3259140Y-8628700D02*
X3299140Y-8668700D01*
X3299140Y-8628700D02*
X3259140Y-8668700D01*
X3477580Y-7551740D02*
X3517580Y-7591740D01*
X3517580Y-7551740D02*
X3477580Y-7591740D01*
X3477580Y-7805740D02*
X3517580Y-7845740D01*
X3517580Y-7805740D02*
X3477580Y-7845740D01*
X3477580Y-8049580D02*
X3517580Y-8089580D01*
X3517580Y-8049580D02*
X3477580Y-8089580D01*
X3477580Y-8323900D02*
X3517580Y-8363900D01*
X3517580Y-8323900D02*
X3477580Y-8363900D01*
X3482660Y-7302820D02*
X3522660Y-7342820D01*
X3522660Y-7302820D02*
X3482660Y-7342820D01*
X3492820Y-7038660D02*
X3532820Y-7078660D01*
X3532820Y-7038660D02*
X3492820Y-7078660D01*
X3548700Y-18509300D02*
X3588700Y-18549300D01*
X3588700Y-18509300D02*
X3548700Y-18549300D01*
X3548700Y-18979200D02*
X3588700Y-19019200D01*
X3588700Y-18979200D02*
X3548700Y-19019200D01*
X3561400Y-17480600D02*
X3601400Y-17520600D01*
X3601400Y-17480600D02*
X3561400Y-17520600D01*
X3612200Y-14089700D02*
X3652200Y-14129700D01*
X3652200Y-14089700D02*
X3612200Y-14129700D01*
X3612200Y-14559600D02*
X3652200Y-14599600D01*
X3652200Y-14559600D02*
X3612200Y-14599600D01*
X3612200Y-17988600D02*
X3652200Y-18028600D01*
X3652200Y-17988600D02*
X3612200Y-18028600D01*
X3624900Y-13061000D02*
X3664900Y-13101000D01*
X3664900Y-13061000D02*
X3624900Y-13101000D01*
X3675700Y-13569000D02*
X3715700Y-13609000D01*
X3715700Y-13569000D02*
X3675700Y-13609000D01*
X3751900Y-18153700D02*
X3791900Y-18193700D01*
X3791900Y-18153700D02*
X3751900Y-18193700D01*
X3815400Y-13734100D02*
X3855400Y-13774100D01*
X3855400Y-13734100D02*
X3815400Y-13774100D01*
X3942400Y-18953800D02*
X3982400Y-18993800D01*
X3982400Y-18953800D02*
X3942400Y-18993800D01*
X4005900Y-14534200D02*
X4045900Y-14574200D01*
X4045900Y-14534200D02*
X4005900Y-14574200D01*
X4348800Y-9784400D02*
X4388800Y-9824400D01*
X4388800Y-9784400D02*
X4348800Y-9824400D01*
X4351340Y-8961440D02*
X4391340Y-9001440D01*
X4391340Y-8961440D02*
X4351340Y-9001440D01*
X4374200Y-8590600D02*
X4414200Y-8630600D01*
X4414200Y-8590600D02*
X4374200Y-8630600D01*
X4440240Y-5735640D02*
X4480240Y-5775640D01*
X4480240Y-5735640D02*
X4440240Y-5775640D01*
X4463100Y-18064800D02*
X4503100Y-18104800D01*
X4503100Y-18064800D02*
X4463100Y-18104800D01*
X4526600Y-13645200D02*
X4566600Y-13685200D01*
X4566600Y-13645200D02*
X4526600Y-13685200D01*
X4600260Y-9789480D02*
X4640260Y-9829480D01*
X4640260Y-9789480D02*
X4600260Y-9829480D01*
X4602800Y-8806500D02*
X4642800Y-8846500D01*
X4642800Y-8806500D02*
X4602800Y-8846500D01*
X4628200Y-8412800D02*
X4668200Y-8452800D01*
X4668200Y-8412800D02*
X4628200Y-8452800D01*
X4856800Y-9784400D02*
X4896800Y-9824400D01*
X4896800Y-9784400D02*
X4856800Y-9824400D01*
X4907600Y-18915700D02*
X4947600Y-18955700D01*
X4947600Y-18915700D02*
X4907600Y-18955700D01*
X4955860Y-7785420D02*
X4995860Y-7825420D01*
X4995860Y-7785420D02*
X4955860Y-7825420D01*
X4971100Y-14496100D02*
X5011100Y-14536100D01*
X5011100Y-14496100D02*
X4971100Y-14536100D01*
X5123500Y-9797100D02*
X5163500Y-9837100D01*
X5163500Y-9797100D02*
X5123500Y-9837100D01*
X5143820Y-3170240D02*
X5183820Y-3210240D01*
X5183820Y-3170240D02*
X5143820Y-3210240D01*
X5199700Y-17988600D02*
X5239700Y-18028600D01*
X5239700Y-17988600D02*
X5199700Y-18028600D01*
X5263200Y-13569000D02*
X5303200Y-13609000D01*
X5303200Y-13569000D02*
X5263200Y-13609000D01*
X5301300Y-17658400D02*
X5341300Y-17698400D01*
X5341300Y-17658400D02*
X5301300Y-17698400D01*
X5339400Y-18496600D02*
X5379400Y-18536600D01*
X5379400Y-18496600D02*
X5339400Y-18536600D01*
X5364800Y-9797100D02*
X5404800Y-9837100D01*
X5404800Y-9797100D02*
X5364800Y-9837100D01*
X5364800Y-13238800D02*
X5404800Y-13278800D01*
X5404800Y-13238800D02*
X5364800Y-13278800D01*
X5364800Y-18115600D02*
X5404800Y-18155600D01*
X5404800Y-18115600D02*
X5364800Y-18155600D01*
X5377500Y-8463600D02*
X5417500Y-8503600D01*
X5417500Y-8463600D02*
X5377500Y-8503600D01*
X5402900Y-14077000D02*
X5442900Y-14117000D01*
X5442900Y-14077000D02*
X5402900Y-14117000D01*
X5428300Y-13696000D02*
X5468300Y-13736000D01*
X5468300Y-13696000D02*
X5428300Y-13736000D01*
X5771200Y-18496600D02*
X5811200Y-18536600D01*
X5811200Y-18496600D02*
X5771200Y-18536600D01*
X5783900Y-5898200D02*
X5823900Y-5938200D01*
X5823900Y-5898200D02*
X5783900Y-5938200D01*
X5809300Y-8430580D02*
X5849300Y-8470580D01*
X5849300Y-8430580D02*
X5809300Y-8470580D01*
X5834700Y-14077000D02*
X5874700Y-14117000D01*
X5874700Y-14077000D02*
X5834700Y-14117000D01*
X5959160Y-2187260D02*
X5999160Y-2227260D01*
X5999160Y-2187260D02*
X5959160Y-2227260D01*
X6190300Y-18826800D02*
X6230300Y-18866800D01*
X6230300Y-18826800D02*
X6190300Y-18866800D01*
X6253800Y-14407200D02*
X6293800Y-14447200D01*
X6293800Y-14407200D02*
X6253800Y-14447200D01*
X6272850Y-8743000D02*
X6312850Y-8783000D01*
X6312850Y-8743000D02*
X6272850Y-8783000D01*
X6792280Y-9284020D02*
X6832280Y-9324020D01*
X6832280Y-9284020D02*
X6792280Y-9324020D01*
X6939600Y-5072700D02*
X6979600Y-5112700D01*
X6979600Y-5072700D02*
X6939600Y-5112700D01*
X6949760Y-2194880D02*
X6989760Y-2234880D01*
X6989760Y-2194880D02*
X6949760Y-2234880D01*
X6952300Y-5999800D02*
X6992300Y-6039800D01*
X6992300Y-5999800D02*
X6952300Y-6039800D01*
X7155500Y-2108520D02*
X7195500Y-2148520D01*
X7195500Y-2108520D02*
X7155500Y-2148520D01*
X7612700Y-2507300D02*
X7652700Y-2547300D01*
X7652700Y-2507300D02*
X7612700Y-2547300D01*
X7638100Y-2761300D02*
X7678100Y-2801300D01*
X7678100Y-2761300D02*
X7638100Y-2801300D01*
X8069900Y-5644200D02*
X8109900Y-5684200D01*
X8109900Y-5644200D02*
X8069900Y-5684200D01*
X8082600Y-5390200D02*
X8122600Y-5430200D01*
X8122600Y-5390200D02*
X8082600Y-5430200D01*
X8679500Y-3114360D02*
X8719500Y-3154360D01*
X8719500Y-3114360D02*
X8679500Y-3154360D01*
X8897940Y-5766120D02*
X8937940Y-5806120D01*
X8937940Y-5766120D02*
X8897940Y-5806120D01*
X9035100Y-7727000D02*
X9075100Y-7767000D01*
X9075100Y-7727000D02*
X9035100Y-7767000D01*
X9431340Y-4905060D02*
X9471340Y-4945060D01*
X9471340Y-4905060D02*
X9431340Y-4945060D01*
X9466900Y-7282500D02*
X9506900Y-7322500D01*
X9506900Y-7282500D02*
X9466900Y-7322500D01*
X9677720Y-4531680D02*
X9717720Y-4571680D01*
X9717720Y-4531680D02*
X9677720Y-4571680D01*
X9695500Y-6825300D02*
X9735500Y-6865300D01*
X9735500Y-6825300D02*
X9695500Y-6865300D01*
X9733600Y-16629700D02*
X9773600Y-16669700D01*
X9773600Y-16629700D02*
X9733600Y-16669700D01*
X9751380Y-4793300D02*
X9791380Y-4833300D01*
X9791380Y-4793300D02*
X9751380Y-4833300D01*
X10231440Y-2761300D02*
X10271440Y-2801300D01*
X10271440Y-2761300D02*
X10231440Y-2801300D01*
X10343200Y-2570800D02*
X10383200Y-2610800D01*
X10383200Y-2570800D02*
X10343200Y-2610800D01*
X10457500Y-2832420D02*
X10497500Y-2872420D01*
X10497500Y-2832420D02*
X10457500Y-2872420D01*
X10838500Y-2735900D02*
X10878500Y-2775900D01*
X10878500Y-2735900D02*
X10838500Y-2775900D01*
X11067100Y-16490000D02*
X11107100Y-16530000D01*
X11107100Y-16490000D02*
X11067100Y-16530000D01*
X11156000Y-8374700D02*
X11196000Y-8414700D01*
X11196000Y-8374700D02*
X11156000Y-8414700D01*
X11575100Y-12184700D02*
X11615100Y-12224700D01*
X11615100Y-12184700D02*
X11575100Y-12224700D01*
X11587800Y-11676700D02*
X11627800Y-11716700D01*
X11627800Y-11676700D02*
X11587800Y-11716700D01*
X12146600Y-14661200D02*
X12186600Y-14701200D01*
X12186600Y-14661200D02*
X12146600Y-14701200D01*
X12718100Y-15918500D02*
X12758100Y-15958500D01*
X12758100Y-15918500D02*
X12718100Y-15958500D01*
X14013500Y-3269300D02*
X14053500Y-3309300D01*
X14053500Y-3269300D02*
X14013500Y-3309300D01*
X14026200Y-4221800D02*
X14066200Y-4261800D01*
X14066200Y-4221800D02*
X14026200Y-4261800D01*
X14153200Y-6063300D02*
X14193200Y-6103300D01*
X14193200Y-6063300D02*
X14153200Y-6103300D01*
X14318300Y-4729800D02*
X14358300Y-4769800D01*
X14358300Y-4729800D02*
X14318300Y-4769800D01*
X14331000Y-5491800D02*
X14371000Y-5531800D01*
X14371000Y-5491800D02*
X14331000Y-5531800D01*
X14343700Y-3764600D02*
X14383700Y-3804600D01*
X14383700Y-3764600D02*
X14343700Y-3804600D01*
X14381800Y-3243900D02*
X14421800Y-3283900D01*
X14421800Y-3243900D02*
X14381800Y-3283900D01*
X14470700Y-4475800D02*
X14510700Y-4515800D01*
X14510700Y-4475800D02*
X14470700Y-4515800D01*
X14572300Y-3751900D02*
X14612300Y-3791900D01*
X14612300Y-3751900D02*
X14572300Y-3791900D01*
X14623100Y-3497900D02*
X14663100Y-3537900D01*
X14663100Y-3497900D02*
X14623100Y-3537900D01*
X15004100Y-6063300D02*
X15044100Y-6103300D01*
X15044100Y-6063300D02*
X15004100Y-6103300D01*
X15010450Y-5117150D02*
X15050450Y-5157150D01*
X15050450Y-5117150D02*
X15010450Y-5157150D01*
X15118400Y-3320100D02*
X15158400Y-3360100D01*
X15158400Y-3320100D02*
X15118400Y-3360100D01*
X15258100Y-2926400D02*
X15298100Y-2966400D01*
X15298100Y-2926400D02*
X15258100Y-2966400D01*
X15347000Y-5148900D02*
X15387000Y-5188900D01*
X15387000Y-5148900D02*
X15347000Y-5188900D01*
X15397800Y-6063300D02*
X15437800Y-6103300D01*
X15437800Y-6063300D02*
X15397800Y-6103300D01*
X15512100Y-16629700D02*
X15552100Y-16669700D01*
X15552100Y-16629700D02*
X15512100Y-16669700D01*
X15613700Y-5148900D02*
X15653700Y-5188900D01*
X15653700Y-5148900D02*
X15613700Y-5188900D01*
X15664500Y-6063300D02*
X15704500Y-6103300D01*
X15704500Y-6063300D02*
X15664500Y-6103300D01*
X15867700Y-5148900D02*
X15907700Y-5188900D01*
X15907700Y-5148900D02*
X15867700Y-5188900D01*
X15905800Y-6063300D02*
X15945800Y-6103300D01*
X15945800Y-6063300D02*
X15905800Y-6103300D01*
X15912150Y-4075750D02*
X15952150Y-4115750D01*
X15952150Y-4075750D02*
X15912150Y-4115750D01*
X16134400Y-5148900D02*
X16174400Y-5188900D01*
X16174400Y-5148900D02*
X16134400Y-5188900D01*
X16159800Y-6063300D02*
X16199800Y-6103300D01*
X16199800Y-6063300D02*
X16159800Y-6103300D01*
X16413800Y-5148900D02*
X16453800Y-5188900D01*
X16453800Y-5148900D02*
X16413800Y-5188900D01*
X16413800Y-6063300D02*
X16453800Y-6103300D01*
X16453800Y-6063300D02*
X16413800Y-6103300D01*
X16667800Y-6063300D02*
X16707800Y-6103300D01*
X16707800Y-6063300D02*
X16667800Y-6103300D01*
X16693200Y-5148900D02*
X16733200Y-5188900D01*
X16733200Y-5148900D02*
X16693200Y-5188900D01*
X16845600Y-16490000D02*
X16885600Y-16530000D01*
X16885600Y-16490000D02*
X16845600Y-16530000D01*
X16921800Y-6063300D02*
X16961800Y-6103300D01*
X16961800Y-6063300D02*
X16921800Y-6103300D01*
X16959900Y-5148900D02*
X16999900Y-5188900D01*
X16999900Y-5148900D02*
X16959900Y-5188900D01*
X17086900Y-2926400D02*
X17126900Y-2966400D01*
X17126900Y-2926400D02*
X17086900Y-2966400D01*
X17201200Y-5148900D02*
X17241200Y-5188900D01*
X17241200Y-5148900D02*
X17201200Y-5188900D01*
X17201200Y-6063300D02*
X17241200Y-6103300D01*
X17241200Y-6063300D02*
X17201200Y-6103300D01*
X17353600Y-12184700D02*
X17393600Y-12224700D01*
X17393600Y-12184700D02*
X17353600Y-12224700D01*
X17366300Y-11676700D02*
X17406300Y-11716700D01*
X17406300Y-11676700D02*
X17366300Y-11716700D01*
X17544100Y-3497900D02*
X17584100Y-3537900D01*
X17584100Y-3497900D02*
X17544100Y-3537900D01*
X17925100Y-14661200D02*
X17965100Y-14701200D01*
X17965100Y-14661200D02*
X17925100Y-14701200D01*
X18496600Y-15918500D02*
X18536600Y-15958500D01*
X18536600Y-15918500D02*
X18496600Y-15958500D01*
X8965800Y-2585720D02*
G75*
G03X8965800Y-2585720I-25000J0D01*
G01*
X8965800Y-2775720D02*
G75*
G03X8965800Y-2775720I-25000J0D01*
G01*
X8654160Y-2290360D02*
X8654160Y-2360360D01*
X8619160Y-2325360D02*
X8689160Y-2325360D01*
X9154160Y-2130360D02*
X9154160Y-2200360D01*
X9119160Y-2165360D02*
X9189160Y-2165360D01*
X9654160Y-2290360D02*
X9654160Y-2360360D01*
X9619160Y-2325360D02*
X9689160Y-2325360D01*
X6213184Y-3419184D02*
X6213184Y-3362615D01*
X6156615Y-3362615D01*
X6156615Y-3419184D01*
X6213184Y-3419184D01*
X6213184Y-3673184D02*
X6213184Y-3616615D01*
X6156615Y-3616615D01*
X6156615Y-3673184D01*
X6213184Y-3673184D01*
X6213184Y-3927184D02*
X6213184Y-3870615D01*
X6156615Y-3870615D01*
X6156615Y-3927184D01*
X6213184Y-3927184D01*
X6213184Y-4181184D02*
X6213184Y-4124615D01*
X6156615Y-4124615D01*
X6156615Y-4181184D01*
X6213184Y-4181184D01*
X6213184Y-4435185D02*
X6213184Y-4378616D01*
X6156615Y-4378616D01*
X6156615Y-4435185D01*
X6213184Y-4435185D01*
X6213184Y-4689185D02*
X6213184Y-4632616D01*
X6156615Y-4632616D01*
X6156615Y-4689185D01*
X6213184Y-4689185D01*
X6213184Y-4943185D02*
X6213184Y-4886616D01*
X6156615Y-4886616D01*
X6156615Y-4943185D01*
X6213184Y-4943185D01*
X6213184Y-5197185D02*
X6213184Y-5140616D01*
X6156615Y-5140616D01*
X6156615Y-5197185D01*
X6213184Y-5197185D01*
X6213184Y-5451185D02*
X6213184Y-5394616D01*
X6156615Y-5394616D01*
X6156615Y-5451185D01*
X6213184Y-5451185D01*
X6213184Y-5705184D02*
X6213184Y-5648615D01*
X6156615Y-5648615D01*
X6156615Y-5705184D01*
X6213184Y-5705184D01*
X6213184Y-5959184D02*
X6213184Y-5902615D01*
X6156615Y-5902615D01*
X6156615Y-5959184D01*
X6213184Y-5959184D01*
X6213184Y-6213184D02*
X6213184Y-6156615D01*
X6156615Y-6156615D01*
X6156615Y-6213184D01*
X6213184Y-6213184D01*
X6213184Y-6467184D02*
X6213184Y-6410615D01*
X6156615Y-6410615D01*
X6156615Y-6467184D01*
X6213184Y-6467184D01*
X6213184Y-6721184D02*
X6213184Y-6664615D01*
X6156615Y-6664615D01*
X6156615Y-6721184D01*
X6213184Y-6721184D01*
X6213184Y-6975184D02*
X6213184Y-6918615D01*
X6156615Y-6918615D01*
X6156615Y-6975184D01*
X6213184Y-6975184D01*
X6213184Y-7229184D02*
X6213184Y-7172615D01*
X6156615Y-7172615D01*
X6156615Y-7229184D01*
X6213184Y-7229184D01*
X6213184Y-7483184D02*
X6213184Y-7426615D01*
X6156615Y-7426615D01*
X6156615Y-7483184D01*
X6213184Y-7483184D01*
X6213184Y-7737184D02*
X6213184Y-7680615D01*
X6156615Y-7680615D01*
X6156615Y-7737184D01*
X6213184Y-7737184D01*
X6213184Y-7991184D02*
X6213184Y-7934615D01*
X6156615Y-7934615D01*
X6156615Y-7991184D01*
X6213184Y-7991184D01*
X6213184Y-8245184D02*
X6213184Y-8188615D01*
X6156615Y-8188615D01*
X6156615Y-8245184D01*
X6213184Y-8245184D01*
X7737184Y-3419184D02*
X7737184Y-3362615D01*
X7680615Y-3362615D01*
X7680615Y-3419184D01*
X7737184Y-3419184D01*
X7737184Y-3673184D02*
X7737184Y-3616615D01*
X7680615Y-3616615D01*
X7680615Y-3673184D01*
X7737184Y-3673184D01*
X7737184Y-3927184D02*
X7737184Y-3870615D01*
X7680615Y-3870615D01*
X7680615Y-3927184D01*
X7737184Y-3927184D01*
X7737184Y-4181184D02*
X7737184Y-4124615D01*
X7680615Y-4124615D01*
X7680615Y-4181184D01*
X7737184Y-4181184D01*
X7737184Y-4435185D02*
X7737184Y-4378616D01*
X7680615Y-4378616D01*
X7680615Y-4435185D01*
X7737184Y-4435185D01*
X7737184Y-4689185D02*
X7737184Y-4632616D01*
X7680615Y-4632616D01*
X7680615Y-4689185D01*
X7737184Y-4689185D01*
X7737184Y-4943185D02*
X7737184Y-4886616D01*
X7680615Y-4886616D01*
X7680615Y-4943185D01*
X7737184Y-4943185D01*
X7737184Y-5197185D02*
X7737184Y-5140616D01*
X7680615Y-5140616D01*
X7680615Y-5197185D01*
X7737184Y-5197185D01*
X7737184Y-5451185D02*
X7737184Y-5394616D01*
X7680615Y-5394616D01*
X7680615Y-5451185D01*
X7737184Y-5451185D01*
X7737184Y-5705184D02*
X7737184Y-5648615D01*
X7680615Y-5648615D01*
X7680615Y-5705184D01*
X7737184Y-5705184D01*
X7737184Y-5959184D02*
X7737184Y-5902615D01*
X7680615Y-5902615D01*
X7680615Y-5959184D01*
X7737184Y-5959184D01*
X7737184Y-6213184D02*
X7737184Y-6156615D01*
X7680615Y-6156615D01*
X7680615Y-6213184D01*
X7737184Y-6213184D01*
X7737184Y-6467184D02*
X7737184Y-6410615D01*
X7680615Y-6410615D01*
X7680615Y-6467184D01*
X7737184Y-6467184D01*
X7737184Y-6721184D02*
X7737184Y-6664615D01*
X7680615Y-6664615D01*
X7680615Y-6721184D01*
X7737184Y-6721184D01*
X7737184Y-6975184D02*
X7737184Y-6918615D01*
X7680615Y-6918615D01*
X7680615Y-6975184D01*
X7737184Y-6975184D01*
X7737184Y-7229184D02*
X7737184Y-7172615D01*
X7680615Y-7172615D01*
X7680615Y-7229184D01*
X7737184Y-7229184D01*
X7737184Y-7483184D02*
X7737184Y-7426615D01*
X7680615Y-7426615D01*
X7680615Y-7483184D01*
X7737184Y-7483184D01*
X7737184Y-7737184D02*
X7737184Y-7680615D01*
X7680615Y-7680615D01*
X7680615Y-7737184D01*
X7737184Y-7737184D01*
X7737184Y-7991184D02*
X7737184Y-7934615D01*
X7680615Y-7934615D01*
X7680615Y-7991184D01*
X7737184Y-7991184D01*
X7737184Y-8245184D02*
X7737184Y-8188615D01*
X7680615Y-8188615D01*
X7680615Y-8245184D01*
X7737184Y-8245184D01*
X8971625Y-9611705D02*
X8971625Y-9555136D01*
X8915056Y-9555136D01*
X8915056Y-9611705D01*
X8971625Y-9611705D01*
X8971625Y-9865705D02*
X8971625Y-9809136D01*
X8915056Y-9809136D01*
X8915056Y-9865705D01*
X8971625Y-9865705D01*
X9465385Y-13629984D02*
X9465385Y-13573415D01*
X9408816Y-13573415D01*
X9408816Y-13629984D01*
X9465385Y-13629984D01*
X9845385Y-13629984D02*
X9845385Y-13573415D01*
X9788816Y-13573415D01*
X9788816Y-13629984D01*
X9845385Y-13629984D01*
X10289885Y-15344484D02*
X10289885Y-15287915D01*
X10233316Y-15287915D01*
X10233316Y-15344484D01*
X10289885Y-15344484D01*
X10569285Y-9019885D02*
X10569285Y-8963316D01*
X10512716Y-8963316D01*
X10512716Y-9019885D01*
X10569285Y-9019885D01*
X10569285Y-9273885D02*
X10569285Y-9217316D01*
X10512716Y-9217316D01*
X10512716Y-9273885D01*
X10569285Y-9273885D01*
X10669885Y-15344484D02*
X10669885Y-15287915D01*
X10613316Y-15287915D01*
X10613316Y-15344484D01*
X10669885Y-15344484D01*
X12639384Y-12170484D02*
X12639384Y-12113915D01*
X12582815Y-12113915D01*
X12582815Y-12170484D01*
X12639384Y-12170484D01*
X12639384Y-12550484D02*
X12639384Y-12493915D01*
X12582815Y-12493915D01*
X12582815Y-12550484D01*
X12639384Y-12550484D01*
X12893384Y-14328484D02*
X12893384Y-14271915D01*
X12836815Y-14271915D01*
X12836815Y-14328484D01*
X12893384Y-14328484D01*
X13273384Y-14328484D02*
X13273384Y-14271915D01*
X13216815Y-14271915D01*
X13216815Y-14328484D01*
X13273384Y-14328484D01*
X15243884Y-13629984D02*
X15243884Y-13573415D01*
X15187315Y-13573415D01*
X15187315Y-13629984D01*
X15243884Y-13629984D01*
X15623884Y-13629984D02*
X15623884Y-13573415D01*
X15567315Y-13573415D01*
X15567315Y-13629984D01*
X15623884Y-13629984D01*
X16068384Y-15344484D02*
X16068384Y-15287915D01*
X16011815Y-15287915D01*
X16011815Y-15344484D01*
X16068384Y-15344484D01*
X16448384Y-15344484D02*
X16448384Y-15287915D01*
X16391815Y-15287915D01*
X16391815Y-15344484D01*
X16448384Y-15344484D01*
X18417885Y-12170484D02*
X18417885Y-12113915D01*
X18361316Y-12113915D01*
X18361316Y-12170484D01*
X18417885Y-12170484D01*
X18417885Y-12550484D02*
X18417885Y-12493915D01*
X18361316Y-12493915D01*
X18361316Y-12550484D01*
X18417885Y-12550484D01*
X18671885Y-14328484D02*
X18671885Y-14271915D01*
X18615316Y-14271915D01*
X18615316Y-14328484D01*
X18671885Y-14328484D01*
X19051885Y-14328484D02*
X19051885Y-14271915D01*
X18995316Y-14271915D01*
X18995316Y-14328484D01*
X19051885Y-14328484D01*
X3403600Y-16687000D02*
X3453600Y-16637000D01*
X3403600Y-16587000D01*
X3353600Y-16637000D01*
X3403600Y-16687000D01*
X3403600Y-17029900D02*
X3453600Y-16979900D01*
X3403600Y-16929900D01*
X3353600Y-16979900D01*
X3403600Y-17029900D01*
X3467100Y-12267400D02*
X3517100Y-12217400D01*
X3467100Y-12167400D01*
X3417100Y-12217400D01*
X3467100Y-12267400D01*
X3467100Y-12610300D02*
X3517100Y-12560300D01*
X3467100Y-12510300D01*
X3417100Y-12560300D01*
X3467100Y-12610300D01*
X3657600Y-16687000D02*
X3707600Y-16637000D01*
X3657600Y-16587000D01*
X3607600Y-16637000D01*
X3657600Y-16687000D01*
X3657600Y-17029900D02*
X3707600Y-16979900D01*
X3657600Y-16929900D01*
X3607600Y-16979900D01*
X3657600Y-17029900D01*
X3721100Y-12267400D02*
X3771100Y-12217400D01*
X3721100Y-12167400D01*
X3671100Y-12217400D01*
X3721100Y-12267400D01*
X3721100Y-12610300D02*
X3771100Y-12560300D01*
X3721100Y-12510300D01*
X3671100Y-12560300D01*
X3721100Y-12610300D01*
X3911600Y-16687000D02*
X3961600Y-16637000D01*
X3911600Y-16587000D01*
X3861600Y-16637000D01*
X3911600Y-16687000D01*
X3911600Y-17029900D02*
X3961600Y-16979900D01*
X3911600Y-16929900D01*
X3861600Y-16979900D01*
X3911600Y-17029900D01*
X3975100Y-12267400D02*
X4025100Y-12217400D01*
X3975100Y-12167400D01*
X3925100Y-12217400D01*
X3975100Y-12267400D01*
X3975100Y-12610300D02*
X4025100Y-12560300D01*
X3975100Y-12510300D01*
X3925100Y-12560300D01*
X3975100Y-12610300D01*
X4165600Y-16687000D02*
X4215600Y-16637000D01*
X4165600Y-16587000D01*
X4115600Y-16637000D01*
X4165600Y-16687000D01*
X4165600Y-17029900D02*
X4215600Y-16979900D01*
X4165600Y-16929900D01*
X4115600Y-16979900D01*
X4165600Y-17029900D01*
X4229100Y-12267400D02*
X4279100Y-12217400D01*
X4229100Y-12167400D01*
X4179100Y-12217400D01*
X4229100Y-12267400D01*
X4229100Y-12610300D02*
X4279100Y-12560300D01*
X4229100Y-12510300D01*
X4179100Y-12560300D01*
X4229100Y-12610300D01*
X4371340Y-9338780D02*
X4421340Y-9288780D01*
X4371340Y-9238780D01*
X4321340Y-9288780D01*
X4371340Y-9338780D01*
X4371340Y-9592780D02*
X4421340Y-9542780D01*
X4371340Y-9492780D01*
X4321340Y-9542780D01*
X4371340Y-9592780D01*
X4419600Y-16687000D02*
X4469600Y-16637000D01*
X4419600Y-16587000D01*
X4369600Y-16637000D01*
X4419600Y-16687000D01*
X4419600Y-17029900D02*
X4469600Y-16979900D01*
X4419600Y-16929900D01*
X4369600Y-16979900D01*
X4419600Y-17029900D01*
X4483100Y-12267400D02*
X4533100Y-12217400D01*
X4483100Y-12167400D01*
X4433100Y-12217400D01*
X4483100Y-12267400D01*
X4483100Y-12610300D02*
X4533100Y-12560300D01*
X4483100Y-12510300D01*
X4433100Y-12560300D01*
X4483100Y-12610300D01*
X4625340Y-9338780D02*
X4675340Y-9288780D01*
X4625340Y-9238780D01*
X4575340Y-9288780D01*
X4625340Y-9338780D01*
X4625340Y-9592780D02*
X4675340Y-9542780D01*
X4625340Y-9492780D01*
X4575340Y-9542780D01*
X4625340Y-9592780D01*
X4673600Y-16687000D02*
X4723600Y-16637000D01*
X4673600Y-16587000D01*
X4623600Y-16637000D01*
X4673600Y-16687000D01*
X4673600Y-17029900D02*
X4723600Y-16979900D01*
X4673600Y-16929900D01*
X4623600Y-16979900D01*
X4673600Y-17029900D01*
X4737100Y-12267400D02*
X4787100Y-12217400D01*
X4737100Y-12167400D01*
X4687100Y-12217400D01*
X4737100Y-12267400D01*
X4737100Y-12610300D02*
X4787100Y-12560300D01*
X4737100Y-12510300D01*
X4687100Y-12560300D01*
X4737100Y-12610300D01*
X4879340Y-9338780D02*
X4929340Y-9288780D01*
X4879340Y-9238780D01*
X4829340Y-9288780D01*
X4879340Y-9338780D01*
X4879340Y-9592780D02*
X4929340Y-9542780D01*
X4879340Y-9492780D01*
X4829340Y-9542780D01*
X4879340Y-9592780D01*
X4927600Y-16687000D02*
X4977600Y-16637000D01*
X4927600Y-16587000D01*
X4877600Y-16637000D01*
X4927600Y-16687000D01*
X4927600Y-17029900D02*
X4977600Y-16979900D01*
X4927600Y-16929900D01*
X4877600Y-16979900D01*
X4927600Y-17029900D01*
X4991100Y-12267400D02*
X5041100Y-12217400D01*
X4991100Y-12167400D01*
X4941100Y-12217400D01*
X4991100Y-12267400D01*
X4991100Y-12610300D02*
X5041100Y-12560300D01*
X4991100Y-12510300D01*
X4941100Y-12560300D01*
X4991100Y-12610300D01*
X5092700Y-2615400D02*
X5142700Y-2565400D01*
X5092700Y-2515400D01*
X5042700Y-2565400D01*
X5092700Y-2615400D01*
X5092700Y-2869400D02*
X5142700Y-2819400D01*
X5092700Y-2769400D01*
X5042700Y-2819400D01*
X5092700Y-2869400D01*
X5133340Y-9338780D02*
X5183340Y-9288780D01*
X5133340Y-9238780D01*
X5083340Y-9288780D01*
X5133340Y-9338780D01*
X5133340Y-9592780D02*
X5183340Y-9542780D01*
X5133340Y-9492780D01*
X5083340Y-9542780D01*
X5133340Y-9592780D01*
X5181600Y-16687000D02*
X5231600Y-16637000D01*
X5181600Y-16587000D01*
X5131600Y-16637000D01*
X5181600Y-16687000D01*
X5181600Y-17029900D02*
X5231600Y-16979900D01*
X5181600Y-16929900D01*
X5131600Y-16979900D01*
X5181600Y-17029900D01*
X5245100Y-12267400D02*
X5295100Y-12217400D01*
X5245100Y-12167400D01*
X5195100Y-12217400D01*
X5245100Y-12267400D01*
X5245100Y-12610300D02*
X5295100Y-12560300D01*
X5245100Y-12510300D01*
X5195100Y-12560300D01*
X5245100Y-12610300D01*
X5387340Y-9338780D02*
X5437340Y-9288780D01*
X5387340Y-9238780D01*
X5337340Y-9288780D01*
X5387340Y-9338780D01*
X5387340Y-9592780D02*
X5437340Y-9542780D01*
X5387340Y-9492780D01*
X5337340Y-9542780D01*
X5387340Y-9592780D01*
X5435600Y-16687000D02*
X5485600Y-16637000D01*
X5435600Y-16587000D01*
X5385600Y-16637000D01*
X5435600Y-16687000D01*
X5435600Y-17029900D02*
X5485600Y-16979900D01*
X5435600Y-16929900D01*
X5385600Y-16979900D01*
X5435600Y-17029900D01*
X5499100Y-12267400D02*
X5549100Y-12217400D01*
X5499100Y-12167400D01*
X5449100Y-12217400D01*
X5499100Y-12267400D01*
X5499100Y-12610300D02*
X5549100Y-12560300D01*
X5499100Y-12510300D01*
X5449100Y-12560300D01*
X5499100Y-12610300D01*
X6489700Y-16864800D02*
X6539700Y-16814800D01*
X6489700Y-16764800D01*
X6439700Y-16814800D01*
X6489700Y-16864800D01*
X6489700Y-17118800D02*
X6539700Y-17068800D01*
X6489700Y-17018800D01*
X6439700Y-17068800D01*
X6489700Y-17118800D01*
X6489700Y-17372800D02*
X6539700Y-17322800D01*
X6489700Y-17272800D01*
X6439700Y-17322800D01*
X6489700Y-17372800D01*
X6489700Y-17626800D02*
X6539700Y-17576800D01*
X6489700Y-17526800D01*
X6439700Y-17576800D01*
X6489700Y-17626800D01*
X6489700Y-17880800D02*
X6539700Y-17830800D01*
X6489700Y-17780800D01*
X6439700Y-17830800D01*
X6489700Y-17880800D01*
X6489700Y-18134800D02*
X6539700Y-18084800D01*
X6489700Y-18034800D01*
X6439700Y-18084800D01*
X6489700Y-18134800D01*
X6489700Y-18388800D02*
X6539700Y-18338800D01*
X6489700Y-18288800D01*
X6439700Y-18338800D01*
X6489700Y-18388800D01*
X6489700Y-18642800D02*
X6539700Y-18592800D01*
X6489700Y-18542800D01*
X6439700Y-18592800D01*
X6489700Y-18642800D01*
X6489700Y-18896800D02*
X6539700Y-18846800D01*
X6489700Y-18796800D01*
X6439700Y-18846800D01*
X6489700Y-18896800D01*
X6553200Y-12445200D02*
X6603200Y-12395200D01*
X6553200Y-12345200D01*
X6503200Y-12395200D01*
X6553200Y-12445200D01*
X6553200Y-12699200D02*
X6603200Y-12649200D01*
X6553200Y-12599200D01*
X6503200Y-12649200D01*
X6553200Y-12699200D01*
X6553200Y-12953200D02*
X6603200Y-12903200D01*
X6553200Y-12853200D01*
X6503200Y-12903200D01*
X6553200Y-12953200D01*
X6553200Y-13207200D02*
X6603200Y-13157200D01*
X6553200Y-13107200D01*
X6503200Y-13157200D01*
X6553200Y-13207200D01*
X6553200Y-13461200D02*
X6603200Y-13411200D01*
X6553200Y-13361200D01*
X6503200Y-13411200D01*
X6553200Y-13461200D01*
X6553200Y-13715200D02*
X6603200Y-13665200D01*
X6553200Y-13615200D01*
X6503200Y-13665200D01*
X6553200Y-13715200D01*
X6553200Y-13969200D02*
X6603200Y-13919200D01*
X6553200Y-13869200D01*
X6503200Y-13919200D01*
X6553200Y-13969200D01*
X6553200Y-14223200D02*
X6603200Y-14173200D01*
X6553200Y-14123200D01*
X6503200Y-14173200D01*
X6553200Y-14223200D01*
X6553200Y-14477200D02*
X6603200Y-14427200D01*
X6553200Y-14377200D01*
X6503200Y-14427200D01*
X6553200Y-14477200D01*
X10947400Y-8787600D02*
X10997400Y-8737600D01*
X10947400Y-8687600D01*
X10897400Y-8737600D01*
X10947400Y-8787600D01*
X10947400Y-9041600D02*
X10997400Y-8991600D01*
X10947400Y-8941600D01*
X10897400Y-8991600D01*
X10947400Y-9041600D01*
X13779500Y-3783800D02*
X13829500Y-3733800D01*
X13779500Y-3683800D01*
X13729500Y-3733800D01*
X13779500Y-3783800D01*
X13779500Y-4037800D02*
X13829500Y-3987800D01*
X13779500Y-3937800D01*
X13729500Y-3987800D01*
X13779500Y-4037800D01*
X13779500Y-4291800D02*
X13829500Y-4241800D01*
X13779500Y-4191800D01*
X13729500Y-4241800D01*
X13779500Y-4291800D01*
X13779500Y-4545800D02*
X13829500Y-4495800D01*
X13779500Y-4445800D01*
X13729500Y-4495800D01*
X13779500Y-4545800D01*
X13779500Y-4799800D02*
X13829500Y-4749800D01*
X13779500Y-4699800D01*
X13729500Y-4749800D01*
X13779500Y-4799800D01*
X13779500Y-5053800D02*
X13829500Y-5003800D01*
X13779500Y-4953800D01*
X13729500Y-5003800D01*
X13779500Y-5053800D01*
X13779500Y-5307800D02*
X13829500Y-5257800D01*
X13779500Y-5207800D01*
X13729500Y-5257800D01*
X13779500Y-5307800D01*
X13779500Y-5561800D02*
X13829500Y-5511800D01*
X13779500Y-5461800D01*
X13729500Y-5511800D01*
X13779500Y-5561800D01*
X15036800Y-5498300D02*
X15086800Y-5448300D01*
X15036800Y-5398300D01*
X14986800Y-5448300D01*
X15036800Y-5498300D01*
X15036800Y-5841200D02*
X15086800Y-5791200D01*
X15036800Y-5741200D01*
X14986800Y-5791200D01*
X15036800Y-5841200D01*
X15290800Y-5498300D02*
X15340800Y-5448300D01*
X15290800Y-5398300D01*
X15240800Y-5448300D01*
X15290800Y-5498300D01*
X15290800Y-5841200D02*
X15340800Y-5791200D01*
X15290800Y-5741200D01*
X15240800Y-5791200D01*
X15290800Y-5841200D01*
X15544800Y-5498300D02*
X15594800Y-5448300D01*
X15544800Y-5398300D01*
X15494800Y-5448300D01*
X15544800Y-5498300D01*
X15544800Y-5841200D02*
X15594800Y-5791200D01*
X15544800Y-5741200D01*
X15494800Y-5791200D01*
X15544800Y-5841200D01*
X15798800Y-5498300D02*
X15848800Y-5448300D01*
X15798800Y-5398300D01*
X15748800Y-5448300D01*
X15798800Y-5498300D01*
X15798800Y-5841200D02*
X15848800Y-5791200D01*
X15798800Y-5741200D01*
X15748800Y-5791200D01*
X15798800Y-5841200D01*
X16052800Y-5498300D02*
X16102800Y-5448300D01*
X16052800Y-5398300D01*
X16002800Y-5448300D01*
X16052800Y-5498300D01*
X16052800Y-5841200D02*
X16102800Y-5791200D01*
X16052800Y-5741200D01*
X16002800Y-5791200D01*
X16052800Y-5841200D01*
X16306800Y-5498300D02*
X16356800Y-5448300D01*
X16306800Y-5398300D01*
X16256800Y-5448300D01*
X16306800Y-5498300D01*
X16306800Y-5841200D02*
X16356800Y-5791200D01*
X16306800Y-5741200D01*
X16256800Y-5791200D01*
X16306800Y-5841200D01*
X16560800Y-5498300D02*
X16610800Y-5448300D01*
X16560800Y-5398300D01*
X16510800Y-5448300D01*
X16560800Y-5498300D01*
X16560800Y-5841200D02*
X16610800Y-5791200D01*
X16560800Y-5741200D01*
X16510800Y-5791200D01*
X16560800Y-5841200D01*
X16814800Y-5498300D02*
X16864800Y-5448300D01*
X16814800Y-5398300D01*
X16764800Y-5448300D01*
X16814800Y-5498300D01*
X16814800Y-5841200D02*
X16864800Y-5791200D01*
X16814800Y-5741200D01*
X16764800Y-5791200D01*
X16814800Y-5841200D01*
X17068800Y-5498300D02*
X17118800Y-5448300D01*
X17068800Y-5398300D01*
X17018800Y-5448300D01*
X17068800Y-5498300D01*
X17068800Y-5841200D02*
X17118800Y-5791200D01*
X17068800Y-5741200D01*
X17018800Y-5791200D01*
X17068800Y-5841200D01*
X4511802Y-2446782D02*
X4611878Y-2546858D01*
X4611878Y-2446782D02*
X4511802Y-2546858D01*
X4611878Y-2496820D02*
G75*
G03X4611878Y-2496820I-50038J0D01*
G01*
X4511802Y-2764282D02*
X4611878Y-2864358D01*
X4611878Y-2764282D02*
X4511802Y-2864358D01*
X4611878Y-2814320D02*
G75*
G03X4611878Y-2814320I-50038J0D01*
G01*
X3794760Y-3204210D02*
X3896360Y-3305810D01*
X3896360Y-3204210D02*
X3794760Y-3305810D01*
X3845560Y-3204210D02*
X3845560Y-3305810D01*
X3794760Y-3255010D02*
X3896360Y-3255010D01*
X3794760Y-3458210D02*
X3896360Y-3559810D01*
X3896360Y-3458210D02*
X3794760Y-3559810D01*
X3845560Y-3458210D02*
X3845560Y-3559810D01*
X3794760Y-3509010D02*
X3896360Y-3509010D01*
X3794760Y-3712210D02*
X3896360Y-3813810D01*
X3896360Y-3712210D02*
X3794760Y-3813810D01*
X3845560Y-3712210D02*
X3845560Y-3813810D01*
X3794760Y-3763010D02*
X3896360Y-3763010D01*
X3794760Y-3966210D02*
X3896360Y-4067810D01*
X3896360Y-3966210D02*
X3794760Y-4067810D01*
X3845560Y-3966210D02*
X3845560Y-4067810D01*
X3794760Y-4017010D02*
X3896360Y-4017010D01*
X3794760Y-4220210D02*
X3896360Y-4321810D01*
X3896360Y-4220210D02*
X3794760Y-4321810D01*
X3845560Y-4220210D02*
X3845560Y-4321810D01*
X3794760Y-4271010D02*
X3896360Y-4271010D01*
X3794760Y-4474210D02*
X3896360Y-4575810D01*
X3896360Y-4474210D02*
X3794760Y-4575810D01*
X3845560Y-4474210D02*
X3845560Y-4575810D01*
X3794760Y-4525010D02*
X3896360Y-4525010D01*
X3794760Y-4728210D02*
X3896360Y-4829810D01*
X3896360Y-4728210D02*
X3794760Y-4829810D01*
X3845560Y-4728210D02*
X3845560Y-4829810D01*
X3794760Y-4779010D02*
X3896360Y-4779010D01*
X3794760Y-4982210D02*
X3896360Y-5083810D01*
X3896360Y-4982210D02*
X3794760Y-5083810D01*
X3845560Y-4982210D02*
X3845560Y-5083810D01*
X3794760Y-5033010D02*
X3896360Y-5033010D01*
X3794760Y-5236210D02*
X3896360Y-5337810D01*
X3896360Y-5236210D02*
X3794760Y-5337810D01*
X3845560Y-5236210D02*
X3845560Y-5337810D01*
X3794760Y-5287010D02*
X3896360Y-5287010D01*
X3794760Y-5490210D02*
X3896360Y-5591810D01*
X3896360Y-5490210D02*
X3794760Y-5591810D01*
X3845560Y-5490210D02*
X3845560Y-5591810D01*
X3794760Y-5541010D02*
X3896360Y-5541010D01*
X3794760Y-5744210D02*
X3896360Y-5845810D01*
X3896360Y-5744210D02*
X3794760Y-5845810D01*
X3845560Y-5744210D02*
X3845560Y-5845810D01*
X3794760Y-5795010D02*
X3896360Y-5795010D01*
X3794760Y-5998210D02*
X3896360Y-6099810D01*
X3896360Y-5998210D02*
X3794760Y-6099810D01*
X3845560Y-5998210D02*
X3845560Y-6099810D01*
X3794760Y-6049010D02*
X3896360Y-6049010D01*
X3794760Y-6252210D02*
X3896360Y-6353810D01*
X3896360Y-6252210D02*
X3794760Y-6353810D01*
X3845560Y-6252210D02*
X3845560Y-6353810D01*
X3794760Y-6303010D02*
X3896360Y-6303010D01*
X3794760Y-6506210D02*
X3896360Y-6607810D01*
X3896360Y-6506210D02*
X3794760Y-6607810D01*
X3845560Y-6506210D02*
X3845560Y-6607810D01*
X3794760Y-6557010D02*
X3896360Y-6557010D01*
X3794760Y-6760210D02*
X3896360Y-6861810D01*
X3896360Y-6760210D02*
X3794760Y-6861810D01*
X3845560Y-6760210D02*
X3845560Y-6861810D01*
X3794760Y-6811010D02*
X3896360Y-6811010D01*
X3794760Y-7014210D02*
X3896360Y-7115810D01*
X3896360Y-7014210D02*
X3794760Y-7115810D01*
X3845560Y-7014210D02*
X3845560Y-7115810D01*
X3794760Y-7065010D02*
X3896360Y-7065010D01*
X3794760Y-7268210D02*
X3896360Y-7369810D01*
X3896360Y-7268210D02*
X3794760Y-7369810D01*
X3845560Y-7268210D02*
X3845560Y-7369810D01*
X3794760Y-7319010D02*
X3896360Y-7319010D01*
X3794760Y-7522210D02*
X3896360Y-7623810D01*
X3896360Y-7522210D02*
X3794760Y-7623810D01*
X3845560Y-7522210D02*
X3845560Y-7623810D01*
X3794760Y-7573010D02*
X3896360Y-7573010D01*
X3794760Y-7776210D02*
X3896360Y-7877810D01*
X3896360Y-7776210D02*
X3794760Y-7877810D01*
X3845560Y-7776210D02*
X3845560Y-7877810D01*
X3794760Y-7827010D02*
X3896360Y-7827010D01*
X3794760Y-8030210D02*
X3896360Y-8131810D01*
X3896360Y-8030210D02*
X3794760Y-8131810D01*
X3845560Y-8030210D02*
X3845560Y-8131810D01*
X3794760Y-8081010D02*
X3896360Y-8081010D01*
X3794760Y-8284210D02*
X3896360Y-8385810D01*
X3896360Y-8284210D02*
X3794760Y-8385810D01*
X3845560Y-8284210D02*
X3845560Y-8385810D01*
X3794760Y-8335010D02*
X3896360Y-8335010D01*
X6375400Y-9258300D02*
X6477000Y-9359900D01*
X6477000Y-9258300D02*
X6375400Y-9359900D01*
X6426200Y-9258300D02*
X6426200Y-9359900D01*
X6375400Y-9309100D02*
X6477000Y-9309100D01*
X6375400Y-9512300D02*
X6477000Y-9613900D01*
X6477000Y-9512300D02*
X6375400Y-9613900D01*
X6426200Y-9512300D02*
X6426200Y-9613900D01*
X6375400Y-9563100D02*
X6477000Y-9563100D01*
X6375400Y-9766300D02*
X6477000Y-9867900D01*
X6477000Y-9766300D02*
X6375400Y-9867900D01*
X6426200Y-9766300D02*
X6426200Y-9867900D01*
X6375400Y-9817100D02*
X6477000Y-9817100D01*
X6769100Y-2476500D02*
X6870700Y-2578100D01*
X6870700Y-2476500D02*
X6769100Y-2578100D01*
X6819900Y-2476500D02*
X6819900Y-2578100D01*
X6769100Y-2527300D02*
X6870700Y-2527300D01*
X6769100Y-2730500D02*
X6870700Y-2832100D01*
X6870700Y-2730500D02*
X6769100Y-2832100D01*
X6819900Y-2730500D02*
X6819900Y-2832100D01*
X6769100Y-2781300D02*
X6870700Y-2781300D01*
X7023100Y-2476500D02*
X7124700Y-2578100D01*
X7124700Y-2476500D02*
X7023100Y-2578100D01*
X7073900Y-2476500D02*
X7073900Y-2578100D01*
X7023100Y-2527300D02*
X7124700Y-2527300D01*
X7023100Y-2730500D02*
X7124700Y-2832100D01*
X7124700Y-2730500D02*
X7023100Y-2832100D01*
X7073900Y-2730500D02*
X7073900Y-2832100D01*
X7023100Y-2781300D02*
X7124700Y-2781300D01*
X7277100Y-2476500D02*
X7378700Y-2578100D01*
X7378700Y-2476500D02*
X7277100Y-2578100D01*
X7327900Y-2476500D02*
X7327900Y-2578100D01*
X7277100Y-2527300D02*
X7378700Y-2527300D01*
X7277100Y-2730500D02*
X7378700Y-2832100D01*
X7378700Y-2730500D02*
X7277100Y-2832100D01*
X7327900Y-2730500D02*
X7327900Y-2832100D01*
X7277100Y-2781300D02*
X7378700Y-2781300D01*
X9575800Y-12280900D02*
X9677400Y-12382500D01*
X9677400Y-12280900D02*
X9575800Y-12382500D01*
X9626600Y-12280900D02*
X9626600Y-12382500D01*
X9575800Y-12331700D02*
X9677400Y-12331700D01*
X9575800Y-12534900D02*
X9677400Y-12636500D01*
X9677400Y-12534900D02*
X9575800Y-12636500D01*
X9626600Y-12534900D02*
X9626600Y-12636500D01*
X9575800Y-12585700D02*
X9677400Y-12585700D01*
X9639300Y-15265400D02*
X9740900Y-15367000D01*
X9740900Y-15265400D02*
X9639300Y-15367000D01*
X9690100Y-15265400D02*
X9690100Y-15367000D01*
X9639300Y-15316200D02*
X9740900Y-15316200D01*
X9639300Y-15519400D02*
X9740900Y-15621000D01*
X9740900Y-15519400D02*
X9639300Y-15621000D01*
X9690100Y-15519400D02*
X9690100Y-15621000D01*
X9639300Y-15570200D02*
X9740900Y-15570200D01*
X9639300Y-15773400D02*
X9740900Y-15875000D01*
X9740900Y-15773400D02*
X9639300Y-15875000D01*
X9690100Y-15773400D02*
X9690100Y-15875000D01*
X9639300Y-15824200D02*
X9740900Y-15824200D01*
X9639300Y-16027400D02*
X9740900Y-16129000D01*
X9740900Y-16027400D02*
X9639300Y-16129000D01*
X9690100Y-16027400D02*
X9690100Y-16129000D01*
X9639300Y-16078200D02*
X9740900Y-16078200D01*
X10109200Y-3238500D02*
X10210800Y-3340100D01*
X10210800Y-3238500D02*
X10109200Y-3340100D01*
X10160000Y-3238500D02*
X10160000Y-3340100D01*
X10109200Y-3289300D02*
X10210800Y-3289300D01*
X10109200Y-3492500D02*
X10210800Y-3594100D01*
X10210800Y-3492500D02*
X10109200Y-3594100D01*
X10160000Y-3492500D02*
X10160000Y-3594100D01*
X10109200Y-3543300D02*
X10210800Y-3543300D01*
X10109200Y-3746500D02*
X10210800Y-3848100D01*
X10210800Y-3746500D02*
X10109200Y-3848100D01*
X10160000Y-3746500D02*
X10160000Y-3848100D01*
X10109200Y-3797300D02*
X10210800Y-3797300D01*
X10109200Y-4000500D02*
X10210800Y-4102100D01*
X10210800Y-4000500D02*
X10109200Y-4102100D01*
X10160000Y-4000500D02*
X10160000Y-4102100D01*
X10109200Y-4051300D02*
X10210800Y-4051300D01*
X10109200Y-4254500D02*
X10210800Y-4356100D01*
X10210800Y-4254500D02*
X10109200Y-4356100D01*
X10160000Y-4254500D02*
X10160000Y-4356100D01*
X10109200Y-4305300D02*
X10210800Y-4305300D01*
X10109200Y-4508500D02*
X10210800Y-4610100D01*
X10210800Y-4508500D02*
X10109200Y-4610100D01*
X10160000Y-4508500D02*
X10160000Y-4610100D01*
X10109200Y-4559300D02*
X10210800Y-4559300D01*
X10109200Y-4762500D02*
X10210800Y-4864100D01*
X10210800Y-4762500D02*
X10109200Y-4864100D01*
X10160000Y-4762500D02*
X10160000Y-4864100D01*
X10109200Y-4813300D02*
X10210800Y-4813300D01*
X10109200Y-5016500D02*
X10210800Y-5118100D01*
X10210800Y-5016500D02*
X10109200Y-5118100D01*
X10160000Y-5016500D02*
X10160000Y-5118100D01*
X10109200Y-5067300D02*
X10210800Y-5067300D01*
X10109200Y-5270500D02*
X10210800Y-5372100D01*
X10210800Y-5270500D02*
X10109200Y-5372100D01*
X10160000Y-5270500D02*
X10160000Y-5372100D01*
X10109200Y-5321300D02*
X10210800Y-5321300D01*
X10109200Y-5524500D02*
X10210800Y-5626100D01*
X10210800Y-5524500D02*
X10109200Y-5626100D01*
X10160000Y-5524500D02*
X10160000Y-5626100D01*
X10109200Y-5575300D02*
X10210800Y-5575300D01*
X10109200Y-5778500D02*
X10210800Y-5880100D01*
X10210800Y-5778500D02*
X10109200Y-5880100D01*
X10160000Y-5778500D02*
X10160000Y-5880100D01*
X10109200Y-5829300D02*
X10210800Y-5829300D01*
X10109200Y-6032500D02*
X10210800Y-6134100D01*
X10210800Y-6032500D02*
X10109200Y-6134100D01*
X10160000Y-6032500D02*
X10160000Y-6134100D01*
X10109200Y-6083300D02*
X10210800Y-6083300D01*
X10109200Y-6286500D02*
X10210800Y-6388100D01*
X10210800Y-6286500D02*
X10109200Y-6388100D01*
X10160000Y-6286500D02*
X10160000Y-6388100D01*
X10109200Y-6337300D02*
X10210800Y-6337300D01*
X10109200Y-6540500D02*
X10210800Y-6642100D01*
X10210800Y-6540500D02*
X10109200Y-6642100D01*
X10160000Y-6540500D02*
X10160000Y-6642100D01*
X10109200Y-6591300D02*
X10210800Y-6591300D01*
X10109200Y-6794500D02*
X10210800Y-6896100D01*
X10210800Y-6794500D02*
X10109200Y-6896100D01*
X10160000Y-6794500D02*
X10160000Y-6896100D01*
X10109200Y-6845300D02*
X10210800Y-6845300D01*
X10109200Y-7048500D02*
X10210800Y-7150100D01*
X10210800Y-7048500D02*
X10109200Y-7150100D01*
X10160000Y-7048500D02*
X10160000Y-7150100D01*
X10109200Y-7099300D02*
X10210800Y-7099300D01*
X10109200Y-7302500D02*
X10210800Y-7404100D01*
X10210800Y-7302500D02*
X10109200Y-7404100D01*
X10160000Y-7302500D02*
X10160000Y-7404100D01*
X10109200Y-7353300D02*
X10210800Y-7353300D01*
X10109200Y-7556500D02*
X10210800Y-7658100D01*
X10210800Y-7556500D02*
X10109200Y-7658100D01*
X10160000Y-7556500D02*
X10160000Y-7658100D01*
X10109200Y-7607300D02*
X10210800Y-7607300D01*
X10109200Y-7810500D02*
X10210800Y-7912100D01*
X10210800Y-7810500D02*
X10109200Y-7912100D01*
X10160000Y-7810500D02*
X10160000Y-7912100D01*
X10109200Y-7861300D02*
X10210800Y-7861300D01*
X10109200Y-8064500D02*
X10210800Y-8166100D01*
X10210800Y-8064500D02*
X10109200Y-8166100D01*
X10160000Y-8064500D02*
X10160000Y-8166100D01*
X10109200Y-8115300D02*
X10210800Y-8115300D01*
X10109200Y-8318500D02*
X10210800Y-8420100D01*
X10210800Y-8318500D02*
X10109200Y-8420100D01*
X10160000Y-8318500D02*
X10160000Y-8420100D01*
X10109200Y-8369300D02*
X10210800Y-8369300D01*
X15354300Y-12280900D02*
X15455900Y-12382500D01*
X15455900Y-12280900D02*
X15354300Y-12382500D01*
X15405100Y-12280900D02*
X15405100Y-12382500D01*
X15354300Y-12331700D02*
X15455900Y-12331700D01*
X15354300Y-12534900D02*
X15455900Y-12636500D01*
X15455900Y-12534900D02*
X15354300Y-12636500D01*
X15405100Y-12534900D02*
X15405100Y-12636500D01*
X15354300Y-12585700D02*
X15455900Y-12585700D01*
X15417800Y-15265400D02*
X15519400Y-15367000D01*
X15519400Y-15265400D02*
X15417800Y-15367000D01*
X15468600Y-15265400D02*
X15468600Y-15367000D01*
X15417800Y-15316200D02*
X15519400Y-15316200D01*
X15417800Y-15519400D02*
X15519400Y-15621000D01*
X15519400Y-15519400D02*
X15417800Y-15621000D01*
X15468600Y-15519400D02*
X15468600Y-15621000D01*
X15417800Y-15570200D02*
X15519400Y-15570200D01*
X15417800Y-15773400D02*
X15519400Y-15875000D01*
X15519400Y-15773400D02*
X15417800Y-15875000D01*
X15468600Y-15773400D02*
X15468600Y-15875000D01*
X15417800Y-15824200D02*
X15519400Y-15824200D01*
X15417800Y-16027400D02*
X15519400Y-16129000D01*
X15519400Y-16027400D02*
X15417800Y-16129000D01*
X15468600Y-16027400D02*
X15468600Y-16129000D01*
X15417800Y-16078200D02*
X15519400Y-16078200D01*
D12*
X271429Y-465714D02*
X271429Y-165714D01*
X342857Y-165714D01*
X385714Y-180000D01*
X414286Y-208571D01*
X428571Y-237143D01*
X442857Y-294286D01*
X442857Y-337143D01*
X428571Y-394286D01*
X414286Y-422857D01*
X385714Y-451429D01*
X342857Y-465714D01*
X271429Y-465714D01*
X571429Y-465714D02*
X571429Y-265714D01*
X571429Y-322857D02*
X585714Y-294286D01*
X600000Y-280000D01*
X628571Y-265714D01*
X657143Y-265714D01*
X757143Y-465714D02*
X757143Y-265714D01*
X757143Y-165714D02*
X742857Y-180000D01*
X757143Y-194286D01*
X771429Y-180000D01*
X757143Y-165714D01*
X757143Y-194286D01*
X942857Y-465714D02*
X914286Y-451429D01*
X900000Y-422857D01*
X900000Y-165714D01*
X1100000Y-465714D02*
X1071429Y-451429D01*
X1057143Y-422857D01*
X1057143Y-165714D01*
X1442857Y-465714D02*
X1442857Y-165714D01*
X1542857Y-380000D01*
X1642857Y-165714D01*
X1642857Y-465714D01*
X1914286Y-465714D02*
X1914286Y-308571D01*
X1900000Y-280000D01*
X1871429Y-265714D01*
X1814286Y-265714D01*
X1785714Y-280000D01*
X1914286Y-451429D02*
X1885714Y-465714D01*
X1814286Y-465714D01*
X1785714Y-451429D01*
X1771429Y-422857D01*
X1771429Y-394286D01*
X1785714Y-365714D01*
X1814286Y-351429D01*
X1885714Y-351429D01*
X1914286Y-337143D01*
X2057143Y-265714D02*
X2057143Y-565714D01*
X2057143Y-280000D02*
X2085714Y-265714D01*
X2142857Y-265714D01*
X2171429Y-280000D01*
X2185714Y-294286D01*
X2200000Y-322857D01*
X2200000Y-408571D01*
X2185714Y-437143D01*
X2171429Y-451429D01*
X2142857Y-465714D01*
X2085714Y-465714D01*
X2057143Y-451429D01*
X2328572Y-437143D02*
X2342857Y-451429D01*
X2328572Y-465714D01*
X2314286Y-451429D01*
X2328572Y-437143D01*
X2328572Y-465714D01*
X2328572Y-280000D02*
X2342857Y-294286D01*
X2328572Y-308571D01*
X2314286Y-294286D01*
X2328572Y-280000D01*
X2328572Y-308571D01*
X-40000Y-940000D02*
X0Y-980000D01*
X0Y-940000D02*
X-40000Y-980000D01*
X328571Y-795714D02*
X357143Y-795714D01*
X385714Y-810000D01*
X400000Y-824286D01*
X414286Y-852857D01*
X428571Y-910000D01*
X428571Y-981429D01*
X414286Y-1038571D01*
X400000Y-1067143D01*
X385714Y-1081429D01*
X357143Y-1095714D01*
X328571Y-1095714D01*
X300000Y-1081429D01*
X285714Y-1067143D01*
X271429Y-1038571D01*
X257143Y-981429D01*
X257143Y-910000D01*
X271429Y-852857D01*
X285714Y-824286D01*
X300000Y-810000D01*
X328571Y-795714D01*
X557143Y-1067143D02*
X571429Y-1081429D01*
X557143Y-1095714D01*
X542857Y-1081429D01*
X557143Y-1067143D01*
X557143Y-1095714D01*
X828571Y-895714D02*
X828571Y-1095714D01*
X757143Y-781429D02*
X685714Y-995714D01*
X871428Y-995714D01*
X1042857Y-795714D02*
X1071429Y-795714D01*
X1100000Y-810000D01*
X1114286Y-824286D01*
X1128571Y-852857D01*
X1142857Y-910000D01*
X1142857Y-981429D01*
X1128571Y-1038571D01*
X1114286Y-1067143D01*
X1100000Y-1081429D01*
X1071429Y-1095714D01*
X1042857Y-1095714D01*
X1014286Y-1081429D01*
X1000000Y-1067143D01*
X985714Y-1038571D01*
X971429Y-981429D01*
X971429Y-910000D01*
X985714Y-852857D01*
X1000000Y-824286D01*
X1014286Y-810000D01*
X1042857Y-795714D01*
X1271429Y-1095714D02*
X1271429Y-895714D01*
X1271429Y-924286D02*
X1285714Y-910000D01*
X1314286Y-895714D01*
X1357143Y-895714D01*
X1385714Y-910000D01*
X1400000Y-938571D01*
X1400000Y-1095714D01*
X1400000Y-938571D02*
X1414286Y-910000D01*
X1442857Y-895714D01*
X1485714Y-895714D01*
X1514286Y-910000D01*
X1528571Y-938571D01*
X1528571Y-1095714D01*
X1671429Y-1095714D02*
X1671429Y-895714D01*
X1671429Y-924286D02*
X1685714Y-910000D01*
X1714286Y-895714D01*
X1757143Y-895714D01*
X1785714Y-910000D01*
X1800000Y-938571D01*
X1800000Y-1095714D01*
X1800000Y-938571D02*
X1814286Y-910000D01*
X1842857Y-895714D01*
X1885714Y-895714D01*
X1914286Y-910000D01*
X1928571Y-938571D01*
X1928571Y-1095714D01*
X2514286Y-781429D02*
X2257143Y-1167143D01*
X2900000Y-795714D02*
X2928571Y-795714D01*
X2957143Y-810000D01*
X2971428Y-824286D01*
X2985714Y-852857D01*
X3000000Y-910000D01*
X3000000Y-981429D01*
X2985714Y-1038571D01*
X2971428Y-1067143D01*
X2957143Y-1081429D01*
X2928571Y-1095714D01*
X2900000Y-1095714D01*
X2871428Y-1081429D01*
X2857143Y-1067143D01*
X2842857Y-1038571D01*
X2828571Y-981429D01*
X2828571Y-910000D01*
X2842857Y-852857D01*
X2857143Y-824286D01*
X2871428Y-810000D01*
X2900000Y-795714D01*
X3128571Y-1067143D02*
X3142857Y-1081429D01*
X3128571Y-1095714D01*
X3114286Y-1081429D01*
X3128571Y-1067143D01*
X3128571Y-1095714D01*
X3328571Y-795714D02*
X3357143Y-795714D01*
X3385714Y-810000D01*
X3400000Y-824286D01*
X3414286Y-852857D01*
X3428571Y-910000D01*
X3428571Y-981429D01*
X3414286Y-1038571D01*
X3400000Y-1067143D01*
X3385714Y-1081429D01*
X3357143Y-1095714D01*
X3328571Y-1095714D01*
X3300000Y-1081429D01*
X3285714Y-1067143D01*
X3271428Y-1038571D01*
X3257143Y-981429D01*
X3257143Y-910000D01*
X3271428Y-852857D01*
X3285714Y-824286D01*
X3300000Y-810000D01*
X3328571Y-795714D01*
X3714286Y-1095714D02*
X3542857Y-1095714D01*
X3628571Y-1095714D02*
X3628571Y-795714D01*
X3600000Y-838571D01*
X3571428Y-867143D01*
X3542857Y-881429D01*
X3971428Y-795714D02*
X3914286Y-795714D01*
X3885714Y-810000D01*
X3871428Y-824286D01*
X3842857Y-867143D01*
X3828571Y-924286D01*
X3828571Y-1038571D01*
X3842857Y-1067143D01*
X3857143Y-1081429D01*
X3885714Y-1095714D01*
X3942857Y-1095714D01*
X3971428Y-1081429D01*
X3985714Y-1067143D01*
X4000000Y-1038571D01*
X4000000Y-967143D01*
X3985714Y-938571D01*
X3971428Y-924286D01*
X3942857Y-910000D01*
X3885714Y-910000D01*
X3857143Y-924286D01*
X3842857Y-938571D01*
X3828571Y-967143D01*
X4114286Y-795714D02*
X4114286Y-852857D01*
X4228571Y-795714D02*
X4228571Y-852857D01*
X4671429Y-1210000D02*
X4657143Y-1195714D01*
X4628571Y-1152857D01*
X4614286Y-1124286D01*
X4600000Y-1081429D01*
X4585714Y-1010000D01*
X4585714Y-952857D01*
X4600000Y-881429D01*
X4614286Y-838571D01*
X4628571Y-810000D01*
X4657143Y-767143D01*
X4671429Y-752857D01*
X4942857Y-1095714D02*
X4771429Y-1095714D01*
X4857143Y-1095714D02*
X4857143Y-795714D01*
X4828571Y-838571D01*
X4800000Y-867143D01*
X4771429Y-881429D01*
X5042857Y-795714D02*
X5228571Y-795714D01*
X5128571Y-910000D01*
X5171429Y-910000D01*
X5200000Y-924286D01*
X5214286Y-938571D01*
X5228571Y-967143D01*
X5228571Y-1038571D01*
X5214286Y-1067143D01*
X5200000Y-1081429D01*
X5171429Y-1095714D01*
X5085714Y-1095714D01*
X5057143Y-1081429D01*
X5042857Y-1067143D01*
X5500000Y-795714D02*
X5357143Y-795714D01*
X5342857Y-938571D01*
X5357143Y-924286D01*
X5385714Y-910000D01*
X5457143Y-910000D01*
X5485714Y-924286D01*
X5500000Y-938571D01*
X5514286Y-967143D01*
X5514286Y-1038571D01*
X5500000Y-1067143D01*
X5485714Y-1081429D01*
X5457143Y-1095714D01*
X5385714Y-1095714D01*
X5357143Y-1081429D01*
X5342857Y-1067143D01*
X5871428Y-1095714D02*
X5871428Y-795714D01*
X6000000Y-1095714D02*
X6000000Y-938571D01*
X5985714Y-910000D01*
X5957143Y-895714D01*
X5914286Y-895714D01*
X5885714Y-910000D01*
X5871428Y-924286D01*
X6185714Y-1095714D02*
X6157143Y-1081429D01*
X6142857Y-1067143D01*
X6128571Y-1038571D01*
X6128571Y-952857D01*
X6142857Y-924286D01*
X6157143Y-910000D01*
X6185714Y-895714D01*
X6228571Y-895714D01*
X6257143Y-910000D01*
X6271428Y-924286D01*
X6285714Y-952857D01*
X6285714Y-1038571D01*
X6271428Y-1067143D01*
X6257143Y-1081429D01*
X6228571Y-1095714D01*
X6185714Y-1095714D01*
X6457143Y-1095714D02*
X6428571Y-1081429D01*
X6414286Y-1052857D01*
X6414286Y-795714D01*
X6685714Y-1081429D02*
X6657143Y-1095714D01*
X6600000Y-1095714D01*
X6571429Y-1081429D01*
X6557143Y-1052857D01*
X6557143Y-938571D01*
X6571429Y-910000D01*
X6600000Y-895714D01*
X6657143Y-895714D01*
X6685714Y-910000D01*
X6700000Y-938571D01*
X6700000Y-967143D01*
X6557143Y-995714D01*
X6814286Y-1081429D02*
X6842857Y-1095714D01*
X6900000Y-1095714D01*
X6928571Y-1081429D01*
X6942857Y-1052857D01*
X6942857Y-1038571D01*
X6928571Y-1010000D01*
X6900000Y-995714D01*
X6857143Y-995714D01*
X6828571Y-981429D01*
X6814286Y-952857D01*
X6814286Y-938571D01*
X6828571Y-910000D01*
X6857143Y-895714D01*
X6900000Y-895714D01*
X6928571Y-910000D01*
X7042857Y-1210000D02*
X7057143Y-1195714D01*
X7085714Y-1152857D01*
X7100000Y-1124286D01*
X7114286Y-1081429D01*
X7128571Y-1010000D01*
X7128571Y-952857D01*
X7114286Y-881429D01*
X7100000Y-838571D01*
X7085714Y-810000D01*
X7057143Y-767143D01*
X7042857Y-752857D01*
X0Y-1356000D02*
G75*
G03X0Y-1356000I-25000J0D01*
G01*
X328571Y-1191714D02*
X357143Y-1191714D01*
X385714Y-1206000D01*
X400000Y-1220286D01*
X414286Y-1248857D01*
X428571Y-1306000D01*
X428571Y-1377429D01*
X414286Y-1434571D01*
X400000Y-1463143D01*
X385714Y-1477429D01*
X357143Y-1491714D01*
X328571Y-1491714D01*
X300000Y-1477429D01*
X285714Y-1463143D01*
X271429Y-1434571D01*
X257143Y-1377429D01*
X257143Y-1306000D01*
X271429Y-1248857D01*
X285714Y-1220286D01*
X300000Y-1206000D01*
X328571Y-1191714D01*
X557143Y-1463143D02*
X571429Y-1477429D01*
X557143Y-1491714D01*
X542857Y-1477429D01*
X557143Y-1463143D01*
X557143Y-1491714D01*
X842857Y-1191714D02*
X700000Y-1191714D01*
X685714Y-1334571D01*
X700000Y-1320286D01*
X728571Y-1306000D01*
X800000Y-1306000D01*
X828571Y-1320286D01*
X842857Y-1334571D01*
X857143Y-1363143D01*
X857143Y-1434571D01*
X842857Y-1463143D01*
X828571Y-1477429D01*
X800000Y-1491714D01*
X728571Y-1491714D01*
X700000Y-1477429D01*
X685714Y-1463143D01*
X1042857Y-1191714D02*
X1071429Y-1191714D01*
X1100000Y-1206000D01*
X1114286Y-1220286D01*
X1128571Y-1248857D01*
X1142857Y-1306000D01*
X1142857Y-1377429D01*
X1128571Y-1434571D01*
X1114286Y-1463143D01*
X1100000Y-1477429D01*
X1071429Y-1491714D01*
X1042857Y-1491714D01*
X1014286Y-1477429D01*
X1000000Y-1463143D01*
X985714Y-1434571D01*
X971429Y-1377429D01*
X971429Y-1306000D01*
X985714Y-1248857D01*
X1000000Y-1220286D01*
X1014286Y-1206000D01*
X1042857Y-1191714D01*
X1271429Y-1491714D02*
X1271429Y-1291714D01*
X1271429Y-1320286D02*
X1285714Y-1306000D01*
X1314286Y-1291714D01*
X1357143Y-1291714D01*
X1385714Y-1306000D01*
X1400000Y-1334571D01*
X1400000Y-1491714D01*
X1400000Y-1334571D02*
X1414286Y-1306000D01*
X1442857Y-1291714D01*
X1485714Y-1291714D01*
X1514286Y-1306000D01*
X1528571Y-1334571D01*
X1528571Y-1491714D01*
X1671429Y-1491714D02*
X1671429Y-1291714D01*
X1671429Y-1320286D02*
X1685714Y-1306000D01*
X1714286Y-1291714D01*
X1757143Y-1291714D01*
X1785714Y-1306000D01*
X1800000Y-1334571D01*
X1800000Y-1491714D01*
X1800000Y-1334571D02*
X1814286Y-1306000D01*
X1842857Y-1291714D01*
X1885714Y-1291714D01*
X1914286Y-1306000D01*
X1928571Y-1334571D01*
X1928571Y-1491714D01*
X2514286Y-1177429D02*
X2257143Y-1563143D01*
X2900000Y-1191714D02*
X2928571Y-1191714D01*
X2957143Y-1206000D01*
X2971428Y-1220286D01*
X2985714Y-1248857D01*
X3000000Y-1306000D01*
X3000000Y-1377429D01*
X2985714Y-1434571D01*
X2971428Y-1463143D01*
X2957143Y-1477429D01*
X2928571Y-1491714D01*
X2900000Y-1491714D01*
X2871428Y-1477429D01*
X2857143Y-1463143D01*
X2842857Y-1434571D01*
X2828571Y-1377429D01*
X2828571Y-1306000D01*
X2842857Y-1248857D01*
X2857143Y-1220286D01*
X2871428Y-1206000D01*
X2900000Y-1191714D01*
X3128571Y-1463143D02*
X3142857Y-1477429D01*
X3128571Y-1491714D01*
X3114286Y-1477429D01*
X3128571Y-1463143D01*
X3128571Y-1491714D01*
X3328571Y-1191714D02*
X3357143Y-1191714D01*
X3385714Y-1206000D01*
X3400000Y-1220286D01*
X3414286Y-1248857D01*
X3428571Y-1306000D01*
X3428571Y-1377429D01*
X3414286Y-1434571D01*
X3400000Y-1463143D01*
X3385714Y-1477429D01*
X3357143Y-1491714D01*
X3328571Y-1491714D01*
X3300000Y-1477429D01*
X3285714Y-1463143D01*
X3271428Y-1434571D01*
X3257143Y-1377429D01*
X3257143Y-1306000D01*
X3271428Y-1248857D01*
X3285714Y-1220286D01*
X3300000Y-1206000D01*
X3328571Y-1191714D01*
X3542857Y-1220286D02*
X3557143Y-1206000D01*
X3585714Y-1191714D01*
X3657143Y-1191714D01*
X3685714Y-1206000D01*
X3700000Y-1220286D01*
X3714286Y-1248857D01*
X3714286Y-1277429D01*
X3700000Y-1320286D01*
X3528571Y-1491714D01*
X3714286Y-1491714D01*
X3900000Y-1191714D02*
X3928571Y-1191714D01*
X3957143Y-1206000D01*
X3971428Y-1220286D01*
X3985714Y-1248857D01*
X4000000Y-1306000D01*
X4000000Y-1377429D01*
X3985714Y-1434571D01*
X3971428Y-1463143D01*
X3957143Y-1477429D01*
X3928571Y-1491714D01*
X3900000Y-1491714D01*
X3871428Y-1477429D01*
X3857143Y-1463143D01*
X3842857Y-1434571D01*
X3828571Y-1377429D01*
X3828571Y-1306000D01*
X3842857Y-1248857D01*
X3857143Y-1220286D01*
X3871428Y-1206000D01*
X3900000Y-1191714D01*
X4114286Y-1191714D02*
X4114286Y-1248857D01*
X4228571Y-1191714D02*
X4228571Y-1248857D01*
X4671429Y-1606000D02*
X4657143Y-1591714D01*
X4628571Y-1548857D01*
X4614286Y-1520286D01*
X4600000Y-1477429D01*
X4585714Y-1406000D01*
X4585714Y-1348857D01*
X4600000Y-1277429D01*
X4614286Y-1234571D01*
X4628571Y-1206000D01*
X4657143Y-1163143D01*
X4671429Y-1148857D01*
X4771429Y-1220286D02*
X4785714Y-1206000D01*
X4814286Y-1191714D01*
X4885714Y-1191714D01*
X4914286Y-1206000D01*
X4928571Y-1220286D01*
X4942857Y-1248857D01*
X4942857Y-1277429D01*
X4928571Y-1320286D01*
X4757143Y-1491714D01*
X4942857Y-1491714D01*
X5300000Y-1491714D02*
X5300000Y-1191714D01*
X5428571Y-1491714D02*
X5428571Y-1334571D01*
X5414286Y-1306000D01*
X5385714Y-1291714D01*
X5342857Y-1291714D01*
X5314286Y-1306000D01*
X5300000Y-1320286D01*
X5614286Y-1491714D02*
X5585714Y-1477429D01*
X5571429Y-1463143D01*
X5557143Y-1434571D01*
X5557143Y-1348857D01*
X5571429Y-1320286D01*
X5585714Y-1306000D01*
X5614286Y-1291714D01*
X5657143Y-1291714D01*
X5685714Y-1306000D01*
X5700000Y-1320286D01*
X5714286Y-1348857D01*
X5714286Y-1434571D01*
X5700000Y-1463143D01*
X5685714Y-1477429D01*
X5657143Y-1491714D01*
X5614286Y-1491714D01*
X5885714Y-1491714D02*
X5857143Y-1477429D01*
X5842857Y-1448857D01*
X5842857Y-1191714D01*
X6114286Y-1477429D02*
X6085714Y-1491714D01*
X6028571Y-1491714D01*
X6000000Y-1477429D01*
X5985714Y-1448857D01*
X5985714Y-1334571D01*
X6000000Y-1306000D01*
X6028571Y-1291714D01*
X6085714Y-1291714D01*
X6114286Y-1306000D01*
X6128571Y-1334571D01*
X6128571Y-1363143D01*
X5985714Y-1391714D01*
X6242857Y-1477429D02*
X6271429Y-1491714D01*
X6328571Y-1491714D01*
X6357143Y-1477429D01*
X6371429Y-1448857D01*
X6371429Y-1434571D01*
X6357143Y-1406000D01*
X6328571Y-1391714D01*
X6285714Y-1391714D01*
X6257143Y-1377429D01*
X6242857Y-1348857D01*
X6242857Y-1334571D01*
X6257143Y-1306000D01*
X6285714Y-1291714D01*
X6328571Y-1291714D01*
X6357143Y-1306000D01*
X6471428Y-1606000D02*
X6485714Y-1591714D01*
X6514286Y-1548857D01*
X6528571Y-1520286D01*
X6542857Y-1477429D01*
X6557143Y-1406000D01*
X6557143Y-1348857D01*
X6542857Y-1277429D01*
X6528571Y-1234571D01*
X6514286Y-1206000D01*
X6485714Y-1163143D01*
X6471428Y-1148857D01*
X-35000Y-1717000D02*
X-35000Y-1787000D01*
X-70000Y-1752000D02*
X0Y-1752000D01*
X328571Y-1587714D02*
X357143Y-1587714D01*
X385714Y-1602000D01*
X400000Y-1616286D01*
X414286Y-1644857D01*
X428571Y-1702000D01*
X428571Y-1773429D01*
X414286Y-1830571D01*
X400000Y-1859143D01*
X385714Y-1873429D01*
X357143Y-1887714D01*
X328571Y-1887714D01*
X300000Y-1873429D01*
X285714Y-1859143D01*
X271429Y-1830571D01*
X257143Y-1773429D01*
X257143Y-1702000D01*
X271429Y-1644857D01*
X285714Y-1616286D01*
X300000Y-1602000D01*
X328571Y-1587714D01*
X557143Y-1859143D02*
X571429Y-1873429D01*
X557143Y-1887714D01*
X542857Y-1873429D01*
X557143Y-1859143D01*
X557143Y-1887714D01*
X671429Y-1587714D02*
X871428Y-1587714D01*
X742857Y-1887714D01*
X1042857Y-1587714D02*
X1071429Y-1587714D01*
X1100000Y-1602000D01*
X1114286Y-1616286D01*
X1128571Y-1644857D01*
X1142857Y-1702000D01*
X1142857Y-1773429D01*
X1128571Y-1830571D01*
X1114286Y-1859143D01*
X1100000Y-1873429D01*
X1071429Y-1887714D01*
X1042857Y-1887714D01*
X1014286Y-1873429D01*
X1000000Y-1859143D01*
X985714Y-1830571D01*
X971429Y-1773429D01*
X971429Y-1702000D01*
X985714Y-1644857D01*
X1000000Y-1616286D01*
X1014286Y-1602000D01*
X1042857Y-1587714D01*
X1271429Y-1887714D02*
X1271429Y-1687714D01*
X1271429Y-1716286D02*
X1285714Y-1702000D01*
X1314286Y-1687714D01*
X1357143Y-1687714D01*
X1385714Y-1702000D01*
X1400000Y-1730571D01*
X1400000Y-1887714D01*
X1400000Y-1730571D02*
X1414286Y-1702000D01*
X1442857Y-1687714D01*
X1485714Y-1687714D01*
X1514286Y-1702000D01*
X1528571Y-1730571D01*
X1528571Y-1887714D01*
X1671429Y-1887714D02*
X1671429Y-1687714D01*
X1671429Y-1716286D02*
X1685714Y-1702000D01*
X1714286Y-1687714D01*
X1757143Y-1687714D01*
X1785714Y-1702000D01*
X1800000Y-1730571D01*
X1800000Y-1887714D01*
X1800000Y-1730571D02*
X1814286Y-1702000D01*
X1842857Y-1687714D01*
X1885714Y-1687714D01*
X1914286Y-1702000D01*
X1928571Y-1730571D01*
X1928571Y-1887714D01*
X2514286Y-1573429D02*
X2257143Y-1959143D01*
X2900000Y-1587714D02*
X2928571Y-1587714D01*
X2957143Y-1602000D01*
X2971428Y-1616286D01*
X2985714Y-1644857D01*
X3000000Y-1702000D01*
X3000000Y-1773429D01*
X2985714Y-1830571D01*
X2971428Y-1859143D01*
X2957143Y-1873429D01*
X2928571Y-1887714D01*
X2900000Y-1887714D01*
X2871428Y-1873429D01*
X2857143Y-1859143D01*
X2842857Y-1830571D01*
X2828571Y-1773429D01*
X2828571Y-1702000D01*
X2842857Y-1644857D01*
X2857143Y-1616286D01*
X2871428Y-1602000D01*
X2900000Y-1587714D01*
X3128571Y-1859143D02*
X3142857Y-1873429D01*
X3128571Y-1887714D01*
X3114286Y-1873429D01*
X3128571Y-1859143D01*
X3128571Y-1887714D01*
X3328571Y-1587714D02*
X3357143Y-1587714D01*
X3385714Y-1602000D01*
X3400000Y-1616286D01*
X3414286Y-1644857D01*
X3428571Y-1702000D01*
X3428571Y-1773429D01*
X3414286Y-1830571D01*
X3400000Y-1859143D01*
X3385714Y-1873429D01*
X3357143Y-1887714D01*
X3328571Y-1887714D01*
X3300000Y-1873429D01*
X3285714Y-1859143D01*
X3271428Y-1830571D01*
X3257143Y-1773429D01*
X3257143Y-1702000D01*
X3271428Y-1644857D01*
X3285714Y-1616286D01*
X3300000Y-1602000D01*
X3328571Y-1587714D01*
X3542857Y-1616286D02*
X3557143Y-1602000D01*
X3585714Y-1587714D01*
X3657143Y-1587714D01*
X3685714Y-1602000D01*
X3700000Y-1616286D01*
X3714286Y-1644857D01*
X3714286Y-1673429D01*
X3700000Y-1716286D01*
X3528571Y-1887714D01*
X3714286Y-1887714D01*
X3885714Y-1716286D02*
X3857143Y-1702000D01*
X3842857Y-1687714D01*
X3828571Y-1659143D01*
X3828571Y-1644857D01*
X3842857Y-1616286D01*
X3857143Y-1602000D01*
X3885714Y-1587714D01*
X3942857Y-1587714D01*
X3971428Y-1602000D01*
X3985714Y-1616286D01*
X4000000Y-1644857D01*
X4000000Y-1659143D01*
X3985714Y-1687714D01*
X3971428Y-1702000D01*
X3942857Y-1716286D01*
X3885714Y-1716286D01*
X3857143Y-1730571D01*
X3842857Y-1744857D01*
X3828571Y-1773429D01*
X3828571Y-1830571D01*
X3842857Y-1859143D01*
X3857143Y-1873429D01*
X3885714Y-1887714D01*
X3942857Y-1887714D01*
X3971428Y-1873429D01*
X3985714Y-1859143D01*
X4000000Y-1830571D01*
X4000000Y-1773429D01*
X3985714Y-1744857D01*
X3971428Y-1730571D01*
X3942857Y-1716286D01*
X4114286Y-1587714D02*
X4114286Y-1644857D01*
X4228571Y-1587714D02*
X4228571Y-1644857D01*
X4671429Y-2002000D02*
X4657143Y-1987714D01*
X4628571Y-1944857D01*
X4614286Y-1916286D01*
X4600000Y-1873429D01*
X4585714Y-1802000D01*
X4585714Y-1744857D01*
X4600000Y-1673429D01*
X4614286Y-1630571D01*
X4628571Y-1602000D01*
X4657143Y-1559143D01*
X4671429Y-1544857D01*
X4757143Y-1587714D02*
X4942857Y-1587714D01*
X4842857Y-1702000D01*
X4885714Y-1702000D01*
X4914286Y-1716286D01*
X4928571Y-1730571D01*
X4942857Y-1759143D01*
X4942857Y-1830571D01*
X4928571Y-1859143D01*
X4914286Y-1873429D01*
X4885714Y-1887714D01*
X4800000Y-1887714D01*
X4771429Y-1873429D01*
X4757143Y-1859143D01*
X5300000Y-1887714D02*
X5300000Y-1587714D01*
X5428571Y-1887714D02*
X5428571Y-1730571D01*
X5414286Y-1702000D01*
X5385714Y-1687714D01*
X5342857Y-1687714D01*
X5314286Y-1702000D01*
X5300000Y-1716286D01*
X5614286Y-1887714D02*
X5585714Y-1873429D01*
X5571429Y-1859143D01*
X5557143Y-1830571D01*
X5557143Y-1744857D01*
X5571429Y-1716286D01*
X5585714Y-1702000D01*
X5614286Y-1687714D01*
X5657143Y-1687714D01*
X5685714Y-1702000D01*
X5700000Y-1716286D01*
X5714286Y-1744857D01*
X5714286Y-1830571D01*
X5700000Y-1859143D01*
X5685714Y-1873429D01*
X5657143Y-1887714D01*
X5614286Y-1887714D01*
X5885714Y-1887714D02*
X5857143Y-1873429D01*
X5842857Y-1844857D01*
X5842857Y-1587714D01*
X6114286Y-1873429D02*
X6085714Y-1887714D01*
X6028571Y-1887714D01*
X6000000Y-1873429D01*
X5985714Y-1844857D01*
X5985714Y-1730571D01*
X6000000Y-1702000D01*
X6028571Y-1687714D01*
X6085714Y-1687714D01*
X6114286Y-1702000D01*
X6128571Y-1730571D01*
X6128571Y-1759143D01*
X5985714Y-1787714D01*
X6242857Y-1873429D02*
X6271429Y-1887714D01*
X6328571Y-1887714D01*
X6357143Y-1873429D01*
X6371429Y-1844857D01*
X6371429Y-1830571D01*
X6357143Y-1802000D01*
X6328571Y-1787714D01*
X6285714Y-1787714D01*
X6257143Y-1773429D01*
X6242857Y-1744857D01*
X6242857Y-1730571D01*
X6257143Y-1702000D01*
X6285714Y-1687714D01*
X6328571Y-1687714D01*
X6357143Y-1702000D01*
X6471428Y-2002000D02*
X6485714Y-1987714D01*
X6514286Y-1944857D01*
X6528571Y-1916286D01*
X6542857Y-1873429D01*
X6557143Y-1802000D01*
X6557143Y-1744857D01*
X6542857Y-1673429D01*
X6528571Y-1630571D01*
X6514286Y-1602000D01*
X6485714Y-1559143D01*
X6471428Y-1544857D01*
X-11715Y-2176285D02*
X-11715Y-2119716D01*
X-68285Y-2119716D01*
X-68285Y-2176285D01*
X-11715Y-2176285D01*
X328571Y-1983714D02*
X357143Y-1983714D01*
X385714Y-1998000D01*
X400000Y-2012286D01*
X414286Y-2040857D01*
X428571Y-2098000D01*
X428571Y-2169429D01*
X414286Y-2226571D01*
X400000Y-2255143D01*
X385714Y-2269429D01*
X357143Y-2283714D01*
X328571Y-2283714D01*
X300000Y-2269429D01*
X285714Y-2255143D01*
X271429Y-2226571D01*
X257143Y-2169429D01*
X257143Y-2098000D01*
X271429Y-2040857D01*
X285714Y-2012286D01*
X300000Y-1998000D01*
X328571Y-1983714D01*
X557143Y-2255143D02*
X571429Y-2269429D01*
X557143Y-2283714D01*
X542857Y-2269429D01*
X557143Y-2255143D01*
X557143Y-2283714D01*
X742857Y-2112286D02*
X714286Y-2098000D01*
X700000Y-2083714D01*
X685714Y-2055143D01*
X685714Y-2040857D01*
X700000Y-2012286D01*
X714286Y-1998000D01*
X742857Y-1983714D01*
X800000Y-1983714D01*
X828571Y-1998000D01*
X842857Y-2012286D01*
X857143Y-2040857D01*
X857143Y-2055143D01*
X842857Y-2083714D01*
X828571Y-2098000D01*
X800000Y-2112286D01*
X742857Y-2112286D01*
X714286Y-2126571D01*
X700000Y-2140857D01*
X685714Y-2169429D01*
X685714Y-2226571D01*
X700000Y-2255143D01*
X714286Y-2269429D01*
X742857Y-2283714D01*
X800000Y-2283714D01*
X828571Y-2269429D01*
X842857Y-2255143D01*
X857143Y-2226571D01*
X857143Y-2169429D01*
X842857Y-2140857D01*
X828571Y-2126571D01*
X800000Y-2112286D01*
X1042857Y-1983714D02*
X1071429Y-1983714D01*
X1100000Y-1998000D01*
X1114286Y-2012286D01*
X1128571Y-2040857D01*
X1142857Y-2098000D01*
X1142857Y-2169429D01*
X1128571Y-2226571D01*
X1114286Y-2255143D01*
X1100000Y-2269429D01*
X1071429Y-2283714D01*
X1042857Y-2283714D01*
X1014286Y-2269429D01*
X1000000Y-2255143D01*
X985714Y-2226571D01*
X971429Y-2169429D01*
X971429Y-2098000D01*
X985714Y-2040857D01*
X1000000Y-2012286D01*
X1014286Y-1998000D01*
X1042857Y-1983714D01*
X1271429Y-2283714D02*
X1271429Y-2083714D01*
X1271429Y-2112286D02*
X1285714Y-2098000D01*
X1314286Y-2083714D01*
X1357143Y-2083714D01*
X1385714Y-2098000D01*
X1400000Y-2126571D01*
X1400000Y-2283714D01*
X1400000Y-2126571D02*
X1414286Y-2098000D01*
X1442857Y-2083714D01*
X1485714Y-2083714D01*
X1514286Y-2098000D01*
X1528571Y-2126571D01*
X1528571Y-2283714D01*
X1671429Y-2283714D02*
X1671429Y-2083714D01*
X1671429Y-2112286D02*
X1685714Y-2098000D01*
X1714286Y-2083714D01*
X1757143Y-2083714D01*
X1785714Y-2098000D01*
X1800000Y-2126571D01*
X1800000Y-2283714D01*
X1800000Y-2126571D02*
X1814286Y-2098000D01*
X1842857Y-2083714D01*
X1885714Y-2083714D01*
X1914286Y-2098000D01*
X1928571Y-2126571D01*
X1928571Y-2283714D01*
X2514286Y-1969429D02*
X2257143Y-2355143D01*
X2900000Y-1983714D02*
X2928571Y-1983714D01*
X2957143Y-1998000D01*
X2971428Y-2012286D01*
X2985714Y-2040857D01*
X3000000Y-2098000D01*
X3000000Y-2169429D01*
X2985714Y-2226571D01*
X2971428Y-2255143D01*
X2957143Y-2269429D01*
X2928571Y-2283714D01*
X2900000Y-2283714D01*
X2871428Y-2269429D01*
X2857143Y-2255143D01*
X2842857Y-2226571D01*
X2828571Y-2169429D01*
X2828571Y-2098000D01*
X2842857Y-2040857D01*
X2857143Y-2012286D01*
X2871428Y-1998000D01*
X2900000Y-1983714D01*
X3128571Y-2255143D02*
X3142857Y-2269429D01*
X3128571Y-2283714D01*
X3114286Y-2269429D01*
X3128571Y-2255143D01*
X3128571Y-2283714D01*
X3328571Y-1983714D02*
X3357143Y-1983714D01*
X3385714Y-1998000D01*
X3400000Y-2012286D01*
X3414286Y-2040857D01*
X3428571Y-2098000D01*
X3428571Y-2169429D01*
X3414286Y-2226571D01*
X3400000Y-2255143D01*
X3385714Y-2269429D01*
X3357143Y-2283714D01*
X3328571Y-2283714D01*
X3300000Y-2269429D01*
X3285714Y-2255143D01*
X3271428Y-2226571D01*
X3257143Y-2169429D01*
X3257143Y-2098000D01*
X3271428Y-2040857D01*
X3285714Y-2012286D01*
X3300000Y-1998000D01*
X3328571Y-1983714D01*
X3528571Y-1983714D02*
X3714286Y-1983714D01*
X3614286Y-2098000D01*
X3657143Y-2098000D01*
X3685714Y-2112286D01*
X3700000Y-2126571D01*
X3714286Y-2155143D01*
X3714286Y-2226571D01*
X3700000Y-2255143D01*
X3685714Y-2269429D01*
X3657143Y-2283714D01*
X3571428Y-2283714D01*
X3542857Y-2269429D01*
X3528571Y-2255143D01*
X4000000Y-2283714D02*
X3828571Y-2283714D01*
X3914286Y-2283714D02*
X3914286Y-1983714D01*
X3885714Y-2026571D01*
X3857143Y-2055143D01*
X3828571Y-2069429D01*
X4114286Y-1983714D02*
X4114286Y-2040857D01*
X4228571Y-1983714D02*
X4228571Y-2040857D01*
X4671429Y-2398000D02*
X4657143Y-2383714D01*
X4628571Y-2340857D01*
X4614286Y-2312286D01*
X4600000Y-2269429D01*
X4585714Y-2198000D01*
X4585714Y-2140857D01*
X4600000Y-2069429D01*
X4614286Y-2026571D01*
X4628571Y-1998000D01*
X4657143Y-1955143D01*
X4671429Y-1940857D01*
X4914286Y-1983714D02*
X4857143Y-1983714D01*
X4828571Y-1998000D01*
X4814286Y-2012286D01*
X4785714Y-2055143D01*
X4771429Y-2112286D01*
X4771429Y-2226571D01*
X4785714Y-2255143D01*
X4800000Y-2269429D01*
X4828571Y-2283714D01*
X4885714Y-2283714D01*
X4914286Y-2269429D01*
X4928571Y-2255143D01*
X4942857Y-2226571D01*
X4942857Y-2155143D01*
X4928571Y-2126571D01*
X4914286Y-2112286D01*
X4885714Y-2098000D01*
X4828571Y-2098000D01*
X4800000Y-2112286D01*
X4785714Y-2126571D01*
X4771429Y-2155143D01*
X5128571Y-1983714D02*
X5157143Y-1983714D01*
X5185714Y-1998000D01*
X5200000Y-2012286D01*
X5214286Y-2040857D01*
X5228571Y-2098000D01*
X5228571Y-2169429D01*
X5214286Y-2226571D01*
X5200000Y-2255143D01*
X5185714Y-2269429D01*
X5157143Y-2283714D01*
X5128571Y-2283714D01*
X5100000Y-2269429D01*
X5085714Y-2255143D01*
X5071429Y-2226571D01*
X5057143Y-2169429D01*
X5057143Y-2098000D01*
X5071429Y-2040857D01*
X5085714Y-2012286D01*
X5100000Y-1998000D01*
X5128571Y-1983714D01*
X5585714Y-2283714D02*
X5585714Y-1983714D01*
X5714286Y-2283714D02*
X5714286Y-2126571D01*
X5700000Y-2098000D01*
X5671428Y-2083714D01*
X5628571Y-2083714D01*
X5600000Y-2098000D01*
X5585714Y-2112286D01*
X5900000Y-2283714D02*
X5871428Y-2269429D01*
X5857143Y-2255143D01*
X5842857Y-2226571D01*
X5842857Y-2140857D01*
X5857143Y-2112286D01*
X5871428Y-2098000D01*
X5900000Y-2083714D01*
X5942857Y-2083714D01*
X5971428Y-2098000D01*
X5985714Y-2112286D01*
X6000000Y-2140857D01*
X6000000Y-2226571D01*
X5985714Y-2255143D01*
X5971428Y-2269429D01*
X5942857Y-2283714D01*
X5900000Y-2283714D01*
X6171428Y-2283714D02*
X6142857Y-2269429D01*
X6128571Y-2240857D01*
X6128571Y-1983714D01*
X6400000Y-2269429D02*
X6371429Y-2283714D01*
X6314286Y-2283714D01*
X6285714Y-2269429D01*
X6271429Y-2240857D01*
X6271429Y-2126571D01*
X6285714Y-2098000D01*
X6314286Y-2083714D01*
X6371429Y-2083714D01*
X6400000Y-2098000D01*
X6414286Y-2126571D01*
X6414286Y-2155143D01*
X6271429Y-2183714D01*
X6528571Y-2269429D02*
X6557143Y-2283714D01*
X6614286Y-2283714D01*
X6642857Y-2269429D01*
X6657143Y-2240857D01*
X6657143Y-2226571D01*
X6642857Y-2198000D01*
X6614286Y-2183714D01*
X6571429Y-2183714D01*
X6542857Y-2169429D01*
X6528571Y-2140857D01*
X6528571Y-2126571D01*
X6542857Y-2098000D01*
X6571429Y-2083714D01*
X6614286Y-2083714D01*
X6642857Y-2098000D01*
X6757143Y-2398000D02*
X6771429Y-2383714D01*
X6800000Y-2340857D01*
X6814286Y-2312286D01*
X6828571Y-2269429D01*
X6842857Y-2198000D01*
X6842857Y-2140857D01*
X6828571Y-2069429D01*
X6814286Y-2026571D01*
X6800000Y-1998000D01*
X6771429Y-1955143D01*
X6757143Y-1940857D01*
X-50000Y-2594000D02*
X0Y-2544000D01*
X-50000Y-2494000D01*
X-100000Y-2544000D01*
X-50000Y-2594000D01*
X428571Y-2679714D02*
X257143Y-2679714D01*
X342857Y-2679714D02*
X342857Y-2379714D01*
X314286Y-2422571D01*
X285714Y-2451143D01*
X257143Y-2465429D01*
X557143Y-2651143D02*
X571429Y-2665429D01*
X557143Y-2679714D01*
X542857Y-2665429D01*
X557143Y-2651143D01*
X557143Y-2679714D01*
X757143Y-2379714D02*
X785714Y-2379714D01*
X814286Y-2394000D01*
X828571Y-2408286D01*
X842857Y-2436857D01*
X857143Y-2494000D01*
X857143Y-2565429D01*
X842857Y-2622571D01*
X828571Y-2651143D01*
X814286Y-2665429D01*
X785714Y-2679714D01*
X757143Y-2679714D01*
X728571Y-2665429D01*
X714286Y-2651143D01*
X700000Y-2622571D01*
X685714Y-2565429D01*
X685714Y-2494000D01*
X700000Y-2436857D01*
X714286Y-2408286D01*
X728571Y-2394000D01*
X757143Y-2379714D01*
X1042857Y-2379714D02*
X1071429Y-2379714D01*
X1100000Y-2394000D01*
X1114286Y-2408286D01*
X1128571Y-2436857D01*
X1142857Y-2494000D01*
X1142857Y-2565429D01*
X1128571Y-2622571D01*
X1114286Y-2651143D01*
X1100000Y-2665429D01*
X1071429Y-2679714D01*
X1042857Y-2679714D01*
X1014286Y-2665429D01*
X1000000Y-2651143D01*
X985714Y-2622571D01*
X971429Y-2565429D01*
X971429Y-2494000D01*
X985714Y-2436857D01*
X1000000Y-2408286D01*
X1014286Y-2394000D01*
X1042857Y-2379714D01*
X1271429Y-2679714D02*
X1271429Y-2479714D01*
X1271429Y-2508286D02*
X1285714Y-2494000D01*
X1314286Y-2479714D01*
X1357143Y-2479714D01*
X1385714Y-2494000D01*
X1400000Y-2522571D01*
X1400000Y-2679714D01*
X1400000Y-2522571D02*
X1414286Y-2494000D01*
X1442857Y-2479714D01*
X1485714Y-2479714D01*
X1514286Y-2494000D01*
X1528571Y-2522571D01*
X1528571Y-2679714D01*
X1671429Y-2679714D02*
X1671429Y-2479714D01*
X1671429Y-2508286D02*
X1685714Y-2494000D01*
X1714286Y-2479714D01*
X1757143Y-2479714D01*
X1785714Y-2494000D01*
X1800000Y-2522571D01*
X1800000Y-2679714D01*
X1800000Y-2522571D02*
X1814286Y-2494000D01*
X1842857Y-2479714D01*
X1885714Y-2479714D01*
X1914286Y-2494000D01*
X1928571Y-2522571D01*
X1928571Y-2679714D01*
X2514286Y-2365429D02*
X2257143Y-2751143D01*
X2900000Y-2379714D02*
X2928571Y-2379714D01*
X2957143Y-2394000D01*
X2971428Y-2408286D01*
X2985714Y-2436857D01*
X3000000Y-2494000D01*
X3000000Y-2565429D01*
X2985714Y-2622571D01*
X2971428Y-2651143D01*
X2957143Y-2665429D01*
X2928571Y-2679714D01*
X2900000Y-2679714D01*
X2871428Y-2665429D01*
X2857143Y-2651143D01*
X2842857Y-2622571D01*
X2828571Y-2565429D01*
X2828571Y-2494000D01*
X2842857Y-2436857D01*
X2857143Y-2408286D01*
X2871428Y-2394000D01*
X2900000Y-2379714D01*
X3128571Y-2651143D02*
X3142857Y-2665429D01*
X3128571Y-2679714D01*
X3114286Y-2665429D01*
X3128571Y-2651143D01*
X3128571Y-2679714D01*
X3328571Y-2379714D02*
X3357143Y-2379714D01*
X3385714Y-2394000D01*
X3400000Y-2408286D01*
X3414286Y-2436857D01*
X3428571Y-2494000D01*
X3428571Y-2565429D01*
X3414286Y-2622571D01*
X3400000Y-2651143D01*
X3385714Y-2665429D01*
X3357143Y-2679714D01*
X3328571Y-2679714D01*
X3300000Y-2665429D01*
X3285714Y-2651143D01*
X3271428Y-2622571D01*
X3257143Y-2565429D01*
X3257143Y-2494000D01*
X3271428Y-2436857D01*
X3285714Y-2408286D01*
X3300000Y-2394000D01*
X3328571Y-2379714D01*
X3528571Y-2379714D02*
X3714286Y-2379714D01*
X3614286Y-2494000D01*
X3657143Y-2494000D01*
X3685714Y-2508286D01*
X3700000Y-2522571D01*
X3714286Y-2551143D01*
X3714286Y-2622571D01*
X3700000Y-2651143D01*
X3685714Y-2665429D01*
X3657143Y-2679714D01*
X3571428Y-2679714D01*
X3542857Y-2665429D01*
X3528571Y-2651143D01*
X3857143Y-2679714D02*
X3914286Y-2679714D01*
X3942857Y-2665429D01*
X3957143Y-2651143D01*
X3985714Y-2608286D01*
X4000000Y-2551143D01*
X4000000Y-2436857D01*
X3985714Y-2408286D01*
X3971428Y-2394000D01*
X3942857Y-2379714D01*
X3885714Y-2379714D01*
X3857143Y-2394000D01*
X3842857Y-2408286D01*
X3828571Y-2436857D01*
X3828571Y-2508286D01*
X3842857Y-2536857D01*
X3857143Y-2551143D01*
X3885714Y-2565429D01*
X3942857Y-2565429D01*
X3971428Y-2551143D01*
X3985714Y-2536857D01*
X4000000Y-2508286D01*
X4114286Y-2379714D02*
X4114286Y-2436857D01*
X4228571Y-2379714D02*
X4228571Y-2436857D01*
X4671429Y-2794000D02*
X4657143Y-2779714D01*
X4628571Y-2736857D01*
X4614286Y-2708286D01*
X4600000Y-2665429D01*
X4585714Y-2594000D01*
X4585714Y-2536857D01*
X4600000Y-2465429D01*
X4614286Y-2422571D01*
X4628571Y-2394000D01*
X4657143Y-2351143D01*
X4671429Y-2336857D01*
X4800000Y-2679714D02*
X4857143Y-2679714D01*
X4885714Y-2665429D01*
X4900000Y-2651143D01*
X4928571Y-2608286D01*
X4942857Y-2551143D01*
X4942857Y-2436857D01*
X4928571Y-2408286D01*
X4914286Y-2394000D01*
X4885714Y-2379714D01*
X4828571Y-2379714D01*
X4800000Y-2394000D01*
X4785714Y-2408286D01*
X4771429Y-2436857D01*
X4771429Y-2508286D01*
X4785714Y-2536857D01*
X4800000Y-2551143D01*
X4828571Y-2565429D01*
X4885714Y-2565429D01*
X4914286Y-2551143D01*
X4928571Y-2536857D01*
X4942857Y-2508286D01*
X5200000Y-2479714D02*
X5200000Y-2679714D01*
X5128571Y-2365429D02*
X5057143Y-2579714D01*
X5242857Y-2579714D01*
X5585714Y-2679714D02*
X5585714Y-2379714D01*
X5714286Y-2679714D02*
X5714286Y-2522571D01*
X5700000Y-2494000D01*
X5671428Y-2479714D01*
X5628571Y-2479714D01*
X5600000Y-2494000D01*
X5585714Y-2508286D01*
X5900000Y-2679714D02*
X5871428Y-2665429D01*
X5857143Y-2651143D01*
X5842857Y-2622571D01*
X5842857Y-2536857D01*
X5857143Y-2508286D01*
X5871428Y-2494000D01*
X5900000Y-2479714D01*
X5942857Y-2479714D01*
X5971428Y-2494000D01*
X5985714Y-2508286D01*
X6000000Y-2536857D01*
X6000000Y-2622571D01*
X5985714Y-2651143D01*
X5971428Y-2665429D01*
X5942857Y-2679714D01*
X5900000Y-2679714D01*
X6171428Y-2679714D02*
X6142857Y-2665429D01*
X6128571Y-2636857D01*
X6128571Y-2379714D01*
X6400000Y-2665429D02*
X6371429Y-2679714D01*
X6314286Y-2679714D01*
X6285714Y-2665429D01*
X6271429Y-2636857D01*
X6271429Y-2522571D01*
X6285714Y-2494000D01*
X6314286Y-2479714D01*
X6371429Y-2479714D01*
X6400000Y-2494000D01*
X6414286Y-2522571D01*
X6414286Y-2551143D01*
X6271429Y-2579714D01*
X6528571Y-2665429D02*
X6557143Y-2679714D01*
X6614286Y-2679714D01*
X6642857Y-2665429D01*
X6657143Y-2636857D01*
X6657143Y-2622571D01*
X6642857Y-2594000D01*
X6614286Y-2579714D01*
X6571429Y-2579714D01*
X6542857Y-2565429D01*
X6528571Y-2536857D01*
X6528571Y-2522571D01*
X6542857Y-2494000D01*
X6571429Y-2479714D01*
X6614286Y-2479714D01*
X6642857Y-2494000D01*
X6757143Y-2794000D02*
X6771429Y-2779714D01*
X6800000Y-2736857D01*
X6814286Y-2708286D01*
X6828571Y-2665429D01*
X6842857Y-2594000D01*
X6842857Y-2536857D01*
X6828571Y-2465429D01*
X6814286Y-2422571D01*
X6800000Y-2394000D01*
X6771429Y-2351143D01*
X6757143Y-2336857D01*
X-100076Y-2889962D02*
X0Y-2990038D01*
X0Y-2889962D02*
X-100076Y-2990038D01*
X0Y-2940000D02*
G75*
G03X0Y-2940000I-50038J0D01*
G01*
X428571Y-3075714D02*
X257143Y-3075714D01*
X342857Y-3075714D02*
X342857Y-2775714D01*
X314286Y-2818571D01*
X285714Y-2847143D01*
X257143Y-2861429D01*
X557143Y-3047143D02*
X571429Y-3061429D01*
X557143Y-3075714D01*
X542857Y-3061429D01*
X557143Y-3047143D01*
X557143Y-3075714D01*
X757143Y-2775714D02*
X785714Y-2775714D01*
X814286Y-2790000D01*
X828571Y-2804286D01*
X842857Y-2832857D01*
X857143Y-2890000D01*
X857143Y-2961429D01*
X842857Y-3018571D01*
X828571Y-3047143D01*
X814286Y-3061429D01*
X785714Y-3075714D01*
X757143Y-3075714D01*
X728571Y-3061429D01*
X714286Y-3047143D01*
X700000Y-3018571D01*
X685714Y-2961429D01*
X685714Y-2890000D01*
X700000Y-2832857D01*
X714286Y-2804286D01*
X728571Y-2790000D01*
X757143Y-2775714D01*
X1042857Y-2775714D02*
X1071429Y-2775714D01*
X1100000Y-2790000D01*
X1114286Y-2804286D01*
X1128571Y-2832857D01*
X1142857Y-2890000D01*
X1142857Y-2961429D01*
X1128571Y-3018571D01*
X1114286Y-3047143D01*
X1100000Y-3061429D01*
X1071429Y-3075714D01*
X1042857Y-3075714D01*
X1014286Y-3061429D01*
X1000000Y-3047143D01*
X985714Y-3018571D01*
X971429Y-2961429D01*
X971429Y-2890000D01*
X985714Y-2832857D01*
X1000000Y-2804286D01*
X1014286Y-2790000D01*
X1042857Y-2775714D01*
X1271429Y-3075714D02*
X1271429Y-2875714D01*
X1271429Y-2904286D02*
X1285714Y-2890000D01*
X1314286Y-2875714D01*
X1357143Y-2875714D01*
X1385714Y-2890000D01*
X1400000Y-2918571D01*
X1400000Y-3075714D01*
X1400000Y-2918571D02*
X1414286Y-2890000D01*
X1442857Y-2875714D01*
X1485714Y-2875714D01*
X1514286Y-2890000D01*
X1528571Y-2918571D01*
X1528571Y-3075714D01*
X1671429Y-3075714D02*
X1671429Y-2875714D01*
X1671429Y-2904286D02*
X1685714Y-2890000D01*
X1714286Y-2875714D01*
X1757143Y-2875714D01*
X1785714Y-2890000D01*
X1800000Y-2918571D01*
X1800000Y-3075714D01*
X1800000Y-2918571D02*
X1814286Y-2890000D01*
X1842857Y-2875714D01*
X1885714Y-2875714D01*
X1914286Y-2890000D01*
X1928571Y-2918571D01*
X1928571Y-3075714D01*
X2514286Y-2761429D02*
X2257143Y-3147143D01*
X2900000Y-2775714D02*
X2928571Y-2775714D01*
X2957143Y-2790000D01*
X2971428Y-2804286D01*
X2985714Y-2832857D01*
X3000000Y-2890000D01*
X3000000Y-2961429D01*
X2985714Y-3018571D01*
X2971428Y-3047143D01*
X2957143Y-3061429D01*
X2928571Y-3075714D01*
X2900000Y-3075714D01*
X2871428Y-3061429D01*
X2857143Y-3047143D01*
X2842857Y-3018571D01*
X2828571Y-2961429D01*
X2828571Y-2890000D01*
X2842857Y-2832857D01*
X2857143Y-2804286D01*
X2871428Y-2790000D01*
X2900000Y-2775714D01*
X3128571Y-3047143D02*
X3142857Y-3061429D01*
X3128571Y-3075714D01*
X3114286Y-3061429D01*
X3128571Y-3047143D01*
X3128571Y-3075714D01*
X3328571Y-2775714D02*
X3357143Y-2775714D01*
X3385714Y-2790000D01*
X3400000Y-2804286D01*
X3414286Y-2832857D01*
X3428571Y-2890000D01*
X3428571Y-2961429D01*
X3414286Y-3018571D01*
X3400000Y-3047143D01*
X3385714Y-3061429D01*
X3357143Y-3075714D01*
X3328571Y-3075714D01*
X3300000Y-3061429D01*
X3285714Y-3047143D01*
X3271428Y-3018571D01*
X3257143Y-2961429D01*
X3257143Y-2890000D01*
X3271428Y-2832857D01*
X3285714Y-2804286D01*
X3300000Y-2790000D01*
X3328571Y-2775714D01*
X3528571Y-2775714D02*
X3714286Y-2775714D01*
X3614286Y-2890000D01*
X3657143Y-2890000D01*
X3685714Y-2904286D01*
X3700000Y-2918571D01*
X3714286Y-2947143D01*
X3714286Y-3018571D01*
X3700000Y-3047143D01*
X3685714Y-3061429D01*
X3657143Y-3075714D01*
X3571428Y-3075714D01*
X3542857Y-3061429D01*
X3528571Y-3047143D01*
X3857143Y-3075714D02*
X3914286Y-3075714D01*
X3942857Y-3061429D01*
X3957143Y-3047143D01*
X3985714Y-3004286D01*
X4000000Y-2947143D01*
X4000000Y-2832857D01*
X3985714Y-2804286D01*
X3971428Y-2790000D01*
X3942857Y-2775714D01*
X3885714Y-2775714D01*
X3857143Y-2790000D01*
X3842857Y-2804286D01*
X3828571Y-2832857D01*
X3828571Y-2904286D01*
X3842857Y-2932857D01*
X3857143Y-2947143D01*
X3885714Y-2961429D01*
X3942857Y-2961429D01*
X3971428Y-2947143D01*
X3985714Y-2932857D01*
X4000000Y-2904286D01*
X4114286Y-2775714D02*
X4114286Y-2832857D01*
X4228571Y-2775714D02*
X4228571Y-2832857D01*
X4671429Y-3190000D02*
X4657143Y-3175714D01*
X4628571Y-3132857D01*
X4614286Y-3104286D01*
X4600000Y-3061429D01*
X4585714Y-2990000D01*
X4585714Y-2932857D01*
X4600000Y-2861429D01*
X4614286Y-2818571D01*
X4628571Y-2790000D01*
X4657143Y-2747143D01*
X4671429Y-2732857D01*
X4771429Y-2804286D02*
X4785714Y-2790000D01*
X4814286Y-2775714D01*
X4885714Y-2775714D01*
X4914286Y-2790000D01*
X4928571Y-2804286D01*
X4942857Y-2832857D01*
X4942857Y-2861429D01*
X4928571Y-2904286D01*
X4757143Y-3075714D01*
X4942857Y-3075714D01*
X5300000Y-3075714D02*
X5300000Y-2775714D01*
X5428571Y-3075714D02*
X5428571Y-2918571D01*
X5414286Y-2890000D01*
X5385714Y-2875714D01*
X5342857Y-2875714D01*
X5314286Y-2890000D01*
X5300000Y-2904286D01*
X5614286Y-3075714D02*
X5585714Y-3061429D01*
X5571429Y-3047143D01*
X5557143Y-3018571D01*
X5557143Y-2932857D01*
X5571429Y-2904286D01*
X5585714Y-2890000D01*
X5614286Y-2875714D01*
X5657143Y-2875714D01*
X5685714Y-2890000D01*
X5700000Y-2904286D01*
X5714286Y-2932857D01*
X5714286Y-3018571D01*
X5700000Y-3047143D01*
X5685714Y-3061429D01*
X5657143Y-3075714D01*
X5614286Y-3075714D01*
X5885714Y-3075714D02*
X5857143Y-3061429D01*
X5842857Y-3032857D01*
X5842857Y-2775714D01*
X6114286Y-3061429D02*
X6085714Y-3075714D01*
X6028571Y-3075714D01*
X6000000Y-3061429D01*
X5985714Y-3032857D01*
X5985714Y-2918571D01*
X6000000Y-2890000D01*
X6028571Y-2875714D01*
X6085714Y-2875714D01*
X6114286Y-2890000D01*
X6128571Y-2918571D01*
X6128571Y-2947143D01*
X5985714Y-2975714D01*
X6242857Y-3061429D02*
X6271429Y-3075714D01*
X6328571Y-3075714D01*
X6357143Y-3061429D01*
X6371429Y-3032857D01*
X6371429Y-3018571D01*
X6357143Y-2990000D01*
X6328571Y-2975714D01*
X6285714Y-2975714D01*
X6257143Y-2961429D01*
X6242857Y-2932857D01*
X6242857Y-2918571D01*
X6257143Y-2890000D01*
X6285714Y-2875714D01*
X6328571Y-2875714D01*
X6357143Y-2890000D01*
X6471428Y-3190000D02*
X6485714Y-3175714D01*
X6514286Y-3132857D01*
X6528571Y-3104286D01*
X6542857Y-3061429D01*
X6557143Y-2990000D01*
X6557143Y-2932857D01*
X6542857Y-2861429D01*
X6528571Y-2818571D01*
X6514286Y-2790000D01*
X6485714Y-2747143D01*
X6471428Y-2732857D01*
X-101600Y-3285200D02*
X0Y-3386800D01*
X0Y-3285200D02*
X-101600Y-3386800D01*
X-50800Y-3285200D02*
X-50800Y-3386800D01*
X-101600Y-3336000D02*
X0Y-3336000D01*
X428571Y-3471714D02*
X257143Y-3471714D01*
X342857Y-3471714D02*
X342857Y-3171714D01*
X314286Y-3214571D01*
X285714Y-3243143D01*
X257143Y-3257429D01*
X557143Y-3443143D02*
X571429Y-3457429D01*
X557143Y-3471714D01*
X542857Y-3457429D01*
X557143Y-3443143D01*
X557143Y-3471714D01*
X757143Y-3171714D02*
X785714Y-3171714D01*
X814286Y-3186000D01*
X828571Y-3200286D01*
X842857Y-3228857D01*
X857143Y-3286000D01*
X857143Y-3357429D01*
X842857Y-3414571D01*
X828571Y-3443143D01*
X814286Y-3457429D01*
X785714Y-3471714D01*
X757143Y-3471714D01*
X728571Y-3457429D01*
X714286Y-3443143D01*
X700000Y-3414571D01*
X685714Y-3357429D01*
X685714Y-3286000D01*
X700000Y-3228857D01*
X714286Y-3200286D01*
X728571Y-3186000D01*
X757143Y-3171714D01*
X971429Y-3200286D02*
X985714Y-3186000D01*
X1014286Y-3171714D01*
X1085714Y-3171714D01*
X1114286Y-3186000D01*
X1128571Y-3200286D01*
X1142857Y-3228857D01*
X1142857Y-3257429D01*
X1128571Y-3300286D01*
X957143Y-3471714D01*
X1142857Y-3471714D01*
X1271429Y-3471714D02*
X1271429Y-3271714D01*
X1271429Y-3300286D02*
X1285714Y-3286000D01*
X1314286Y-3271714D01*
X1357143Y-3271714D01*
X1385714Y-3286000D01*
X1400000Y-3314571D01*
X1400000Y-3471714D01*
X1400000Y-3314571D02*
X1414286Y-3286000D01*
X1442857Y-3271714D01*
X1485714Y-3271714D01*
X1514286Y-3286000D01*
X1528571Y-3314571D01*
X1528571Y-3471714D01*
X1671429Y-3471714D02*
X1671429Y-3271714D01*
X1671429Y-3300286D02*
X1685714Y-3286000D01*
X1714286Y-3271714D01*
X1757143Y-3271714D01*
X1785714Y-3286000D01*
X1800000Y-3314571D01*
X1800000Y-3471714D01*
X1800000Y-3314571D02*
X1814286Y-3286000D01*
X1842857Y-3271714D01*
X1885714Y-3271714D01*
X1914286Y-3286000D01*
X1928571Y-3314571D01*
X1928571Y-3471714D01*
X2514286Y-3157429D02*
X2257143Y-3543143D01*
X2900000Y-3171714D02*
X2928571Y-3171714D01*
X2957143Y-3186000D01*
X2971428Y-3200286D01*
X2985714Y-3228857D01*
X3000000Y-3286000D01*
X3000000Y-3357429D01*
X2985714Y-3414571D01*
X2971428Y-3443143D01*
X2957143Y-3457429D01*
X2928571Y-3471714D01*
X2900000Y-3471714D01*
X2871428Y-3457429D01*
X2857143Y-3443143D01*
X2842857Y-3414571D01*
X2828571Y-3357429D01*
X2828571Y-3286000D01*
X2842857Y-3228857D01*
X2857143Y-3200286D01*
X2871428Y-3186000D01*
X2900000Y-3171714D01*
X3128571Y-3443143D02*
X3142857Y-3457429D01*
X3128571Y-3471714D01*
X3114286Y-3457429D01*
X3128571Y-3443143D01*
X3128571Y-3471714D01*
X3328571Y-3171714D02*
X3357143Y-3171714D01*
X3385714Y-3186000D01*
X3400000Y-3200286D01*
X3414286Y-3228857D01*
X3428571Y-3286000D01*
X3428571Y-3357429D01*
X3414286Y-3414571D01*
X3400000Y-3443143D01*
X3385714Y-3457429D01*
X3357143Y-3471714D01*
X3328571Y-3471714D01*
X3300000Y-3457429D01*
X3285714Y-3443143D01*
X3271428Y-3414571D01*
X3257143Y-3357429D01*
X3257143Y-3286000D01*
X3271428Y-3228857D01*
X3285714Y-3200286D01*
X3300000Y-3186000D01*
X3328571Y-3171714D01*
X3685714Y-3271714D02*
X3685714Y-3471714D01*
X3614286Y-3157429D02*
X3542857Y-3371714D01*
X3728571Y-3371714D01*
X3900000Y-3171714D02*
X3928571Y-3171714D01*
X3957143Y-3186000D01*
X3971428Y-3200286D01*
X3985714Y-3228857D01*
X4000000Y-3286000D01*
X4000000Y-3357429D01*
X3985714Y-3414571D01*
X3971428Y-3443143D01*
X3957143Y-3457429D01*
X3928571Y-3471714D01*
X3900000Y-3471714D01*
X3871428Y-3457429D01*
X3857143Y-3443143D01*
X3842857Y-3414571D01*
X3828571Y-3357429D01*
X3828571Y-3286000D01*
X3842857Y-3228857D01*
X3857143Y-3200286D01*
X3871428Y-3186000D01*
X3900000Y-3171714D01*
X4114286Y-3171714D02*
X4114286Y-3228857D01*
X4228571Y-3171714D02*
X4228571Y-3228857D01*
X4671429Y-3586000D02*
X4657143Y-3571714D01*
X4628571Y-3528857D01*
X4614286Y-3500286D01*
X4600000Y-3457429D01*
X4585714Y-3386000D01*
X4585714Y-3328857D01*
X4600000Y-3257429D01*
X4614286Y-3214571D01*
X4628571Y-3186000D01*
X4657143Y-3143143D01*
X4671429Y-3128857D01*
X4914286Y-3171714D02*
X4857143Y-3171714D01*
X4828571Y-3186000D01*
X4814286Y-3200286D01*
X4785714Y-3243143D01*
X4771429Y-3300286D01*
X4771429Y-3414571D01*
X4785714Y-3443143D01*
X4800000Y-3457429D01*
X4828571Y-3471714D01*
X4885714Y-3471714D01*
X4914286Y-3457429D01*
X4928571Y-3443143D01*
X4942857Y-3414571D01*
X4942857Y-3343143D01*
X4928571Y-3314571D01*
X4914286Y-3300286D01*
X4885714Y-3286000D01*
X4828571Y-3286000D01*
X4800000Y-3300286D01*
X4785714Y-3314571D01*
X4771429Y-3343143D01*
X5042857Y-3171714D02*
X5228571Y-3171714D01*
X5128571Y-3286000D01*
X5171429Y-3286000D01*
X5200000Y-3300286D01*
X5214286Y-3314571D01*
X5228571Y-3343143D01*
X5228571Y-3414571D01*
X5214286Y-3443143D01*
X5200000Y-3457429D01*
X5171429Y-3471714D01*
X5085714Y-3471714D01*
X5057143Y-3457429D01*
X5042857Y-3443143D01*
X5585714Y-3471714D02*
X5585714Y-3171714D01*
X5714286Y-3471714D02*
X5714286Y-3314571D01*
X5700000Y-3286000D01*
X5671428Y-3271714D01*
X5628571Y-3271714D01*
X5600000Y-3286000D01*
X5585714Y-3300286D01*
X5900000Y-3471714D02*
X5871428Y-3457429D01*
X5857143Y-3443143D01*
X5842857Y-3414571D01*
X5842857Y-3328857D01*
X5857143Y-3300286D01*
X5871428Y-3286000D01*
X5900000Y-3271714D01*
X5942857Y-3271714D01*
X5971428Y-3286000D01*
X5985714Y-3300286D01*
X6000000Y-3328857D01*
X6000000Y-3414571D01*
X5985714Y-3443143D01*
X5971428Y-3457429D01*
X5942857Y-3471714D01*
X5900000Y-3471714D01*
X6171428Y-3471714D02*
X6142857Y-3457429D01*
X6128571Y-3428857D01*
X6128571Y-3171714D01*
X6400000Y-3457429D02*
X6371429Y-3471714D01*
X6314286Y-3471714D01*
X6285714Y-3457429D01*
X6271429Y-3428857D01*
X6271429Y-3314571D01*
X6285714Y-3286000D01*
X6314286Y-3271714D01*
X6371429Y-3271714D01*
X6400000Y-3286000D01*
X6414286Y-3314571D01*
X6414286Y-3343143D01*
X6271429Y-3371714D01*
X6528571Y-3457429D02*
X6557143Y-3471714D01*
X6614286Y-3471714D01*
X6642857Y-3457429D01*
X6657143Y-3428857D01*
X6657143Y-3414571D01*
X6642857Y-3386000D01*
X6614286Y-3371714D01*
X6571429Y-3371714D01*
X6542857Y-3357429D01*
X6528571Y-3328857D01*
X6528571Y-3314571D01*
X6542857Y-3286000D01*
X6571429Y-3271714D01*
X6614286Y-3271714D01*
X6642857Y-3286000D01*
X6757143Y-3586000D02*
X6771429Y-3571714D01*
X6800000Y-3528857D01*
X6814286Y-3500286D01*
X6828571Y-3457429D01*
X6842857Y-3386000D01*
X6842857Y-3328857D01*
X6828571Y-3257429D01*
X6814286Y-3214571D01*
X6800000Y-3186000D01*
X6771429Y-3143143D01*
X6757143Y-3128857D01*
M02*
