%FSLAX45Y45*%
G04 Gerber Fmt 4.5, Leading zero omitted, Abs format (unit mm)*
G04 Created by KiCad (PCBNEW 4.0.6) date 01/10/18 21:06:59*
%MOMM*%
%LPD*%
G01*
G04 APERTURE LIST*
%ADD10C,0.127000*%
%ADD11C,0.200000*%
%ADD12C,0.300000*%
G04 APERTURE END LIST*
D10*
D11*
X13057600Y-2910500D02*
X13067600Y-2920500D01*
X13067600Y-2910500D02*
X13057600Y-2920500D01*
X13057600Y-5610500D02*
X13067600Y-5620500D01*
X13067600Y-5610500D02*
X13057600Y-5620500D01*
X23090600Y-7800000D02*
X23100600Y-7810000D01*
X23100600Y-7800000D02*
X23090600Y-7810000D01*
X23090600Y-10500000D02*
X23100600Y-10510000D01*
X23100600Y-10500000D02*
X23090600Y-10510000D01*
X27635900Y-2113800D02*
X27645900Y-2123800D01*
X27645900Y-2113800D02*
X27635900Y-2123800D01*
X27635900Y-4813800D02*
X27645900Y-4823800D01*
X27645900Y-4813800D02*
X27635900Y-4823800D01*
X9638060Y-9737320D02*
G75*
G03X9638060Y-9737320I-35000J0D01*
G01*
X10188060Y-9737320D02*
G75*
G03X10188060Y-9737320I-35000J0D01*
G01*
X15065400Y-18572200D02*
G75*
G03X15065400Y-18572200I-35000J0D01*
G01*
X15615400Y-18572200D02*
G75*
G03X15615400Y-18572200I-35000J0D01*
G01*
X19759600Y-7535500D02*
G75*
G03X19759600Y-7535500I-35000J0D01*
G01*
X19759600Y-8085500D02*
G75*
G03X19759600Y-8085500I-35000J0D01*
G01*
X2231000Y-3375100D02*
X2231000Y-3475100D01*
X2181000Y-3425100D02*
X2281000Y-3425100D01*
X2231000Y-7269100D02*
X2231000Y-7369100D01*
X2181000Y-7319100D02*
X2281000Y-7319100D01*
X11116700Y-3375100D02*
X11116700Y-3475100D01*
X11066700Y-3425100D02*
X11166700Y-3425100D01*
X11116700Y-7269100D02*
X11116700Y-7369100D01*
X11066700Y-7319100D02*
X11166700Y-7319100D01*
X12883918Y-2711818D02*
X12883918Y-2549182D01*
X12721282Y-2549182D01*
X12721282Y-2711818D01*
X12883918Y-2711818D01*
X12883918Y-5981818D02*
X12883918Y-5819182D01*
X12721282Y-5819182D01*
X12721282Y-5981818D01*
X12883918Y-5981818D01*
X22916918Y-7601318D02*
X22916918Y-7438682D01*
X22754282Y-7438682D01*
X22754282Y-7601318D01*
X22916918Y-7601318D01*
X22916918Y-10871318D02*
X22916918Y-10708682D01*
X22754282Y-10708682D01*
X22754282Y-10871318D01*
X22916918Y-10871318D01*
X27982218Y-1915118D02*
X27982218Y-1752482D01*
X27819582Y-1752482D01*
X27819582Y-1915118D01*
X27982218Y-1915118D01*
X27982218Y-5185118D02*
X27982218Y-5022482D01*
X27819582Y-5022482D01*
X27819582Y-5185118D01*
X27982218Y-5185118D01*
D12*
X271429Y-465714D02*
X271429Y-165714D01*
X342857Y-165714D01*
X385714Y-180000D01*
X414286Y-208571D01*
X428571Y-237143D01*
X442857Y-294286D01*
X442857Y-337143D01*
X428571Y-394286D01*
X414286Y-422857D01*
X385714Y-451429D01*
X342857Y-465714D01*
X271429Y-465714D01*
X571429Y-465714D02*
X571429Y-265714D01*
X571429Y-322857D02*
X585714Y-294286D01*
X600000Y-280000D01*
X628571Y-265714D01*
X657143Y-265714D01*
X757143Y-465714D02*
X757143Y-265714D01*
X757143Y-165714D02*
X742857Y-180000D01*
X757143Y-194286D01*
X771429Y-180000D01*
X757143Y-165714D01*
X757143Y-194286D01*
X942857Y-465714D02*
X914286Y-451429D01*
X900000Y-422857D01*
X900000Y-165714D01*
X1100000Y-465714D02*
X1071429Y-451429D01*
X1057143Y-422857D01*
X1057143Y-165714D01*
X1442857Y-465714D02*
X1442857Y-165714D01*
X1542857Y-380000D01*
X1642857Y-165714D01*
X1642857Y-465714D01*
X1914286Y-465714D02*
X1914286Y-308571D01*
X1900000Y-280000D01*
X1871429Y-265714D01*
X1814286Y-265714D01*
X1785714Y-280000D01*
X1914286Y-451429D02*
X1885714Y-465714D01*
X1814286Y-465714D01*
X1785714Y-451429D01*
X1771429Y-422857D01*
X1771429Y-394286D01*
X1785714Y-365714D01*
X1814286Y-351429D01*
X1885714Y-351429D01*
X1914286Y-337143D01*
X2057143Y-265714D02*
X2057143Y-565714D01*
X2057143Y-280000D02*
X2085714Y-265714D01*
X2142857Y-265714D01*
X2171429Y-280000D01*
X2185714Y-294286D01*
X2200000Y-322857D01*
X2200000Y-408571D01*
X2185714Y-437143D01*
X2171429Y-451429D01*
X2142857Y-465714D01*
X2085714Y-465714D01*
X2057143Y-451429D01*
X2328572Y-437143D02*
X2342857Y-451429D01*
X2328572Y-465714D01*
X2314286Y-451429D01*
X2328572Y-437143D01*
X2328572Y-465714D01*
X2328572Y-280000D02*
X2342857Y-294286D01*
X2328572Y-308571D01*
X2314286Y-294286D01*
X2328572Y-280000D01*
X2328572Y-308571D01*
X-10000Y-955000D02*
X0Y-965000D01*
X0Y-955000D02*
X-10000Y-965000D01*
X328571Y-795714D02*
X357143Y-795714D01*
X385714Y-810000D01*
X400000Y-824286D01*
X414286Y-852857D01*
X428571Y-910000D01*
X428571Y-981429D01*
X414286Y-1038571D01*
X400000Y-1067143D01*
X385714Y-1081429D01*
X357143Y-1095714D01*
X328571Y-1095714D01*
X300000Y-1081429D01*
X285714Y-1067143D01*
X271429Y-1038571D01*
X257143Y-981429D01*
X257143Y-910000D01*
X271429Y-852857D01*
X285714Y-824286D01*
X300000Y-810000D01*
X328571Y-795714D01*
X557143Y-1067143D02*
X571429Y-1081429D01*
X557143Y-1095714D01*
X542857Y-1081429D01*
X557143Y-1067143D01*
X557143Y-1095714D01*
X857143Y-1095714D02*
X685714Y-1095714D01*
X771428Y-1095714D02*
X771428Y-795714D01*
X742857Y-838571D01*
X714286Y-867143D01*
X685714Y-881429D01*
X1042857Y-795714D02*
X1071429Y-795714D01*
X1100000Y-810000D01*
X1114286Y-824286D01*
X1128571Y-852857D01*
X1142857Y-910000D01*
X1142857Y-981429D01*
X1128571Y-1038571D01*
X1114286Y-1067143D01*
X1100000Y-1081429D01*
X1071429Y-1095714D01*
X1042857Y-1095714D01*
X1014286Y-1081429D01*
X1000000Y-1067143D01*
X985714Y-1038571D01*
X971429Y-981429D01*
X971429Y-910000D01*
X985714Y-852857D01*
X1000000Y-824286D01*
X1014286Y-810000D01*
X1042857Y-795714D01*
X1271429Y-1095714D02*
X1271429Y-895714D01*
X1271429Y-924286D02*
X1285714Y-910000D01*
X1314286Y-895714D01*
X1357143Y-895714D01*
X1385714Y-910000D01*
X1400000Y-938571D01*
X1400000Y-1095714D01*
X1400000Y-938571D02*
X1414286Y-910000D01*
X1442857Y-895714D01*
X1485714Y-895714D01*
X1514286Y-910000D01*
X1528571Y-938571D01*
X1528571Y-1095714D01*
X1671429Y-1095714D02*
X1671429Y-895714D01*
X1671429Y-924286D02*
X1685714Y-910000D01*
X1714286Y-895714D01*
X1757143Y-895714D01*
X1785714Y-910000D01*
X1800000Y-938571D01*
X1800000Y-1095714D01*
X1800000Y-938571D02*
X1814286Y-910000D01*
X1842857Y-895714D01*
X1885714Y-895714D01*
X1914286Y-910000D01*
X1928571Y-938571D01*
X1928571Y-1095714D01*
X2514286Y-781429D02*
X2257143Y-1167143D01*
X2900000Y-795714D02*
X2928571Y-795714D01*
X2957143Y-810000D01*
X2971428Y-824286D01*
X2985714Y-852857D01*
X3000000Y-910000D01*
X3000000Y-981429D01*
X2985714Y-1038571D01*
X2971428Y-1067143D01*
X2957143Y-1081429D01*
X2928571Y-1095714D01*
X2900000Y-1095714D01*
X2871428Y-1081429D01*
X2857143Y-1067143D01*
X2842857Y-1038571D01*
X2828571Y-981429D01*
X2828571Y-910000D01*
X2842857Y-852857D01*
X2857143Y-824286D01*
X2871428Y-810000D01*
X2900000Y-795714D01*
X3128571Y-1067143D02*
X3142857Y-1081429D01*
X3128571Y-1095714D01*
X3114286Y-1081429D01*
X3128571Y-1067143D01*
X3128571Y-1095714D01*
X3328571Y-795714D02*
X3357143Y-795714D01*
X3385714Y-810000D01*
X3400000Y-824286D01*
X3414286Y-852857D01*
X3428571Y-910000D01*
X3428571Y-981429D01*
X3414286Y-1038571D01*
X3400000Y-1067143D01*
X3385714Y-1081429D01*
X3357143Y-1095714D01*
X3328571Y-1095714D01*
X3300000Y-1081429D01*
X3285714Y-1067143D01*
X3271428Y-1038571D01*
X3257143Y-981429D01*
X3257143Y-910000D01*
X3271428Y-852857D01*
X3285714Y-824286D01*
X3300000Y-810000D01*
X3328571Y-795714D01*
X3614286Y-795714D02*
X3642857Y-795714D01*
X3671428Y-810000D01*
X3685714Y-824286D01*
X3700000Y-852857D01*
X3714286Y-910000D01*
X3714286Y-981429D01*
X3700000Y-1038571D01*
X3685714Y-1067143D01*
X3671428Y-1081429D01*
X3642857Y-1095714D01*
X3614286Y-1095714D01*
X3585714Y-1081429D01*
X3571428Y-1067143D01*
X3557143Y-1038571D01*
X3542857Y-981429D01*
X3542857Y-910000D01*
X3557143Y-852857D01*
X3571428Y-824286D01*
X3585714Y-810000D01*
X3614286Y-795714D01*
X3971428Y-895714D02*
X3971428Y-1095714D01*
X3900000Y-781429D02*
X3828571Y-995714D01*
X4014286Y-995714D01*
X4114286Y-795714D02*
X4114286Y-852857D01*
X4228571Y-795714D02*
X4228571Y-852857D01*
X4671429Y-1210000D02*
X4657143Y-1195714D01*
X4628571Y-1152857D01*
X4614286Y-1124286D01*
X4600000Y-1081429D01*
X4585714Y-1010000D01*
X4585714Y-952857D01*
X4600000Y-881429D01*
X4614286Y-838571D01*
X4628571Y-810000D01*
X4657143Y-767143D01*
X4671429Y-752857D01*
X4914286Y-795714D02*
X4857143Y-795714D01*
X4828571Y-810000D01*
X4814286Y-824286D01*
X4785714Y-867143D01*
X4771429Y-924286D01*
X4771429Y-1038571D01*
X4785714Y-1067143D01*
X4800000Y-1081429D01*
X4828571Y-1095714D01*
X4885714Y-1095714D01*
X4914286Y-1081429D01*
X4928571Y-1067143D01*
X4942857Y-1038571D01*
X4942857Y-967143D01*
X4928571Y-938571D01*
X4914286Y-924286D01*
X4885714Y-910000D01*
X4828571Y-910000D01*
X4800000Y-924286D01*
X4785714Y-938571D01*
X4771429Y-967143D01*
X5300000Y-1095714D02*
X5300000Y-795714D01*
X5428571Y-1095714D02*
X5428571Y-938571D01*
X5414286Y-910000D01*
X5385714Y-895714D01*
X5342857Y-895714D01*
X5314286Y-910000D01*
X5300000Y-924286D01*
X5614286Y-1095714D02*
X5585714Y-1081429D01*
X5571429Y-1067143D01*
X5557143Y-1038571D01*
X5557143Y-952857D01*
X5571429Y-924286D01*
X5585714Y-910000D01*
X5614286Y-895714D01*
X5657143Y-895714D01*
X5685714Y-910000D01*
X5700000Y-924286D01*
X5714286Y-952857D01*
X5714286Y-1038571D01*
X5700000Y-1067143D01*
X5685714Y-1081429D01*
X5657143Y-1095714D01*
X5614286Y-1095714D01*
X5885714Y-1095714D02*
X5857143Y-1081429D01*
X5842857Y-1052857D01*
X5842857Y-795714D01*
X6114286Y-1081429D02*
X6085714Y-1095714D01*
X6028571Y-1095714D01*
X6000000Y-1081429D01*
X5985714Y-1052857D01*
X5985714Y-938571D01*
X6000000Y-910000D01*
X6028571Y-895714D01*
X6085714Y-895714D01*
X6114286Y-910000D01*
X6128571Y-938571D01*
X6128571Y-967143D01*
X5985714Y-995714D01*
X6242857Y-1081429D02*
X6271429Y-1095714D01*
X6328571Y-1095714D01*
X6357143Y-1081429D01*
X6371429Y-1052857D01*
X6371429Y-1038571D01*
X6357143Y-1010000D01*
X6328571Y-995714D01*
X6285714Y-995714D01*
X6257143Y-981429D01*
X6242857Y-952857D01*
X6242857Y-938571D01*
X6257143Y-910000D01*
X6285714Y-895714D01*
X6328571Y-895714D01*
X6357143Y-910000D01*
X6471428Y-1210000D02*
X6485714Y-1195714D01*
X6514286Y-1152857D01*
X6528571Y-1124286D01*
X6542857Y-1081429D01*
X6557143Y-1010000D01*
X6557143Y-952857D01*
X6542857Y-881429D01*
X6528571Y-838571D01*
X6514286Y-810000D01*
X6485714Y-767143D01*
X6471428Y-752857D01*
X7014286Y-1210000D02*
X7000000Y-1195714D01*
X6971428Y-1152857D01*
X6957143Y-1124286D01*
X6942857Y-1081429D01*
X6928571Y-1010000D01*
X6928571Y-952857D01*
X6942857Y-881429D01*
X6957143Y-838571D01*
X6971428Y-810000D01*
X7000000Y-767143D01*
X7014286Y-752857D01*
X7128571Y-895714D02*
X7128571Y-1095714D01*
X7128571Y-924286D02*
X7142857Y-910000D01*
X7171428Y-895714D01*
X7214286Y-895714D01*
X7242857Y-910000D01*
X7257143Y-938571D01*
X7257143Y-1095714D01*
X7442857Y-1095714D02*
X7414286Y-1081429D01*
X7400000Y-1067143D01*
X7385714Y-1038571D01*
X7385714Y-952857D01*
X7400000Y-924286D01*
X7414286Y-910000D01*
X7442857Y-895714D01*
X7485714Y-895714D01*
X7514286Y-910000D01*
X7528571Y-924286D01*
X7542857Y-952857D01*
X7542857Y-1038571D01*
X7528571Y-1067143D01*
X7514286Y-1081429D01*
X7485714Y-1095714D01*
X7442857Y-1095714D01*
X7628571Y-895714D02*
X7742857Y-895714D01*
X7671429Y-795714D02*
X7671429Y-1052857D01*
X7685714Y-1081429D01*
X7714286Y-1095714D01*
X7742857Y-1095714D01*
X8071429Y-895714D02*
X8071429Y-1195714D01*
X8071429Y-910000D02*
X8100000Y-895714D01*
X8157143Y-895714D01*
X8185714Y-910000D01*
X8200000Y-924286D01*
X8214286Y-952857D01*
X8214286Y-1038571D01*
X8200000Y-1067143D01*
X8185714Y-1081429D01*
X8157143Y-1095714D01*
X8100000Y-1095714D01*
X8071429Y-1081429D01*
X8385714Y-1095714D02*
X8357143Y-1081429D01*
X8342857Y-1052857D01*
X8342857Y-795714D01*
X8628572Y-1095714D02*
X8628572Y-938571D01*
X8614286Y-910000D01*
X8585714Y-895714D01*
X8528572Y-895714D01*
X8500000Y-910000D01*
X8628572Y-1081429D02*
X8600000Y-1095714D01*
X8528572Y-1095714D01*
X8500000Y-1081429D01*
X8485714Y-1052857D01*
X8485714Y-1024286D01*
X8500000Y-995714D01*
X8528572Y-981429D01*
X8600000Y-981429D01*
X8628572Y-967143D01*
X8728572Y-895714D02*
X8842857Y-895714D01*
X8771429Y-795714D02*
X8771429Y-1052857D01*
X8785714Y-1081429D01*
X8814286Y-1095714D01*
X8842857Y-1095714D01*
X9057143Y-1081429D02*
X9028572Y-1095714D01*
X8971429Y-1095714D01*
X8942857Y-1081429D01*
X8928572Y-1052857D01*
X8928572Y-938571D01*
X8942857Y-910000D01*
X8971429Y-895714D01*
X9028572Y-895714D01*
X9057143Y-910000D01*
X9071429Y-938571D01*
X9071429Y-967143D01*
X8928572Y-995714D01*
X9328572Y-1095714D02*
X9328572Y-795714D01*
X9328572Y-1081429D02*
X9300000Y-1095714D01*
X9242857Y-1095714D01*
X9214286Y-1081429D01*
X9200000Y-1067143D01*
X9185715Y-1038571D01*
X9185715Y-952857D01*
X9200000Y-924286D01*
X9214286Y-910000D01*
X9242857Y-895714D01*
X9300000Y-895714D01*
X9328572Y-910000D01*
X9442857Y-1210000D02*
X9457143Y-1195714D01*
X9485715Y-1152857D01*
X9500000Y-1124286D01*
X9514286Y-1081429D01*
X9528572Y-1010000D01*
X9528572Y-952857D01*
X9514286Y-881429D01*
X9500000Y-838571D01*
X9485715Y-810000D01*
X9457143Y-767143D01*
X9442857Y-752857D01*
X0Y-1356000D02*
G75*
G03X0Y-1356000I-35000J0D01*
G01*
X328571Y-1191714D02*
X357143Y-1191714D01*
X385714Y-1206000D01*
X400000Y-1220286D01*
X414286Y-1248857D01*
X428571Y-1306000D01*
X428571Y-1377429D01*
X414286Y-1434571D01*
X400000Y-1463143D01*
X385714Y-1477429D01*
X357143Y-1491714D01*
X328571Y-1491714D01*
X300000Y-1477429D01*
X285714Y-1463143D01*
X271429Y-1434571D01*
X257143Y-1377429D01*
X257143Y-1306000D01*
X271429Y-1248857D01*
X285714Y-1220286D01*
X300000Y-1206000D01*
X328571Y-1191714D01*
X557143Y-1463143D02*
X571429Y-1477429D01*
X557143Y-1491714D01*
X542857Y-1477429D01*
X557143Y-1463143D01*
X557143Y-1491714D01*
X671429Y-1191714D02*
X871428Y-1191714D01*
X742857Y-1491714D01*
X1042857Y-1191714D02*
X1071429Y-1191714D01*
X1100000Y-1206000D01*
X1114286Y-1220286D01*
X1128571Y-1248857D01*
X1142857Y-1306000D01*
X1142857Y-1377429D01*
X1128571Y-1434571D01*
X1114286Y-1463143D01*
X1100000Y-1477429D01*
X1071429Y-1491714D01*
X1042857Y-1491714D01*
X1014286Y-1477429D01*
X1000000Y-1463143D01*
X985714Y-1434571D01*
X971429Y-1377429D01*
X971429Y-1306000D01*
X985714Y-1248857D01*
X1000000Y-1220286D01*
X1014286Y-1206000D01*
X1042857Y-1191714D01*
X1271429Y-1491714D02*
X1271429Y-1291714D01*
X1271429Y-1320286D02*
X1285714Y-1306000D01*
X1314286Y-1291714D01*
X1357143Y-1291714D01*
X1385714Y-1306000D01*
X1400000Y-1334571D01*
X1400000Y-1491714D01*
X1400000Y-1334571D02*
X1414286Y-1306000D01*
X1442857Y-1291714D01*
X1485714Y-1291714D01*
X1514286Y-1306000D01*
X1528571Y-1334571D01*
X1528571Y-1491714D01*
X1671429Y-1491714D02*
X1671429Y-1291714D01*
X1671429Y-1320286D02*
X1685714Y-1306000D01*
X1714286Y-1291714D01*
X1757143Y-1291714D01*
X1785714Y-1306000D01*
X1800000Y-1334571D01*
X1800000Y-1491714D01*
X1800000Y-1334571D02*
X1814286Y-1306000D01*
X1842857Y-1291714D01*
X1885714Y-1291714D01*
X1914286Y-1306000D01*
X1928571Y-1334571D01*
X1928571Y-1491714D01*
X2514286Y-1177429D02*
X2257143Y-1563143D01*
X2900000Y-1191714D02*
X2928571Y-1191714D01*
X2957143Y-1206000D01*
X2971428Y-1220286D01*
X2985714Y-1248857D01*
X3000000Y-1306000D01*
X3000000Y-1377429D01*
X2985714Y-1434571D01*
X2971428Y-1463143D01*
X2957143Y-1477429D01*
X2928571Y-1491714D01*
X2900000Y-1491714D01*
X2871428Y-1477429D01*
X2857143Y-1463143D01*
X2842857Y-1434571D01*
X2828571Y-1377429D01*
X2828571Y-1306000D01*
X2842857Y-1248857D01*
X2857143Y-1220286D01*
X2871428Y-1206000D01*
X2900000Y-1191714D01*
X3128571Y-1463143D02*
X3142857Y-1477429D01*
X3128571Y-1491714D01*
X3114286Y-1477429D01*
X3128571Y-1463143D01*
X3128571Y-1491714D01*
X3328571Y-1191714D02*
X3357143Y-1191714D01*
X3385714Y-1206000D01*
X3400000Y-1220286D01*
X3414286Y-1248857D01*
X3428571Y-1306000D01*
X3428571Y-1377429D01*
X3414286Y-1434571D01*
X3400000Y-1463143D01*
X3385714Y-1477429D01*
X3357143Y-1491714D01*
X3328571Y-1491714D01*
X3300000Y-1477429D01*
X3285714Y-1463143D01*
X3271428Y-1434571D01*
X3257143Y-1377429D01*
X3257143Y-1306000D01*
X3271428Y-1248857D01*
X3285714Y-1220286D01*
X3300000Y-1206000D01*
X3328571Y-1191714D01*
X3542857Y-1220286D02*
X3557143Y-1206000D01*
X3585714Y-1191714D01*
X3657143Y-1191714D01*
X3685714Y-1206000D01*
X3700000Y-1220286D01*
X3714286Y-1248857D01*
X3714286Y-1277429D01*
X3700000Y-1320286D01*
X3528571Y-1491714D01*
X3714286Y-1491714D01*
X3885714Y-1320286D02*
X3857143Y-1306000D01*
X3842857Y-1291714D01*
X3828571Y-1263143D01*
X3828571Y-1248857D01*
X3842857Y-1220286D01*
X3857143Y-1206000D01*
X3885714Y-1191714D01*
X3942857Y-1191714D01*
X3971428Y-1206000D01*
X3985714Y-1220286D01*
X4000000Y-1248857D01*
X4000000Y-1263143D01*
X3985714Y-1291714D01*
X3971428Y-1306000D01*
X3942857Y-1320286D01*
X3885714Y-1320286D01*
X3857143Y-1334571D01*
X3842857Y-1348857D01*
X3828571Y-1377429D01*
X3828571Y-1434571D01*
X3842857Y-1463143D01*
X3857143Y-1477429D01*
X3885714Y-1491714D01*
X3942857Y-1491714D01*
X3971428Y-1477429D01*
X3985714Y-1463143D01*
X4000000Y-1434571D01*
X4000000Y-1377429D01*
X3985714Y-1348857D01*
X3971428Y-1334571D01*
X3942857Y-1320286D01*
X4114286Y-1191714D02*
X4114286Y-1248857D01*
X4228571Y-1191714D02*
X4228571Y-1248857D01*
X4671429Y-1606000D02*
X4657143Y-1591714D01*
X4628571Y-1548857D01*
X4614286Y-1520286D01*
X4600000Y-1477429D01*
X4585714Y-1406000D01*
X4585714Y-1348857D01*
X4600000Y-1277429D01*
X4614286Y-1234571D01*
X4628571Y-1206000D01*
X4657143Y-1163143D01*
X4671429Y-1148857D01*
X4914286Y-1191714D02*
X4857143Y-1191714D01*
X4828571Y-1206000D01*
X4814286Y-1220286D01*
X4785714Y-1263143D01*
X4771429Y-1320286D01*
X4771429Y-1434571D01*
X4785714Y-1463143D01*
X4800000Y-1477429D01*
X4828571Y-1491714D01*
X4885714Y-1491714D01*
X4914286Y-1477429D01*
X4928571Y-1463143D01*
X4942857Y-1434571D01*
X4942857Y-1363143D01*
X4928571Y-1334571D01*
X4914286Y-1320286D01*
X4885714Y-1306000D01*
X4828571Y-1306000D01*
X4800000Y-1320286D01*
X4785714Y-1334571D01*
X4771429Y-1363143D01*
X5300000Y-1491714D02*
X5300000Y-1191714D01*
X5428571Y-1491714D02*
X5428571Y-1334571D01*
X5414286Y-1306000D01*
X5385714Y-1291714D01*
X5342857Y-1291714D01*
X5314286Y-1306000D01*
X5300000Y-1320286D01*
X5614286Y-1491714D02*
X5585714Y-1477429D01*
X5571429Y-1463143D01*
X5557143Y-1434571D01*
X5557143Y-1348857D01*
X5571429Y-1320286D01*
X5585714Y-1306000D01*
X5614286Y-1291714D01*
X5657143Y-1291714D01*
X5685714Y-1306000D01*
X5700000Y-1320286D01*
X5714286Y-1348857D01*
X5714286Y-1434571D01*
X5700000Y-1463143D01*
X5685714Y-1477429D01*
X5657143Y-1491714D01*
X5614286Y-1491714D01*
X5885714Y-1491714D02*
X5857143Y-1477429D01*
X5842857Y-1448857D01*
X5842857Y-1191714D01*
X6114286Y-1477429D02*
X6085714Y-1491714D01*
X6028571Y-1491714D01*
X6000000Y-1477429D01*
X5985714Y-1448857D01*
X5985714Y-1334571D01*
X6000000Y-1306000D01*
X6028571Y-1291714D01*
X6085714Y-1291714D01*
X6114286Y-1306000D01*
X6128571Y-1334571D01*
X6128571Y-1363143D01*
X5985714Y-1391714D01*
X6242857Y-1477429D02*
X6271429Y-1491714D01*
X6328571Y-1491714D01*
X6357143Y-1477429D01*
X6371429Y-1448857D01*
X6371429Y-1434571D01*
X6357143Y-1406000D01*
X6328571Y-1391714D01*
X6285714Y-1391714D01*
X6257143Y-1377429D01*
X6242857Y-1348857D01*
X6242857Y-1334571D01*
X6257143Y-1306000D01*
X6285714Y-1291714D01*
X6328571Y-1291714D01*
X6357143Y-1306000D01*
X6471428Y-1606000D02*
X6485714Y-1591714D01*
X6514286Y-1548857D01*
X6528571Y-1520286D01*
X6542857Y-1477429D01*
X6557143Y-1406000D01*
X6557143Y-1348857D01*
X6542857Y-1277429D01*
X6528571Y-1234571D01*
X6514286Y-1206000D01*
X6485714Y-1163143D01*
X6471428Y-1148857D01*
X7014286Y-1606000D02*
X7000000Y-1591714D01*
X6971428Y-1548857D01*
X6957143Y-1520286D01*
X6942857Y-1477429D01*
X6928571Y-1406000D01*
X6928571Y-1348857D01*
X6942857Y-1277429D01*
X6957143Y-1234571D01*
X6971428Y-1206000D01*
X7000000Y-1163143D01*
X7014286Y-1148857D01*
X7128571Y-1291714D02*
X7128571Y-1491714D01*
X7128571Y-1320286D02*
X7142857Y-1306000D01*
X7171428Y-1291714D01*
X7214286Y-1291714D01*
X7242857Y-1306000D01*
X7257143Y-1334571D01*
X7257143Y-1491714D01*
X7442857Y-1491714D02*
X7414286Y-1477429D01*
X7400000Y-1463143D01*
X7385714Y-1434571D01*
X7385714Y-1348857D01*
X7400000Y-1320286D01*
X7414286Y-1306000D01*
X7442857Y-1291714D01*
X7485714Y-1291714D01*
X7514286Y-1306000D01*
X7528571Y-1320286D01*
X7542857Y-1348857D01*
X7542857Y-1434571D01*
X7528571Y-1463143D01*
X7514286Y-1477429D01*
X7485714Y-1491714D01*
X7442857Y-1491714D01*
X7628571Y-1291714D02*
X7742857Y-1291714D01*
X7671429Y-1191714D02*
X7671429Y-1448857D01*
X7685714Y-1477429D01*
X7714286Y-1491714D01*
X7742857Y-1491714D01*
X8071429Y-1291714D02*
X8071429Y-1591714D01*
X8071429Y-1306000D02*
X8100000Y-1291714D01*
X8157143Y-1291714D01*
X8185714Y-1306000D01*
X8200000Y-1320286D01*
X8214286Y-1348857D01*
X8214286Y-1434571D01*
X8200000Y-1463143D01*
X8185714Y-1477429D01*
X8157143Y-1491714D01*
X8100000Y-1491714D01*
X8071429Y-1477429D01*
X8385714Y-1491714D02*
X8357143Y-1477429D01*
X8342857Y-1448857D01*
X8342857Y-1191714D01*
X8628572Y-1491714D02*
X8628572Y-1334571D01*
X8614286Y-1306000D01*
X8585714Y-1291714D01*
X8528572Y-1291714D01*
X8500000Y-1306000D01*
X8628572Y-1477429D02*
X8600000Y-1491714D01*
X8528572Y-1491714D01*
X8500000Y-1477429D01*
X8485714Y-1448857D01*
X8485714Y-1420286D01*
X8500000Y-1391714D01*
X8528572Y-1377429D01*
X8600000Y-1377429D01*
X8628572Y-1363143D01*
X8728572Y-1291714D02*
X8842857Y-1291714D01*
X8771429Y-1191714D02*
X8771429Y-1448857D01*
X8785714Y-1477429D01*
X8814286Y-1491714D01*
X8842857Y-1491714D01*
X9057143Y-1477429D02*
X9028572Y-1491714D01*
X8971429Y-1491714D01*
X8942857Y-1477429D01*
X8928572Y-1448857D01*
X8928572Y-1334571D01*
X8942857Y-1306000D01*
X8971429Y-1291714D01*
X9028572Y-1291714D01*
X9057143Y-1306000D01*
X9071429Y-1334571D01*
X9071429Y-1363143D01*
X8928572Y-1391714D01*
X9328572Y-1491714D02*
X9328572Y-1191714D01*
X9328572Y-1477429D02*
X9300000Y-1491714D01*
X9242857Y-1491714D01*
X9214286Y-1477429D01*
X9200000Y-1463143D01*
X9185715Y-1434571D01*
X9185715Y-1348857D01*
X9200000Y-1320286D01*
X9214286Y-1306000D01*
X9242857Y-1291714D01*
X9300000Y-1291714D01*
X9328572Y-1306000D01*
X9442857Y-1606000D02*
X9457143Y-1591714D01*
X9485715Y-1548857D01*
X9500000Y-1520286D01*
X9514286Y-1477429D01*
X9528572Y-1406000D01*
X9528572Y-1348857D01*
X9514286Y-1277429D01*
X9500000Y-1234571D01*
X9485715Y-1206000D01*
X9457143Y-1163143D01*
X9442857Y-1148857D01*
X-50000Y-1702000D02*
X-50000Y-1802000D01*
X-100000Y-1752000D02*
X0Y-1752000D01*
X428571Y-1887714D02*
X257143Y-1887714D01*
X342857Y-1887714D02*
X342857Y-1587714D01*
X314286Y-1630571D01*
X285714Y-1659143D01*
X257143Y-1673429D01*
X557143Y-1859143D02*
X571429Y-1873429D01*
X557143Y-1887714D01*
X542857Y-1873429D01*
X557143Y-1859143D01*
X557143Y-1887714D01*
X757143Y-1587714D02*
X785714Y-1587714D01*
X814286Y-1602000D01*
X828571Y-1616286D01*
X842857Y-1644857D01*
X857143Y-1702000D01*
X857143Y-1773429D01*
X842857Y-1830571D01*
X828571Y-1859143D01*
X814286Y-1873429D01*
X785714Y-1887714D01*
X757143Y-1887714D01*
X728571Y-1873429D01*
X714286Y-1859143D01*
X700000Y-1830571D01*
X685714Y-1773429D01*
X685714Y-1702000D01*
X700000Y-1644857D01*
X714286Y-1616286D01*
X728571Y-1602000D01*
X757143Y-1587714D01*
X1042857Y-1587714D02*
X1071429Y-1587714D01*
X1100000Y-1602000D01*
X1114286Y-1616286D01*
X1128571Y-1644857D01*
X1142857Y-1702000D01*
X1142857Y-1773429D01*
X1128571Y-1830571D01*
X1114286Y-1859143D01*
X1100000Y-1873429D01*
X1071429Y-1887714D01*
X1042857Y-1887714D01*
X1014286Y-1873429D01*
X1000000Y-1859143D01*
X985714Y-1830571D01*
X971429Y-1773429D01*
X971429Y-1702000D01*
X985714Y-1644857D01*
X1000000Y-1616286D01*
X1014286Y-1602000D01*
X1042857Y-1587714D01*
X1271429Y-1887714D02*
X1271429Y-1687714D01*
X1271429Y-1716286D02*
X1285714Y-1702000D01*
X1314286Y-1687714D01*
X1357143Y-1687714D01*
X1385714Y-1702000D01*
X1400000Y-1730571D01*
X1400000Y-1887714D01*
X1400000Y-1730571D02*
X1414286Y-1702000D01*
X1442857Y-1687714D01*
X1485714Y-1687714D01*
X1514286Y-1702000D01*
X1528571Y-1730571D01*
X1528571Y-1887714D01*
X1671429Y-1887714D02*
X1671429Y-1687714D01*
X1671429Y-1716286D02*
X1685714Y-1702000D01*
X1714286Y-1687714D01*
X1757143Y-1687714D01*
X1785714Y-1702000D01*
X1800000Y-1730571D01*
X1800000Y-1887714D01*
X1800000Y-1730571D02*
X1814286Y-1702000D01*
X1842857Y-1687714D01*
X1885714Y-1687714D01*
X1914286Y-1702000D01*
X1928571Y-1730571D01*
X1928571Y-1887714D01*
X2514286Y-1573429D02*
X2257143Y-1959143D01*
X2900000Y-1587714D02*
X2928571Y-1587714D01*
X2957143Y-1602000D01*
X2971428Y-1616286D01*
X2985714Y-1644857D01*
X3000000Y-1702000D01*
X3000000Y-1773429D01*
X2985714Y-1830571D01*
X2971428Y-1859143D01*
X2957143Y-1873429D01*
X2928571Y-1887714D01*
X2900000Y-1887714D01*
X2871428Y-1873429D01*
X2857143Y-1859143D01*
X2842857Y-1830571D01*
X2828571Y-1773429D01*
X2828571Y-1702000D01*
X2842857Y-1644857D01*
X2857143Y-1616286D01*
X2871428Y-1602000D01*
X2900000Y-1587714D01*
X3128571Y-1859143D02*
X3142857Y-1873429D01*
X3128571Y-1887714D01*
X3114286Y-1873429D01*
X3128571Y-1859143D01*
X3128571Y-1887714D01*
X3328571Y-1587714D02*
X3357143Y-1587714D01*
X3385714Y-1602000D01*
X3400000Y-1616286D01*
X3414286Y-1644857D01*
X3428571Y-1702000D01*
X3428571Y-1773429D01*
X3414286Y-1830571D01*
X3400000Y-1859143D01*
X3385714Y-1873429D01*
X3357143Y-1887714D01*
X3328571Y-1887714D01*
X3300000Y-1873429D01*
X3285714Y-1859143D01*
X3271428Y-1830571D01*
X3257143Y-1773429D01*
X3257143Y-1702000D01*
X3271428Y-1644857D01*
X3285714Y-1616286D01*
X3300000Y-1602000D01*
X3328571Y-1587714D01*
X3528571Y-1587714D02*
X3714286Y-1587714D01*
X3614286Y-1702000D01*
X3657143Y-1702000D01*
X3685714Y-1716286D01*
X3700000Y-1730571D01*
X3714286Y-1759143D01*
X3714286Y-1830571D01*
X3700000Y-1859143D01*
X3685714Y-1873429D01*
X3657143Y-1887714D01*
X3571428Y-1887714D01*
X3542857Y-1873429D01*
X3528571Y-1859143D01*
X3857143Y-1887714D02*
X3914286Y-1887714D01*
X3942857Y-1873429D01*
X3957143Y-1859143D01*
X3985714Y-1816286D01*
X4000000Y-1759143D01*
X4000000Y-1644857D01*
X3985714Y-1616286D01*
X3971428Y-1602000D01*
X3942857Y-1587714D01*
X3885714Y-1587714D01*
X3857143Y-1602000D01*
X3842857Y-1616286D01*
X3828571Y-1644857D01*
X3828571Y-1716286D01*
X3842857Y-1744857D01*
X3857143Y-1759143D01*
X3885714Y-1773429D01*
X3942857Y-1773429D01*
X3971428Y-1759143D01*
X3985714Y-1744857D01*
X4000000Y-1716286D01*
X4114286Y-1587714D02*
X4114286Y-1644857D01*
X4228571Y-1587714D02*
X4228571Y-1644857D01*
X4671429Y-2002000D02*
X4657143Y-1987714D01*
X4628571Y-1944857D01*
X4614286Y-1916286D01*
X4600000Y-1873429D01*
X4585714Y-1802000D01*
X4585714Y-1744857D01*
X4600000Y-1673429D01*
X4614286Y-1630571D01*
X4628571Y-1602000D01*
X4657143Y-1559143D01*
X4671429Y-1544857D01*
X4914286Y-1687714D02*
X4914286Y-1887714D01*
X4842857Y-1573429D02*
X4771429Y-1787714D01*
X4957143Y-1787714D01*
X5300000Y-1887714D02*
X5300000Y-1587714D01*
X5428571Y-1887714D02*
X5428571Y-1730571D01*
X5414286Y-1702000D01*
X5385714Y-1687714D01*
X5342857Y-1687714D01*
X5314286Y-1702000D01*
X5300000Y-1716286D01*
X5614286Y-1887714D02*
X5585714Y-1873429D01*
X5571429Y-1859143D01*
X5557143Y-1830571D01*
X5557143Y-1744857D01*
X5571429Y-1716286D01*
X5585714Y-1702000D01*
X5614286Y-1687714D01*
X5657143Y-1687714D01*
X5685714Y-1702000D01*
X5700000Y-1716286D01*
X5714286Y-1744857D01*
X5714286Y-1830571D01*
X5700000Y-1859143D01*
X5685714Y-1873429D01*
X5657143Y-1887714D01*
X5614286Y-1887714D01*
X5885714Y-1887714D02*
X5857143Y-1873429D01*
X5842857Y-1844857D01*
X5842857Y-1587714D01*
X6114286Y-1873429D02*
X6085714Y-1887714D01*
X6028571Y-1887714D01*
X6000000Y-1873429D01*
X5985714Y-1844857D01*
X5985714Y-1730571D01*
X6000000Y-1702000D01*
X6028571Y-1687714D01*
X6085714Y-1687714D01*
X6114286Y-1702000D01*
X6128571Y-1730571D01*
X6128571Y-1759143D01*
X5985714Y-1787714D01*
X6242857Y-1873429D02*
X6271429Y-1887714D01*
X6328571Y-1887714D01*
X6357143Y-1873429D01*
X6371429Y-1844857D01*
X6371429Y-1830571D01*
X6357143Y-1802000D01*
X6328571Y-1787714D01*
X6285714Y-1787714D01*
X6257143Y-1773429D01*
X6242857Y-1744857D01*
X6242857Y-1730571D01*
X6257143Y-1702000D01*
X6285714Y-1687714D01*
X6328571Y-1687714D01*
X6357143Y-1702000D01*
X6471428Y-2002000D02*
X6485714Y-1987714D01*
X6514286Y-1944857D01*
X6528571Y-1916286D01*
X6542857Y-1873429D01*
X6557143Y-1802000D01*
X6557143Y-1744857D01*
X6542857Y-1673429D01*
X6528571Y-1630571D01*
X6514286Y-1602000D01*
X6485714Y-1559143D01*
X6471428Y-1544857D01*
X7014286Y-2002000D02*
X7000000Y-1987714D01*
X6971428Y-1944857D01*
X6957143Y-1916286D01*
X6942857Y-1873429D01*
X6928571Y-1802000D01*
X6928571Y-1744857D01*
X6942857Y-1673429D01*
X6957143Y-1630571D01*
X6971428Y-1602000D01*
X7000000Y-1559143D01*
X7014286Y-1544857D01*
X7128571Y-1687714D02*
X7128571Y-1887714D01*
X7128571Y-1716286D02*
X7142857Y-1702000D01*
X7171428Y-1687714D01*
X7214286Y-1687714D01*
X7242857Y-1702000D01*
X7257143Y-1730571D01*
X7257143Y-1887714D01*
X7442857Y-1887714D02*
X7414286Y-1873429D01*
X7400000Y-1859143D01*
X7385714Y-1830571D01*
X7385714Y-1744857D01*
X7400000Y-1716286D01*
X7414286Y-1702000D01*
X7442857Y-1687714D01*
X7485714Y-1687714D01*
X7514286Y-1702000D01*
X7528571Y-1716286D01*
X7542857Y-1744857D01*
X7542857Y-1830571D01*
X7528571Y-1859143D01*
X7514286Y-1873429D01*
X7485714Y-1887714D01*
X7442857Y-1887714D01*
X7628571Y-1687714D02*
X7742857Y-1687714D01*
X7671429Y-1587714D02*
X7671429Y-1844857D01*
X7685714Y-1873429D01*
X7714286Y-1887714D01*
X7742857Y-1887714D01*
X8071429Y-1687714D02*
X8071429Y-1987714D01*
X8071429Y-1702000D02*
X8100000Y-1687714D01*
X8157143Y-1687714D01*
X8185714Y-1702000D01*
X8200000Y-1716286D01*
X8214286Y-1744857D01*
X8214286Y-1830571D01*
X8200000Y-1859143D01*
X8185714Y-1873429D01*
X8157143Y-1887714D01*
X8100000Y-1887714D01*
X8071429Y-1873429D01*
X8385714Y-1887714D02*
X8357143Y-1873429D01*
X8342857Y-1844857D01*
X8342857Y-1587714D01*
X8628572Y-1887714D02*
X8628572Y-1730571D01*
X8614286Y-1702000D01*
X8585714Y-1687714D01*
X8528572Y-1687714D01*
X8500000Y-1702000D01*
X8628572Y-1873429D02*
X8600000Y-1887714D01*
X8528572Y-1887714D01*
X8500000Y-1873429D01*
X8485714Y-1844857D01*
X8485714Y-1816286D01*
X8500000Y-1787714D01*
X8528572Y-1773429D01*
X8600000Y-1773429D01*
X8628572Y-1759143D01*
X8728572Y-1687714D02*
X8842857Y-1687714D01*
X8771429Y-1587714D02*
X8771429Y-1844857D01*
X8785714Y-1873429D01*
X8814286Y-1887714D01*
X8842857Y-1887714D01*
X9057143Y-1873429D02*
X9028572Y-1887714D01*
X8971429Y-1887714D01*
X8942857Y-1873429D01*
X8928572Y-1844857D01*
X8928572Y-1730571D01*
X8942857Y-1702000D01*
X8971429Y-1687714D01*
X9028572Y-1687714D01*
X9057143Y-1702000D01*
X9071429Y-1730571D01*
X9071429Y-1759143D01*
X8928572Y-1787714D01*
X9328572Y-1887714D02*
X9328572Y-1587714D01*
X9328572Y-1873429D02*
X9300000Y-1887714D01*
X9242857Y-1887714D01*
X9214286Y-1873429D01*
X9200000Y-1859143D01*
X9185715Y-1830571D01*
X9185715Y-1744857D01*
X9200000Y-1716286D01*
X9214286Y-1702000D01*
X9242857Y-1687714D01*
X9300000Y-1687714D01*
X9328572Y-1702000D01*
X9442857Y-2002000D02*
X9457143Y-1987714D01*
X9485715Y-1944857D01*
X9500000Y-1916286D01*
X9514286Y-1873429D01*
X9528572Y-1802000D01*
X9528572Y-1744857D01*
X9514286Y-1673429D01*
X9500000Y-1630571D01*
X9485715Y-1602000D01*
X9457143Y-1559143D01*
X9442857Y-1544857D01*
X-33682Y-2229318D02*
X-33682Y-2066682D01*
X-196318Y-2066682D01*
X-196318Y-2229318D01*
X-33682Y-2229318D01*
X257143Y-2012286D02*
X271429Y-1998000D01*
X300000Y-1983714D01*
X371429Y-1983714D01*
X400000Y-1998000D01*
X414286Y-2012286D01*
X428571Y-2040857D01*
X428571Y-2069429D01*
X414286Y-2112286D01*
X242857Y-2283714D01*
X428571Y-2283714D01*
X557143Y-2255143D02*
X571429Y-2269429D01*
X557143Y-2283714D01*
X542857Y-2269429D01*
X557143Y-2255143D01*
X557143Y-2283714D01*
X671429Y-1983714D02*
X857143Y-1983714D01*
X757143Y-2098000D01*
X800000Y-2098000D01*
X828571Y-2112286D01*
X842857Y-2126571D01*
X857143Y-2155143D01*
X857143Y-2226571D01*
X842857Y-2255143D01*
X828571Y-2269429D01*
X800000Y-2283714D01*
X714286Y-2283714D01*
X685714Y-2269429D01*
X671429Y-2255143D01*
X1042857Y-1983714D02*
X1071429Y-1983714D01*
X1100000Y-1998000D01*
X1114286Y-2012286D01*
X1128571Y-2040857D01*
X1142857Y-2098000D01*
X1142857Y-2169429D01*
X1128571Y-2226571D01*
X1114286Y-2255143D01*
X1100000Y-2269429D01*
X1071429Y-2283714D01*
X1042857Y-2283714D01*
X1014286Y-2269429D01*
X1000000Y-2255143D01*
X985714Y-2226571D01*
X971429Y-2169429D01*
X971429Y-2098000D01*
X985714Y-2040857D01*
X1000000Y-2012286D01*
X1014286Y-1998000D01*
X1042857Y-1983714D01*
X1271429Y-2283714D02*
X1271429Y-2083714D01*
X1271429Y-2112286D02*
X1285714Y-2098000D01*
X1314286Y-2083714D01*
X1357143Y-2083714D01*
X1385714Y-2098000D01*
X1400000Y-2126571D01*
X1400000Y-2283714D01*
X1400000Y-2126571D02*
X1414286Y-2098000D01*
X1442857Y-2083714D01*
X1485714Y-2083714D01*
X1514286Y-2098000D01*
X1528571Y-2126571D01*
X1528571Y-2283714D01*
X1671429Y-2283714D02*
X1671429Y-2083714D01*
X1671429Y-2112286D02*
X1685714Y-2098000D01*
X1714286Y-2083714D01*
X1757143Y-2083714D01*
X1785714Y-2098000D01*
X1800000Y-2126571D01*
X1800000Y-2283714D01*
X1800000Y-2126571D02*
X1814286Y-2098000D01*
X1842857Y-2083714D01*
X1885714Y-2083714D01*
X1914286Y-2098000D01*
X1928571Y-2126571D01*
X1928571Y-2283714D01*
X2514286Y-1969429D02*
X2257143Y-2355143D01*
X2900000Y-1983714D02*
X2928571Y-1983714D01*
X2957143Y-1998000D01*
X2971428Y-2012286D01*
X2985714Y-2040857D01*
X3000000Y-2098000D01*
X3000000Y-2169429D01*
X2985714Y-2226571D01*
X2971428Y-2255143D01*
X2957143Y-2269429D01*
X2928571Y-2283714D01*
X2900000Y-2283714D01*
X2871428Y-2269429D01*
X2857143Y-2255143D01*
X2842857Y-2226571D01*
X2828571Y-2169429D01*
X2828571Y-2098000D01*
X2842857Y-2040857D01*
X2857143Y-2012286D01*
X2871428Y-1998000D01*
X2900000Y-1983714D01*
X3128571Y-2255143D02*
X3142857Y-2269429D01*
X3128571Y-2283714D01*
X3114286Y-2269429D01*
X3128571Y-2255143D01*
X3128571Y-2283714D01*
X3328571Y-1983714D02*
X3357143Y-1983714D01*
X3385714Y-1998000D01*
X3400000Y-2012286D01*
X3414286Y-2040857D01*
X3428571Y-2098000D01*
X3428571Y-2169429D01*
X3414286Y-2226571D01*
X3400000Y-2255143D01*
X3385714Y-2269429D01*
X3357143Y-2283714D01*
X3328571Y-2283714D01*
X3300000Y-2269429D01*
X3285714Y-2255143D01*
X3271428Y-2226571D01*
X3257143Y-2169429D01*
X3257143Y-2098000D01*
X3271428Y-2040857D01*
X3285714Y-2012286D01*
X3300000Y-1998000D01*
X3328571Y-1983714D01*
X3571428Y-2283714D02*
X3628571Y-2283714D01*
X3657143Y-2269429D01*
X3671428Y-2255143D01*
X3700000Y-2212286D01*
X3714286Y-2155143D01*
X3714286Y-2040857D01*
X3700000Y-2012286D01*
X3685714Y-1998000D01*
X3657143Y-1983714D01*
X3600000Y-1983714D01*
X3571428Y-1998000D01*
X3557143Y-2012286D01*
X3542857Y-2040857D01*
X3542857Y-2112286D01*
X3557143Y-2140857D01*
X3571428Y-2155143D01*
X3600000Y-2169429D01*
X3657143Y-2169429D01*
X3685714Y-2155143D01*
X3700000Y-2140857D01*
X3714286Y-2112286D01*
X4000000Y-2283714D02*
X3828571Y-2283714D01*
X3914286Y-2283714D02*
X3914286Y-1983714D01*
X3885714Y-2026571D01*
X3857143Y-2055143D01*
X3828571Y-2069429D01*
X4114286Y-1983714D02*
X4114286Y-2040857D01*
X4228571Y-1983714D02*
X4228571Y-2040857D01*
X4671429Y-2398000D02*
X4657143Y-2383714D01*
X4628571Y-2340857D01*
X4614286Y-2312286D01*
X4600000Y-2269429D01*
X4585714Y-2198000D01*
X4585714Y-2140857D01*
X4600000Y-2069429D01*
X4614286Y-2026571D01*
X4628571Y-1998000D01*
X4657143Y-1955143D01*
X4671429Y-1940857D01*
X4914286Y-1983714D02*
X4857143Y-1983714D01*
X4828571Y-1998000D01*
X4814286Y-2012286D01*
X4785714Y-2055143D01*
X4771429Y-2112286D01*
X4771429Y-2226571D01*
X4785714Y-2255143D01*
X4800000Y-2269429D01*
X4828571Y-2283714D01*
X4885714Y-2283714D01*
X4914286Y-2269429D01*
X4928571Y-2255143D01*
X4942857Y-2226571D01*
X4942857Y-2155143D01*
X4928571Y-2126571D01*
X4914286Y-2112286D01*
X4885714Y-2098000D01*
X4828571Y-2098000D01*
X4800000Y-2112286D01*
X4785714Y-2126571D01*
X4771429Y-2155143D01*
X5300000Y-2283714D02*
X5300000Y-1983714D01*
X5428571Y-2283714D02*
X5428571Y-2126571D01*
X5414286Y-2098000D01*
X5385714Y-2083714D01*
X5342857Y-2083714D01*
X5314286Y-2098000D01*
X5300000Y-2112286D01*
X5614286Y-2283714D02*
X5585714Y-2269429D01*
X5571429Y-2255143D01*
X5557143Y-2226571D01*
X5557143Y-2140857D01*
X5571429Y-2112286D01*
X5585714Y-2098000D01*
X5614286Y-2083714D01*
X5657143Y-2083714D01*
X5685714Y-2098000D01*
X5700000Y-2112286D01*
X5714286Y-2140857D01*
X5714286Y-2226571D01*
X5700000Y-2255143D01*
X5685714Y-2269429D01*
X5657143Y-2283714D01*
X5614286Y-2283714D01*
X5885714Y-2283714D02*
X5857143Y-2269429D01*
X5842857Y-2240857D01*
X5842857Y-1983714D01*
X6114286Y-2269429D02*
X6085714Y-2283714D01*
X6028571Y-2283714D01*
X6000000Y-2269429D01*
X5985714Y-2240857D01*
X5985714Y-2126571D01*
X6000000Y-2098000D01*
X6028571Y-2083714D01*
X6085714Y-2083714D01*
X6114286Y-2098000D01*
X6128571Y-2126571D01*
X6128571Y-2155143D01*
X5985714Y-2183714D01*
X6242857Y-2269429D02*
X6271429Y-2283714D01*
X6328571Y-2283714D01*
X6357143Y-2269429D01*
X6371429Y-2240857D01*
X6371429Y-2226571D01*
X6357143Y-2198000D01*
X6328571Y-2183714D01*
X6285714Y-2183714D01*
X6257143Y-2169429D01*
X6242857Y-2140857D01*
X6242857Y-2126571D01*
X6257143Y-2098000D01*
X6285714Y-2083714D01*
X6328571Y-2083714D01*
X6357143Y-2098000D01*
X6471428Y-2398000D02*
X6485714Y-2383714D01*
X6514286Y-2340857D01*
X6528571Y-2312286D01*
X6542857Y-2269429D01*
X6557143Y-2198000D01*
X6557143Y-2140857D01*
X6542857Y-2069429D01*
X6528571Y-2026571D01*
X6514286Y-1998000D01*
X6485714Y-1955143D01*
X6471428Y-1940857D01*
X7014286Y-2398000D02*
X7000000Y-2383714D01*
X6971428Y-2340857D01*
X6957143Y-2312286D01*
X6942857Y-2269429D01*
X6928571Y-2198000D01*
X6928571Y-2140857D01*
X6942857Y-2069429D01*
X6957143Y-2026571D01*
X6971428Y-1998000D01*
X7000000Y-1955143D01*
X7014286Y-1940857D01*
X7128571Y-2083714D02*
X7128571Y-2283714D01*
X7128571Y-2112286D02*
X7142857Y-2098000D01*
X7171428Y-2083714D01*
X7214286Y-2083714D01*
X7242857Y-2098000D01*
X7257143Y-2126571D01*
X7257143Y-2283714D01*
X7442857Y-2283714D02*
X7414286Y-2269429D01*
X7400000Y-2255143D01*
X7385714Y-2226571D01*
X7385714Y-2140857D01*
X7400000Y-2112286D01*
X7414286Y-2098000D01*
X7442857Y-2083714D01*
X7485714Y-2083714D01*
X7514286Y-2098000D01*
X7528571Y-2112286D01*
X7542857Y-2140857D01*
X7542857Y-2226571D01*
X7528571Y-2255143D01*
X7514286Y-2269429D01*
X7485714Y-2283714D01*
X7442857Y-2283714D01*
X7628571Y-2083714D02*
X7742857Y-2083714D01*
X7671429Y-1983714D02*
X7671429Y-2240857D01*
X7685714Y-2269429D01*
X7714286Y-2283714D01*
X7742857Y-2283714D01*
X8071429Y-2083714D02*
X8071429Y-2383714D01*
X8071429Y-2098000D02*
X8100000Y-2083714D01*
X8157143Y-2083714D01*
X8185714Y-2098000D01*
X8200000Y-2112286D01*
X8214286Y-2140857D01*
X8214286Y-2226571D01*
X8200000Y-2255143D01*
X8185714Y-2269429D01*
X8157143Y-2283714D01*
X8100000Y-2283714D01*
X8071429Y-2269429D01*
X8385714Y-2283714D02*
X8357143Y-2269429D01*
X8342857Y-2240857D01*
X8342857Y-1983714D01*
X8628572Y-2283714D02*
X8628572Y-2126571D01*
X8614286Y-2098000D01*
X8585714Y-2083714D01*
X8528572Y-2083714D01*
X8500000Y-2098000D01*
X8628572Y-2269429D02*
X8600000Y-2283714D01*
X8528572Y-2283714D01*
X8500000Y-2269429D01*
X8485714Y-2240857D01*
X8485714Y-2212286D01*
X8500000Y-2183714D01*
X8528572Y-2169429D01*
X8600000Y-2169429D01*
X8628572Y-2155143D01*
X8728572Y-2083714D02*
X8842857Y-2083714D01*
X8771429Y-1983714D02*
X8771429Y-2240857D01*
X8785714Y-2269429D01*
X8814286Y-2283714D01*
X8842857Y-2283714D01*
X9057143Y-2269429D02*
X9028572Y-2283714D01*
X8971429Y-2283714D01*
X8942857Y-2269429D01*
X8928572Y-2240857D01*
X8928572Y-2126571D01*
X8942857Y-2098000D01*
X8971429Y-2083714D01*
X9028572Y-2083714D01*
X9057143Y-2098000D01*
X9071429Y-2126571D01*
X9071429Y-2155143D01*
X8928572Y-2183714D01*
X9328572Y-2283714D02*
X9328572Y-1983714D01*
X9328572Y-2269429D02*
X9300000Y-2283714D01*
X9242857Y-2283714D01*
X9214286Y-2269429D01*
X9200000Y-2255143D01*
X9185715Y-2226571D01*
X9185715Y-2140857D01*
X9200000Y-2112286D01*
X9214286Y-2098000D01*
X9242857Y-2083714D01*
X9300000Y-2083714D01*
X9328572Y-2098000D01*
X9442857Y-2398000D02*
X9457143Y-2383714D01*
X9485715Y-2340857D01*
X9500000Y-2312286D01*
X9514286Y-2269429D01*
X9528572Y-2198000D01*
X9528572Y-2140857D01*
X9514286Y-2069429D01*
X9500000Y-2026571D01*
X9485715Y-1998000D01*
X9457143Y-1955143D01*
X9442857Y-1940857D01*
M02*
