M48
;DRILL file {KiCad 4.0.6} date 01/10/18 21:06:54
;FORMAT={-:-/ absolute / metric / decimal}
FMAT,2
METRIC,TZ
T1C0.400
T2C0.500
T3C0.700
T4C0.800
T5C1.000
T6C1.001
T7C1.016
%
G90
G05
M71
T1
X26.035Y-166.624
X27.305Y-98.552
X30.124Y-29.769
X31.267Y-84.455
X33.452Y-73.685
X33.452Y-76.225
X33.452Y-78.664
X33.452Y-81.407
X33.503Y-71.196
X33.604Y-68.555
X39.37Y-165.227
X42.164Y-96.012
X42.189Y-87.782
X42.418Y-84.074
X43.078Y-55.524
X44.45Y-122.174
X44.577Y-117.094
X44.679Y-96.063
X44.704Y-86.233
X44.958Y-82.296
X47.244Y-96.012
X48.235Y-76.022
X49.911Y-96.139
X50.114Y-29.87
X50.165Y-146.939
X52.324Y-96.139
X52.451Y-82.804
X55.88Y-159.512
X56.515Y-57.15
X56.769Y-82.474
X58.268Y-20.041
X61.404Y-85.598
X66.599Y-91.008
X68.072Y-48.895
X68.174Y-20.117
X68.199Y-58.166
X70.231Y-19.253
X74.803Y-23.241
X75.057Y-25.781
X79.375Y-54.61
X79.502Y-52.07
X84.347Y-129.573
X84.855Y-158.275
X84.855Y-164.371
X85.471Y-29.312
X85.744Y-133.637
X85.871Y-137.32
X86.125Y-147.734
X86.76Y-167.927
X87.655Y-55.829
X88.03Y-177.96
X89.027Y-75.438
X89.046Y-155.862
X90.57Y-129.573
X91.205Y-152.814
X91.967Y-173.007
X91.967Y-183.167
X92.989Y-47.219
X93.345Y-70.993
X93.491Y-133.51
X93.491Y-137.193
X93.491Y-143.162
X94.253Y-158.021
X94.634Y-147.734
X94.888Y-167.673
X95.015Y-164.371
X95.142Y-177.96
X95.453Y-43.485
X95.631Y-66.421
X96.19Y-46.101
X98.571Y-152.687
X99.46Y-147.734
X99.841Y-183.167
X99.968Y-142.527
X99.968Y-172.88
X100.476Y-157.767
X100.603Y-177.96
X100.99Y-25.781
X101.238Y-149.004
X101.873Y-179.611
X102.108Y-23.876
X102.635Y-159.164
X103.251Y-26.492
X107.061Y-25.527
X110.236Y-81.915
X112.287Y-156.751
X115.208Y-185.453
X115.716Y-147.861
X116.351Y-177.96
X116.605Y-144.178
X117.367Y-174.658
X117.748Y-149.258
X117.748Y-183.04
X117.875Y-152.814
X118.002Y-179.23
X120.669Y-156.751
X122.447Y-147.48
X123.336Y-177.071
X123.463Y-174.15
X123.971Y-179.23
X125.368Y-175.547
X130.956Y-184.437
X132.099Y-160.434
X132.099Y-167.673
X135.528Y-162.974
X137.941Y-165.514
X142.621Y-46.736
X143.402Y-172.372
X144.78Y-21.844
X145.415Y-86.36
X147.085Y-137.955
X147.085Y-145.194
X151.403Y-137.574
X151.403Y-145.194
X157.499Y-169.705
X158.623Y-86.36
X159.258Y-173.228
X162.306Y-46.99
X162.369Y-54.292
X162.833Y-161.196
X163.322Y-81.407
X166.008Y-163.228
X167.278Y-141.511
X168.04Y-114.714
X171.088Y-176.563
X171.151Y-167.101
X171.723Y-135.034
X172.104Y-125.001
X173.736Y-74.803
X173.736Y-77.343
X173.755Y-131.859
X174.581Y-176.499
X174.644Y-138.209
X174.834Y-167.482
X175.641Y-83.947
X176.911Y-73.025
X177.12Y-167.482
X177.165Y-86.36
X177.438Y-119.921
X177.501Y-176.499
X177.565Y-146.464
X177.946Y-117.127
X179.787Y-167.356
X180.168Y-156.688
X180.168Y-176.499
X180.232Y-142.654
X181.756Y-121.064
X182.454Y-167.356
X182.645Y-118.905
X182.708Y-176.499
X183.769Y-23.241
X184.804Y-142.527
X185.039Y-52.832
X185.121Y-176.499
X185.185Y-119.667
X185.248Y-167.356
X185.42Y-25.4
X187.217Y-129.065
X187.661Y-176.499
X187.915Y-167.356
X190.201Y-176.499
X190.456Y-167.356
X191.281Y-150.528
X192.868Y-176.499
X192.995Y-167.356
X195.58Y-58.166
X195.599Y-145.194
X196.361Y-154.592
X198.12Y-52.832
X200.044Y-160.18
X200.425Y-182.532
X200.679Y-142.019
X200.806Y-126.779
X203.092Y-166.53
X203.473Y-142.019
X203.6Y-132.494
X203.6Y-148.496
X203.727Y-136.177
X206.013Y-172.372
X224.155Y-39.624
X224.536Y-29.464
X226.187Y-26.035
X229.87Y-34.671
X233.299Y-29.337
X233.553Y-26.035
X233.68Y-39.624
X236.728Y-178.943
X238.252Y-44.831
X238.252Y-49.53
X238.379Y-34.544
X238.887Y-39.624
X240.284Y-41.275
X240.919Y-74.803
X241.046Y-84.328
X242.189Y-49.276
X242.316Y-102.743
X243.967Y-89.408
X244.094Y-97.028
X244.221Y-79.756
X244.602Y-74.549
X245.491Y-86.868
X246.507Y-79.629
X247.015Y-77.089
X247.396Y-40.386
X250.063Y-177.546
X250.825Y-102.743
X250.888Y-93.281
X251.841Y-48.895
X251.968Y-75.311
X253.365Y-71.374
X254.254Y-93.599
X254.762Y-39.624
X254.762Y-102.743
X255.143Y-134.493
X255.27Y-129.413
X255.778Y-36.322
X256.159Y-44.704
X256.413Y-40.894
X256.921Y-93.599
X257.429Y-102.743
X259.461Y-93.599
X259.842Y-102.743
X259.905Y-82.867
X260.477Y-44.704
X260.858Y-159.258
X262.128Y-93.599
X262.382Y-102.743
X264.668Y-48.006
X264.922Y-93.599
X264.922Y-102.743
X266.573Y-171.831
X267.462Y-102.743
X267.716Y-93.599
X270.002Y-102.743
X270.383Y-93.599
X271.653Y-71.374
X272.796Y-93.599
X272.796Y-102.743
X276.225Y-77.089
T2
X87.884Y-23.825
X87.884Y-25.725
T3
X85.018Y-21.222
X90.018Y-19.622
X95.018Y-21.222
T4
X22.87Y-136.144
X26.67Y-136.144
X31.115Y-153.289
X34.915Y-153.289
X54.61Y-121.549
X54.61Y-125.349
X57.15Y-143.129
X60.325Y-31.877
X60.325Y-34.417
X60.325Y-36.957
X60.325Y-39.497
X60.325Y-42.037
X60.325Y-44.577
X60.325Y-47.117
X60.325Y-49.657
X60.325Y-52.197
X60.325Y-54.737
X60.325Y-57.277
X60.325Y-59.817
X60.325Y-62.357
X60.325Y-64.897
X60.325Y-67.437
X60.325Y-69.977
X60.325Y-72.517
X60.325Y-75.057
X60.325Y-77.597
X60.325Y-80.137
X60.95Y-143.129
X75.565Y-31.877
X75.565Y-34.417
X75.565Y-36.957
X75.565Y-39.497
X75.565Y-42.037
X75.565Y-44.577
X75.565Y-47.117
X75.565Y-49.657
X75.565Y-52.197
X75.565Y-54.737
X75.565Y-57.277
X75.565Y-59.817
X75.565Y-62.357
X75.565Y-64.897
X75.565Y-67.437
X75.565Y-69.977
X75.565Y-72.517
X75.565Y-75.057
X75.565Y-77.597
X75.565Y-80.137
X87.909Y-93.802
X87.909Y-96.342
X103.886Y-87.884
X103.886Y-90.424
X141.497Y-117.254
X141.497Y-119.794
X141.497Y-122.334
X141.497Y-124.874
X141.497Y-127.414
X141.497Y-129.954
X141.497Y-132.494
X141.497Y-135.034
X141.497Y-137.574
X141.497Y-140.114
X141.497Y-142.654
X141.497Y-145.194
X141.497Y-147.734
X141.497Y-150.274
X141.497Y-152.814
X141.497Y-155.354
X141.497Y-157.894
X141.497Y-160.434
X141.497Y-162.974
X141.497Y-165.514
X154.686Y-29.083
X154.686Y-31.623
X154.686Y-34.163
X154.686Y-36.703
X154.686Y-39.243
X154.686Y-41.783
X154.686Y-44.323
X154.686Y-46.863
X154.686Y-49.403
X154.686Y-51.943
X154.686Y-54.483
X154.686Y-57.023
X154.686Y-59.563
X154.686Y-62.103
X154.686Y-64.643
X154.686Y-67.183
X154.686Y-69.723
X154.686Y-72.263
X154.686Y-74.803
X154.686Y-77.343
X156.737Y-117.254
X156.737Y-119.794
X156.737Y-122.334
X156.737Y-124.874
X156.737Y-127.414
X156.737Y-129.954
X156.737Y-132.494
X156.737Y-135.034
X156.737Y-137.574
X156.737Y-140.114
X156.737Y-142.654
X156.737Y-145.194
X156.737Y-147.734
X156.737Y-150.274
X156.737Y-152.814
X156.737Y-155.354
X156.737Y-157.894
X156.737Y-160.434
X156.737Y-162.974
X156.737Y-165.514
X169.926Y-29.083
X169.926Y-31.623
X169.926Y-34.163
X169.926Y-36.703
X169.926Y-39.243
X169.926Y-41.783
X169.926Y-44.323
X169.926Y-46.863
X169.926Y-49.403
X169.926Y-51.943
X169.926Y-54.483
X169.926Y-57.023
X169.926Y-59.563
X169.926Y-62.103
X169.926Y-64.643
X169.926Y-67.183
X169.926Y-69.723
X169.926Y-72.263
X169.926Y-74.803
X169.926Y-77.343
X233.563Y-148.463
X237.363Y-148.463
X241.808Y-165.608
X245.608Y-165.608
X265.303Y-133.868
X265.303Y-137.668
X267.843Y-155.448
X271.643Y-155.448
T5
X42.189Y-90.856
X42.189Y-93.396
X44.729Y-90.856
X44.729Y-93.396
X47.269Y-90.856
X47.269Y-93.396
X49.403Y-23.622
X49.403Y-26.162
X49.809Y-90.856
X49.809Y-93.396
X52.349Y-90.856
X52.349Y-93.396
X96.666Y-133.51
X96.666Y-137.193
X97.555Y-122.563
X97.555Y-125.763
X98.19Y-164.371
X98.19Y-167.673
X99.206Y-133.51
X99.206Y-137.193
X100.73Y-164.371
X100.73Y-167.673
X101.746Y-133.51
X101.746Y-137.193
X103.27Y-164.371
X103.27Y-167.673
X104.286Y-133.51
X104.286Y-137.193
X105.81Y-164.371
X105.81Y-167.673
X106.826Y-133.51
X106.826Y-137.193
X107.95Y-85.344
X107.95Y-87.884
X108.35Y-164.371
X108.35Y-167.673
X109.366Y-133.51
X109.366Y-137.193
X110.89Y-164.371
X110.89Y-167.673
X111.906Y-133.51
X111.906Y-137.193
X113.43Y-164.371
X113.43Y-167.673
X114.446Y-133.51
X114.446Y-137.193
X115.97Y-164.371
X115.97Y-167.673
X116.732Y-117.127
X116.732Y-119.667
X116.986Y-133.51
X116.986Y-137.193
X118.51Y-164.371
X118.51Y-167.673
X134.258Y-117.254
X134.258Y-119.794
X134.258Y-122.334
X134.258Y-124.874
X134.258Y-127.414
X134.258Y-129.954
X134.258Y-132.494
X134.258Y-135.034
X141.859Y-24.384
X141.859Y-26.924
X162.833Y-147.734
X162.833Y-150.274
X162.833Y-152.814
X162.833Y-155.354
X162.833Y-157.894
X163.722Y-114.714
X163.722Y-117.254
X163.722Y-119.794
X163.722Y-122.334
X163.722Y-124.874
X163.722Y-127.414
X171.151Y-170.149
X171.151Y-173.451
X173.691Y-170.149
X173.691Y-173.451
X176.231Y-170.149
X176.231Y-173.451
X178.772Y-170.149
X178.772Y-173.451
X179.978Y-132.494
X179.978Y-136.177
X181.311Y-170.149
X181.311Y-173.451
X182.518Y-132.494
X182.518Y-136.177
X183.851Y-170.149
X183.851Y-173.451
X185.058Y-132.494
X185.058Y-136.177
X186.391Y-170.149
X186.391Y-173.451
X187.598Y-132.494
X187.598Y-136.177
X188.931Y-170.149
X188.931Y-173.451
X190.138Y-132.494
X190.138Y-136.177
X191.471Y-170.149
X191.471Y-173.451
X192.659Y-55.626
X192.659Y-58.166
X192.678Y-132.494
X192.678Y-136.177
X195.218Y-132.494
X195.218Y-136.177
X197.758Y-132.494
X197.758Y-136.177
X200.044Y-152.052
X200.044Y-154.592
X200.044Y-157.132
X200.298Y-132.494
X200.298Y-136.177
X203.092Y-169.832
X203.092Y-172.372
X203.092Y-174.912
X203.092Y-177.452
X203.092Y-179.992
X203.092Y-182.532
X203.6Y-152.052
X203.6Y-154.592
X203.6Y-157.132
X236.601Y-26.035
X236.601Y-29.337
X238.379Y-79.248
X238.379Y-81.788
X238.379Y-84.328
X238.379Y-86.868
X238.379Y-89.408
X238.379Y-91.948
X238.379Y-94.488
X238.379Y-97.028
X239.141Y-26.035
X239.141Y-29.337
X241.681Y-26.035
X241.681Y-29.337
X244.221Y-26.035
X244.221Y-29.337
X246.761Y-26.035
X246.761Y-29.337
X249.301Y-26.035
X249.301Y-29.337
X250.952Y-96.393
X250.952Y-99.822
X251.841Y-26.035
X251.841Y-29.337
X253.492Y-96.393
X253.492Y-99.822
X254.381Y-26.035
X254.381Y-29.337
X256.032Y-96.393
X256.032Y-99.822
X256.921Y-26.035
X256.921Y-29.337
X258.572Y-96.393
X258.572Y-99.822
X261.112Y-96.393
X261.112Y-99.822
X263.652Y-96.393
X263.652Y-99.822
X266.192Y-96.393
X266.192Y-99.822
X267.462Y-27.686
X267.462Y-30.226
X267.462Y-32.766
X267.462Y-35.306
X267.462Y-37.846
X267.462Y-40.386
X267.462Y-42.926
X267.462Y-45.466
X267.462Y-48.006
X268.732Y-96.393
X268.732Y-99.822
X271.272Y-96.393
X271.272Y-99.822
T6
X44.094Y-22.936
X44.094Y-26.111
T7
X24.765Y-123.444
X24.765Y-125.984
X25.4Y-153.289
X25.4Y-155.829
X25.4Y-158.369
X25.4Y-160.909
X36.932Y-30.518
X36.932Y-33.058
X36.932Y-35.598
X36.932Y-38.138
X36.932Y-40.678
X36.932Y-43.218
X36.932Y-45.758
X36.932Y-48.298
X36.932Y-50.838
X36.932Y-53.378
X36.932Y-55.918
X36.932Y-58.458
X36.932Y-60.998
X36.932Y-63.538
X36.932Y-66.078
X36.932Y-68.618
X36.932Y-71.158
X36.932Y-73.698
X36.932Y-76.238
X36.932Y-78.778
X36.932Y-81.318
X62.738Y-91.059
X62.738Y-93.599
X62.738Y-96.139
X66.675Y-23.241
X66.675Y-25.781
X69.215Y-23.241
X69.215Y-25.781
X71.755Y-23.241
X71.755Y-25.781
X100.076Y-30.861
X100.076Y-33.401
X100.076Y-35.941
X100.076Y-38.481
X100.076Y-41.021
X100.076Y-43.561
X100.076Y-46.101
X100.076Y-48.641
X100.076Y-51.181
X100.076Y-53.721
X100.076Y-56.261
X100.076Y-58.801
X100.076Y-61.341
X100.076Y-63.881
X100.076Y-66.421
X100.076Y-68.961
X100.076Y-71.501
X100.076Y-74.041
X100.076Y-76.581
X100.076Y-79.121
X100.076Y-81.661
X130.556Y-66.167
X130.556Y-68.707
X130.556Y-71.247
X130.556Y-73.787
X130.556Y-76.327
X130.556Y-78.867
X130.556Y-81.407
X130.556Y-83.947
X139.192Y-31.496
X139.192Y-34.036
X139.192Y-36.576
X139.192Y-39.116
X139.192Y-41.656
X139.192Y-44.196
X139.192Y-46.736
X148.336Y-47.371
X148.336Y-49.911
X148.336Y-52.451
X176.911Y-54.483
X176.911Y-57.023
X176.911Y-59.563
X176.911Y-62.103
X176.911Y-64.643
X176.911Y-67.183
X176.911Y-69.723
X185.42Y-28.956
X185.42Y-31.496
X185.42Y-34.036
X185.42Y-36.576
X185.42Y-39.116
X185.42Y-41.656
X185.42Y-44.196
X185.42Y-46.736
X185.42Y-49.276
X188.849Y-55.626
X188.849Y-58.166
X188.849Y-60.706
X235.458Y-135.763
X235.458Y-138.303
X236.093Y-165.608
X236.093Y-168.148
X236.093Y-170.688
X236.093Y-173.228
T0
M30
