G04 #@! TF.FileFunction,Copper,L2,Bot,Signal*
%FSLAX46Y46*%
G04 Gerber Fmt 4.6, Leading zero omitted, Abs format (unit mm)*
G04 Created by KiCad (PCBNEW 4.0.6) date 12/20/17 19:22:24*
%MOMM*%
%LPD*%
G01*
G04 APERTURE LIST*
%ADD10C,0.100000*%
%ADD11C,0.150000*%
%ADD12C,0.300000*%
%ADD13C,0.400000*%
%ADD14R,2.032000X1.727200*%
%ADD15O,2.032000X1.727200*%
%ADD16C,1.200000*%
%ADD17R,4.500000X4.850000*%
%ADD18R,1.727200X1.727200*%
%ADD19O,1.727200X2.000000*%
%ADD20O,1.727200X1.727200*%
%ADD21C,1.000000*%
%ADD22C,0.600000*%
%ADD23C,0.500000*%
G04 APERTURE END LIST*
D10*
D11*
X177002200Y-166007200D02*
X177002200Y-198007200D01*
X285002200Y-198007200D01*
X285002200Y-166007200D01*
X177002200Y-166007200D01*
D10*
D11*
X10000000Y-10000000D02*
X10000000Y-200007200D01*
X287002200Y-200007200D01*
X287002200Y-10000000D01*
X10000000Y-10000000D01*
D10*
D11*
X12000000Y-12000000D02*
X12000000Y-198007200D01*
X285002200Y-198007200D01*
X285002200Y-12000000D01*
X12000000Y-12000000D01*
D10*
D11*
X60000000Y-12000000D02*
X60000000Y-10000000D01*
D10*
D11*
X110000000Y-12000000D02*
X110000000Y-10000000D01*
D10*
D11*
X160000000Y-12000000D02*
X160000000Y-10000000D01*
D10*
D11*
X210000000Y-12000000D02*
X210000000Y-10000000D01*
D10*
D11*
X260000000Y-12000000D02*
X260000000Y-10000000D01*
D10*
D11*
X35990476Y-11588095D02*
X35247619Y-11588095D01*
X35619048Y-11588095D02*
X35619048Y-10288095D01*
X35495238Y-10473810D01*
X35371429Y-10597619D01*
X35247619Y-10659524D01*
D10*
D11*
X85247619Y-10411905D02*
X85309524Y-10350000D01*
X85433333Y-10288095D01*
X85742857Y-10288095D01*
X85866667Y-10350000D01*
X85928571Y-10411905D01*
X85990476Y-10535714D01*
X85990476Y-10659524D01*
X85928571Y-10845238D01*
X85185714Y-11588095D01*
X85990476Y-11588095D01*
D10*
D11*
X135185714Y-10288095D02*
X135990476Y-10288095D01*
X135557143Y-10783333D01*
X135742857Y-10783333D01*
X135866667Y-10845238D01*
X135928571Y-10907143D01*
X135990476Y-11030952D01*
X135990476Y-11340476D01*
X135928571Y-11464286D01*
X135866667Y-11526190D01*
X135742857Y-11588095D01*
X135371429Y-11588095D01*
X135247619Y-11526190D01*
X135185714Y-11464286D01*
D10*
D11*
X185866667Y-10721429D02*
X185866667Y-11588095D01*
X185557143Y-10226190D02*
X185247619Y-11154762D01*
X186052381Y-11154762D01*
D10*
D11*
X235928571Y-10288095D02*
X235309524Y-10288095D01*
X235247619Y-10907143D01*
X235309524Y-10845238D01*
X235433333Y-10783333D01*
X235742857Y-10783333D01*
X235866667Y-10845238D01*
X235928571Y-10907143D01*
X235990476Y-11030952D01*
X235990476Y-11340476D01*
X235928571Y-11464286D01*
X235866667Y-11526190D01*
X235742857Y-11588095D01*
X235433333Y-11588095D01*
X235309524Y-11526190D01*
X235247619Y-11464286D01*
D10*
D11*
X285866667Y-10288095D02*
X285619048Y-10288095D01*
X285495238Y-10350000D01*
X285433333Y-10411905D01*
X285309524Y-10597619D01*
X285247619Y-10845238D01*
X285247619Y-11340476D01*
X285309524Y-11464286D01*
X285371429Y-11526190D01*
X285495238Y-11588095D01*
X285742857Y-11588095D01*
X285866667Y-11526190D01*
X285928571Y-11464286D01*
X285990476Y-11340476D01*
X285990476Y-11030952D01*
X285928571Y-10907143D01*
X285866667Y-10845238D01*
X285742857Y-10783333D01*
X285495238Y-10783333D01*
X285371429Y-10845238D01*
X285309524Y-10907143D01*
X285247619Y-11030952D01*
D10*
D11*
X60000000Y-198007200D02*
X60000000Y-200007200D01*
D10*
D11*
X110000000Y-198007200D02*
X110000000Y-200007200D01*
D10*
D11*
X160000000Y-198007200D02*
X160000000Y-200007200D01*
D10*
D11*
X210000000Y-198007200D02*
X210000000Y-200007200D01*
D10*
D11*
X260000000Y-198007200D02*
X260000000Y-200007200D01*
D10*
D11*
X35990476Y-199595295D02*
X35247619Y-199595295D01*
X35619048Y-199595295D02*
X35619048Y-198295295D01*
X35495238Y-198481010D01*
X35371429Y-198604819D01*
X35247619Y-198666724D01*
D10*
D11*
X85247619Y-198419105D02*
X85309524Y-198357200D01*
X85433333Y-198295295D01*
X85742857Y-198295295D01*
X85866667Y-198357200D01*
X85928571Y-198419105D01*
X85990476Y-198542914D01*
X85990476Y-198666724D01*
X85928571Y-198852438D01*
X85185714Y-199595295D01*
X85990476Y-199595295D01*
D10*
D11*
X135185714Y-198295295D02*
X135990476Y-198295295D01*
X135557143Y-198790533D01*
X135742857Y-198790533D01*
X135866667Y-198852438D01*
X135928571Y-198914343D01*
X135990476Y-199038152D01*
X135990476Y-199347676D01*
X135928571Y-199471486D01*
X135866667Y-199533390D01*
X135742857Y-199595295D01*
X135371429Y-199595295D01*
X135247619Y-199533390D01*
X135185714Y-199471486D01*
D10*
D11*
X185866667Y-198728629D02*
X185866667Y-199595295D01*
X185557143Y-198233390D02*
X185247619Y-199161962D01*
X186052381Y-199161962D01*
D10*
D11*
X235928571Y-198295295D02*
X235309524Y-198295295D01*
X235247619Y-198914343D01*
X235309524Y-198852438D01*
X235433333Y-198790533D01*
X235742857Y-198790533D01*
X235866667Y-198852438D01*
X235928571Y-198914343D01*
X235990476Y-199038152D01*
X235990476Y-199347676D01*
X235928571Y-199471486D01*
X235866667Y-199533390D01*
X235742857Y-199595295D01*
X235433333Y-199595295D01*
X235309524Y-199533390D01*
X235247619Y-199471486D01*
D10*
D11*
X285866667Y-198295295D02*
X285619048Y-198295295D01*
X285495238Y-198357200D01*
X285433333Y-198419105D01*
X285309524Y-198604819D01*
X285247619Y-198852438D01*
X285247619Y-199347676D01*
X285309524Y-199471486D01*
X285371429Y-199533390D01*
X285495238Y-199595295D01*
X285742857Y-199595295D01*
X285866667Y-199533390D01*
X285928571Y-199471486D01*
X285990476Y-199347676D01*
X285990476Y-199038152D01*
X285928571Y-198914343D01*
X285866667Y-198852438D01*
X285742857Y-198790533D01*
X285495238Y-198790533D01*
X285371429Y-198852438D01*
X285309524Y-198914343D01*
X285247619Y-199038152D01*
D10*
D11*
X10000000Y-60000000D02*
X12000000Y-60000000D01*
D10*
D11*
X10000000Y-110000000D02*
X12000000Y-110000000D01*
D10*
D11*
X10000000Y-160000000D02*
X12000000Y-160000000D01*
D10*
D11*
X10690476Y-35216667D02*
X11309524Y-35216667D01*
X10566667Y-35588095D02*
X11000000Y-34288095D01*
X11433333Y-35588095D01*
D10*
D11*
X11092857Y-84907143D02*
X11278571Y-84969048D01*
X11340476Y-85030952D01*
X11402381Y-85154762D01*
X11402381Y-85340476D01*
X11340476Y-85464286D01*
X11278571Y-85526190D01*
X11154762Y-85588095D01*
X10659524Y-85588095D01*
X10659524Y-84288095D01*
X11092857Y-84288095D01*
X11216667Y-84350000D01*
X11278571Y-84411905D01*
X11340476Y-84535714D01*
X11340476Y-84659524D01*
X11278571Y-84783333D01*
X11216667Y-84845238D01*
X11092857Y-84907143D01*
X10659524Y-84907143D01*
D10*
D11*
X11402381Y-135464286D02*
X11340476Y-135526190D01*
X11154762Y-135588095D01*
X11030952Y-135588095D01*
X10845238Y-135526190D01*
X10721429Y-135402381D01*
X10659524Y-135278571D01*
X10597619Y-135030952D01*
X10597619Y-134845238D01*
X10659524Y-134597619D01*
X10721429Y-134473810D01*
X10845238Y-134350000D01*
X11030952Y-134288095D01*
X11154762Y-134288095D01*
X11340476Y-134350000D01*
X11402381Y-134411905D01*
D10*
D11*
X10659524Y-185588095D02*
X10659524Y-184288095D01*
X10969048Y-184288095D01*
X11154762Y-184350000D01*
X11278571Y-184473810D01*
X11340476Y-184597619D01*
X11402381Y-184845238D01*
X11402381Y-185030952D01*
X11340476Y-185278571D01*
X11278571Y-185402381D01*
X11154762Y-185526190D01*
X10969048Y-185588095D01*
X10659524Y-185588095D01*
D10*
D11*
X287002200Y-60000000D02*
X285002200Y-60000000D01*
D10*
D11*
X287002200Y-110000000D02*
X285002200Y-110000000D01*
D10*
D11*
X287002200Y-160000000D02*
X285002200Y-160000000D01*
D10*
D11*
X285692676Y-35216667D02*
X286311724Y-35216667D01*
X285568867Y-35588095D02*
X286002200Y-34288095D01*
X286435533Y-35588095D01*
D10*
D11*
X286095057Y-84907143D02*
X286280771Y-84969048D01*
X286342676Y-85030952D01*
X286404581Y-85154762D01*
X286404581Y-85340476D01*
X286342676Y-85464286D01*
X286280771Y-85526190D01*
X286156962Y-85588095D01*
X285661724Y-85588095D01*
X285661724Y-84288095D01*
X286095057Y-84288095D01*
X286218867Y-84350000D01*
X286280771Y-84411905D01*
X286342676Y-84535714D01*
X286342676Y-84659524D01*
X286280771Y-84783333D01*
X286218867Y-84845238D01*
X286095057Y-84907143D01*
X285661724Y-84907143D01*
D10*
D11*
X286404581Y-135464286D02*
X286342676Y-135526190D01*
X286156962Y-135588095D01*
X286033152Y-135588095D01*
X285847438Y-135526190D01*
X285723629Y-135402381D01*
X285661724Y-135278571D01*
X285599819Y-135030952D01*
X285599819Y-134845238D01*
X285661724Y-134597619D01*
X285723629Y-134473810D01*
X285847438Y-134350000D01*
X286033152Y-134288095D01*
X286156962Y-134288095D01*
X286342676Y-134350000D01*
X286404581Y-134411905D01*
D10*
D11*
X285661724Y-185588095D02*
X285661724Y-184288095D01*
X285971248Y-184288095D01*
X286156962Y-184350000D01*
X286280771Y-184473810D01*
X286342676Y-184597619D01*
X286404581Y-184845238D01*
X286404581Y-185030952D01*
X286342676Y-185278571D01*
X286280771Y-185402381D01*
X286156962Y-185526190D01*
X285971248Y-185588095D01*
X285661724Y-185588095D01*
D10*
D11*
X200359343Y-193785771D02*
X200359343Y-192285771D01*
X200716486Y-192285771D01*
X200930771Y-192357200D01*
X201073629Y-192500057D01*
X201145057Y-192642914D01*
X201216486Y-192928629D01*
X201216486Y-193142914D01*
X201145057Y-193428629D01*
X201073629Y-193571486D01*
X200930771Y-193714343D01*
X200716486Y-193785771D01*
X200359343Y-193785771D01*
X202502200Y-193785771D02*
X202502200Y-193000057D01*
X202430771Y-192857200D01*
X202287914Y-192785771D01*
X202002200Y-192785771D01*
X201859343Y-192857200D01*
X202502200Y-193714343D02*
X202359343Y-193785771D01*
X202002200Y-193785771D01*
X201859343Y-193714343D01*
X201787914Y-193571486D01*
X201787914Y-193428629D01*
X201859343Y-193285771D01*
X202002200Y-193214343D01*
X202359343Y-193214343D01*
X202502200Y-193142914D01*
X203002200Y-192785771D02*
X203573629Y-192785771D01*
X203216486Y-192285771D02*
X203216486Y-193571486D01*
X203287914Y-193714343D01*
X203430772Y-193785771D01*
X203573629Y-193785771D01*
X204645057Y-193714343D02*
X204502200Y-193785771D01*
X204216486Y-193785771D01*
X204073629Y-193714343D01*
X204002200Y-193571486D01*
X204002200Y-193000057D01*
X204073629Y-192857200D01*
X204216486Y-192785771D01*
X204502200Y-192785771D01*
X204645057Y-192857200D01*
X204716486Y-193000057D01*
X204716486Y-193142914D01*
X204002200Y-193285771D01*
X205359343Y-193642914D02*
X205430771Y-193714343D01*
X205359343Y-193785771D01*
X205287914Y-193714343D01*
X205359343Y-193642914D01*
X205359343Y-193785771D01*
X205359343Y-192857200D02*
X205430771Y-192928629D01*
X205359343Y-193000057D01*
X205287914Y-192928629D01*
X205359343Y-192857200D01*
X205359343Y-193000057D01*
D10*
D11*
X177002200Y-194507200D02*
X285002200Y-194507200D01*
D10*
D11*
X178359343Y-196585771D02*
X178359343Y-195085771D01*
X179216486Y-196585771D02*
X178573629Y-195728629D01*
X179216486Y-195085771D02*
X178359343Y-195942914D01*
X179859343Y-196585771D02*
X179859343Y-195585771D01*
X179859343Y-195085771D02*
X179787914Y-195157200D01*
X179859343Y-195228629D01*
X179930771Y-195157200D01*
X179859343Y-195085771D01*
X179859343Y-195228629D01*
X181430772Y-196442914D02*
X181359343Y-196514343D01*
X181145057Y-196585771D01*
X181002200Y-196585771D01*
X180787915Y-196514343D01*
X180645057Y-196371486D01*
X180573629Y-196228629D01*
X180502200Y-195942914D01*
X180502200Y-195728629D01*
X180573629Y-195442914D01*
X180645057Y-195300057D01*
X180787915Y-195157200D01*
X181002200Y-195085771D01*
X181145057Y-195085771D01*
X181359343Y-195157200D01*
X181430772Y-195228629D01*
X182716486Y-196585771D02*
X182716486Y-195800057D01*
X182645057Y-195657200D01*
X182502200Y-195585771D01*
X182216486Y-195585771D01*
X182073629Y-195657200D01*
X182716486Y-196514343D02*
X182573629Y-196585771D01*
X182216486Y-196585771D01*
X182073629Y-196514343D01*
X182002200Y-196371486D01*
X182002200Y-196228629D01*
X182073629Y-196085771D01*
X182216486Y-196014343D01*
X182573629Y-196014343D01*
X182716486Y-195942914D01*
X184073629Y-196585771D02*
X184073629Y-195085771D01*
X184073629Y-196514343D02*
X183930772Y-196585771D01*
X183645058Y-196585771D01*
X183502200Y-196514343D01*
X183430772Y-196442914D01*
X183359343Y-196300057D01*
X183359343Y-195871486D01*
X183430772Y-195728629D01*
X183502200Y-195657200D01*
X183645058Y-195585771D01*
X183930772Y-195585771D01*
X184073629Y-195657200D01*
X185930772Y-195800057D02*
X186430772Y-195800057D01*
X186645058Y-196585771D02*
X185930772Y-196585771D01*
X185930772Y-195085771D01*
X186645058Y-195085771D01*
X187287915Y-196442914D02*
X187359343Y-196514343D01*
X187287915Y-196585771D01*
X187216486Y-196514343D01*
X187287915Y-196442914D01*
X187287915Y-196585771D01*
X188002201Y-196585771D02*
X188002201Y-195085771D01*
X188359344Y-195085771D01*
X188573629Y-195157200D01*
X188716487Y-195300057D01*
X188787915Y-195442914D01*
X188859344Y-195728629D01*
X188859344Y-195942914D01*
X188787915Y-196228629D01*
X188716487Y-196371486D01*
X188573629Y-196514343D01*
X188359344Y-196585771D01*
X188002201Y-196585771D01*
X189502201Y-196442914D02*
X189573629Y-196514343D01*
X189502201Y-196585771D01*
X189430772Y-196514343D01*
X189502201Y-196442914D01*
X189502201Y-196585771D01*
X190145058Y-196157200D02*
X190859344Y-196157200D01*
X190002201Y-196585771D02*
X190502201Y-195085771D01*
X191002201Y-196585771D01*
X191502201Y-196442914D02*
X191573629Y-196514343D01*
X191502201Y-196585771D01*
X191430772Y-196514343D01*
X191502201Y-196442914D01*
X191502201Y-196585771D01*
X194502201Y-196585771D02*
X194502201Y-195085771D01*
X194645058Y-196014343D02*
X195073629Y-196585771D01*
X195073629Y-195585771D02*
X194502201Y-196157200D01*
X195716487Y-196585771D02*
X195716487Y-195585771D01*
X195716487Y-195085771D02*
X195645058Y-195157200D01*
X195716487Y-195228629D01*
X195787915Y-195157200D01*
X195716487Y-195085771D01*
X195716487Y-195228629D01*
X197073630Y-196514343D02*
X196930773Y-196585771D01*
X196645059Y-196585771D01*
X196502201Y-196514343D01*
X196430773Y-196442914D01*
X196359344Y-196300057D01*
X196359344Y-195871486D01*
X196430773Y-195728629D01*
X196502201Y-195657200D01*
X196645059Y-195585771D01*
X196930773Y-195585771D01*
X197073630Y-195657200D01*
X198359344Y-196585771D02*
X198359344Y-195800057D01*
X198287915Y-195657200D01*
X198145058Y-195585771D01*
X197859344Y-195585771D01*
X197716487Y-195657200D01*
X198359344Y-196514343D02*
X198216487Y-196585771D01*
X197859344Y-196585771D01*
X197716487Y-196514343D01*
X197645058Y-196371486D01*
X197645058Y-196228629D01*
X197716487Y-196085771D01*
X197859344Y-196014343D01*
X198216487Y-196014343D01*
X198359344Y-195942914D01*
X199716487Y-196585771D02*
X199716487Y-195085771D01*
X199716487Y-196514343D02*
X199573630Y-196585771D01*
X199287916Y-196585771D01*
X199145058Y-196514343D01*
X199073630Y-196442914D01*
X199002201Y-196300057D01*
X199002201Y-195871486D01*
X199073630Y-195728629D01*
X199145058Y-195657200D01*
X199287916Y-195585771D01*
X199573630Y-195585771D01*
X199716487Y-195657200D01*
X202216487Y-195585771D02*
X202216487Y-196585771D01*
X201859344Y-195014343D02*
X201502201Y-196085771D01*
X202430773Y-196085771D01*
X203002201Y-196442914D02*
X203073629Y-196514343D01*
X203002201Y-196585771D01*
X202930772Y-196514343D01*
X203002201Y-196442914D01*
X203002201Y-196585771D01*
X204002201Y-195085771D02*
X204145058Y-195085771D01*
X204287915Y-195157200D01*
X204359344Y-195228629D01*
X204430773Y-195371486D01*
X204502201Y-195657200D01*
X204502201Y-196014343D01*
X204430773Y-196300057D01*
X204359344Y-196442914D01*
X204287915Y-196514343D01*
X204145058Y-196585771D01*
X204002201Y-196585771D01*
X203859344Y-196514343D01*
X203787915Y-196442914D01*
X203716487Y-196300057D01*
X203645058Y-196014343D01*
X203645058Y-195657200D01*
X203716487Y-195371486D01*
X203787915Y-195228629D01*
X203859344Y-195157200D01*
X204002201Y-195085771D01*
X205145058Y-196442914D02*
X205216486Y-196514343D01*
X205145058Y-196585771D01*
X205073629Y-196514343D01*
X205145058Y-196442914D01*
X205145058Y-196585771D01*
X206502201Y-195085771D02*
X206216487Y-195085771D01*
X206073630Y-195157200D01*
X206002201Y-195228629D01*
X205859344Y-195442914D01*
X205787915Y-195728629D01*
X205787915Y-196300057D01*
X205859344Y-196442914D01*
X205930772Y-196514343D01*
X206073630Y-196585771D01*
X206359344Y-196585771D01*
X206502201Y-196514343D01*
X206573630Y-196442914D01*
X206645058Y-196300057D01*
X206645058Y-195942914D01*
X206573630Y-195800057D01*
X206502201Y-195728629D01*
X206359344Y-195657200D01*
X206073630Y-195657200D01*
X205930772Y-195728629D01*
X205859344Y-195800057D01*
X205787915Y-195942914D01*
D10*
D11*
X177002200Y-191507200D02*
X285002200Y-191507200D01*
D10*
D12*
X264216486Y-193785771D02*
X263716486Y-193071486D01*
X263359343Y-193785771D02*
X263359343Y-192285771D01*
X263930771Y-192285771D01*
X264073629Y-192357200D01*
X264145057Y-192428629D01*
X264216486Y-192571486D01*
X264216486Y-192785771D01*
X264145057Y-192928629D01*
X264073629Y-193000057D01*
X263930771Y-193071486D01*
X263359343Y-193071486D01*
X265430771Y-193714343D02*
X265287914Y-193785771D01*
X265002200Y-193785771D01*
X264859343Y-193714343D01*
X264787914Y-193571486D01*
X264787914Y-193000057D01*
X264859343Y-192857200D01*
X265002200Y-192785771D01*
X265287914Y-192785771D01*
X265430771Y-192857200D01*
X265502200Y-193000057D01*
X265502200Y-193142914D01*
X264787914Y-193285771D01*
X266002200Y-192785771D02*
X266359343Y-193785771D01*
X266716485Y-192785771D01*
X267287914Y-193642914D02*
X267359342Y-193714343D01*
X267287914Y-193785771D01*
X267216485Y-193714343D01*
X267287914Y-193642914D01*
X267287914Y-193785771D01*
X267287914Y-192857200D02*
X267359342Y-192928629D01*
X267287914Y-193000057D01*
X267216485Y-192928629D01*
X267287914Y-192857200D01*
X267287914Y-193000057D01*
D10*
D11*
X178287914Y-193714343D02*
X178502200Y-193785771D01*
X178859343Y-193785771D01*
X179002200Y-193714343D01*
X179073629Y-193642914D01*
X179145057Y-193500057D01*
X179145057Y-193357200D01*
X179073629Y-193214343D01*
X179002200Y-193142914D01*
X178859343Y-193071486D01*
X178573629Y-193000057D01*
X178430771Y-192928629D01*
X178359343Y-192857200D01*
X178287914Y-192714343D01*
X178287914Y-192571486D01*
X178359343Y-192428629D01*
X178430771Y-192357200D01*
X178573629Y-192285771D01*
X178930771Y-192285771D01*
X179145057Y-192357200D01*
X179787914Y-193785771D02*
X179787914Y-192785771D01*
X179787914Y-192285771D02*
X179716485Y-192357200D01*
X179787914Y-192428629D01*
X179859342Y-192357200D01*
X179787914Y-192285771D01*
X179787914Y-192428629D01*
X180359343Y-192785771D02*
X181145057Y-192785771D01*
X180359343Y-193785771D01*
X181145057Y-193785771D01*
X182287914Y-193714343D02*
X182145057Y-193785771D01*
X181859343Y-193785771D01*
X181716486Y-193714343D01*
X181645057Y-193571486D01*
X181645057Y-193000057D01*
X181716486Y-192857200D01*
X181859343Y-192785771D01*
X182145057Y-192785771D01*
X182287914Y-192857200D01*
X182359343Y-193000057D01*
X182359343Y-193142914D01*
X181645057Y-193285771D01*
X183002200Y-193642914D02*
X183073628Y-193714343D01*
X183002200Y-193785771D01*
X182930771Y-193714343D01*
X183002200Y-193642914D01*
X183002200Y-193785771D01*
X183002200Y-192857200D02*
X183073628Y-192928629D01*
X183002200Y-193000057D01*
X182930771Y-192928629D01*
X183002200Y-192857200D01*
X183002200Y-193000057D01*
X184787914Y-193357200D02*
X185502200Y-193357200D01*
X184645057Y-193785771D02*
X185145057Y-192285771D01*
X185645057Y-193785771D01*
X186787914Y-192785771D02*
X186787914Y-193785771D01*
X186430771Y-192214343D02*
X186073628Y-193285771D01*
X187002200Y-193285771D01*
D10*
D11*
X263359343Y-196585771D02*
X263359343Y-195085771D01*
X264716486Y-196585771D02*
X264716486Y-195085771D01*
X264716486Y-196514343D02*
X264573629Y-196585771D01*
X264287915Y-196585771D01*
X264145057Y-196514343D01*
X264073629Y-196442914D01*
X264002200Y-196300057D01*
X264002200Y-195871486D01*
X264073629Y-195728629D01*
X264145057Y-195657200D01*
X264287915Y-195585771D01*
X264573629Y-195585771D01*
X264716486Y-195657200D01*
X265430772Y-196442914D02*
X265502200Y-196514343D01*
X265430772Y-196585771D01*
X265359343Y-196514343D01*
X265430772Y-196442914D01*
X265430772Y-196585771D01*
X265430772Y-195657200D02*
X265502200Y-195728629D01*
X265430772Y-195800057D01*
X265359343Y-195728629D01*
X265430772Y-195657200D01*
X265430772Y-195800057D01*
X268073629Y-196585771D02*
X267216486Y-196585771D01*
X267645058Y-196585771D02*
X267645058Y-195085771D01*
X267502201Y-195300057D01*
X267359343Y-195442914D01*
X267216486Y-195514343D01*
X269787914Y-195014343D02*
X268502200Y-196942914D01*
X271073629Y-196585771D02*
X270216486Y-196585771D01*
X270645058Y-196585771D02*
X270645058Y-195085771D01*
X270502201Y-195300057D01*
X270359343Y-195442914D01*
X270216486Y-195514343D01*
D10*
D11*
X177002200Y-187507200D02*
X285002200Y-187507200D01*
D10*
D13*
X178454581Y-188211962D02*
X179597438Y-188211962D01*
X178776010Y-190211962D02*
X179026010Y-188211962D01*
X180014105Y-190211962D02*
X180180771Y-188878629D01*
X180264105Y-188211962D02*
X180156962Y-188307200D01*
X180240295Y-188402438D01*
X180347439Y-188307200D01*
X180264105Y-188211962D01*
X180240295Y-188402438D01*
X180847438Y-188878629D02*
X181609343Y-188878629D01*
X181216486Y-188211962D02*
X181002200Y-189926248D01*
X181073630Y-190116724D01*
X181252201Y-190211962D01*
X181442677Y-190211962D01*
X182395058Y-190211962D02*
X182216487Y-190116724D01*
X182145057Y-189926248D01*
X182359343Y-188211962D01*
X183930772Y-190116724D02*
X183728391Y-190211962D01*
X183347439Y-190211962D01*
X183168867Y-190116724D01*
X183097438Y-189926248D01*
X183192676Y-189164343D01*
X183311724Y-188973867D01*
X183514105Y-188878629D01*
X183895057Y-188878629D01*
X184073629Y-188973867D01*
X184145057Y-189164343D01*
X184121248Y-189354819D01*
X183145057Y-189545295D01*
X184895057Y-190021486D02*
X184978392Y-190116724D01*
X184871248Y-190211962D01*
X184787915Y-190116724D01*
X184895057Y-190021486D01*
X184871248Y-190211962D01*
X185026010Y-188973867D02*
X185109344Y-189069105D01*
X185002200Y-189164343D01*
X184918867Y-189069105D01*
X185026010Y-188973867D01*
X185002200Y-189164343D01*
D10*
D11*
X178859343Y-185600057D02*
X178359343Y-185600057D01*
X178359343Y-186385771D02*
X178359343Y-184885771D01*
X179073629Y-184885771D01*
X179645057Y-186385771D02*
X179645057Y-185385771D01*
X179645057Y-184885771D02*
X179573628Y-184957200D01*
X179645057Y-185028629D01*
X179716485Y-184957200D01*
X179645057Y-184885771D01*
X179645057Y-185028629D01*
X180573629Y-186385771D02*
X180430771Y-186314343D01*
X180359343Y-186171486D01*
X180359343Y-184885771D01*
X181716485Y-186314343D02*
X181573628Y-186385771D01*
X181287914Y-186385771D01*
X181145057Y-186314343D01*
X181073628Y-186171486D01*
X181073628Y-185600057D01*
X181145057Y-185457200D01*
X181287914Y-185385771D01*
X181573628Y-185385771D01*
X181716485Y-185457200D01*
X181787914Y-185600057D01*
X181787914Y-185742914D01*
X181073628Y-185885771D01*
X182430771Y-186242914D02*
X182502199Y-186314343D01*
X182430771Y-186385771D01*
X182359342Y-186314343D01*
X182430771Y-186242914D01*
X182430771Y-186385771D01*
X182430771Y-185457200D02*
X182502199Y-185528629D01*
X182430771Y-185600057D01*
X182359342Y-185528629D01*
X182430771Y-185457200D01*
X182430771Y-185600057D01*
X185073628Y-184957200D02*
X184930771Y-184885771D01*
X184716485Y-184885771D01*
X184502200Y-184957200D01*
X184359342Y-185100057D01*
X184287914Y-185242914D01*
X184216485Y-185528629D01*
X184216485Y-185742914D01*
X184287914Y-186028629D01*
X184359342Y-186171486D01*
X184502200Y-186314343D01*
X184716485Y-186385771D01*
X184859342Y-186385771D01*
X185073628Y-186314343D01*
X185145057Y-186242914D01*
X185145057Y-185742914D01*
X184859342Y-185742914D01*
X185787914Y-185385771D02*
X185787914Y-186885771D01*
X185787914Y-185457200D02*
X185930771Y-185385771D01*
X186216485Y-185385771D01*
X186359342Y-185457200D01*
X186430771Y-185528629D01*
X186502200Y-185671486D01*
X186502200Y-186100057D01*
X186430771Y-186242914D01*
X186359342Y-186314343D01*
X186216485Y-186385771D01*
X185930771Y-186385771D01*
X185787914Y-186314343D01*
X187145057Y-186385771D02*
X187145057Y-185385771D01*
X187145057Y-184885771D02*
X187073628Y-184957200D01*
X187145057Y-185028629D01*
X187216485Y-184957200D01*
X187145057Y-184885771D01*
X187145057Y-185028629D01*
X187859343Y-186385771D02*
X187859343Y-184885771D01*
X187859343Y-185457200D02*
X188002200Y-185385771D01*
X188287914Y-185385771D01*
X188430771Y-185457200D01*
X188502200Y-185528629D01*
X188573629Y-185671486D01*
X188573629Y-186100057D01*
X188502200Y-186242914D01*
X188430771Y-186314343D01*
X188287914Y-186385771D01*
X188002200Y-186385771D01*
X187859343Y-186314343D01*
X189216486Y-186385771D02*
X189216486Y-184885771D01*
X189787914Y-184885771D01*
X189930772Y-184957200D01*
X190002200Y-185028629D01*
X190073629Y-185171486D01*
X190073629Y-185385771D01*
X190002200Y-185528629D01*
X189930772Y-185600057D01*
X189787914Y-185671486D01*
X189216486Y-185671486D01*
X190930772Y-186385771D02*
X190787914Y-186314343D01*
X190716486Y-186242914D01*
X190645057Y-186100057D01*
X190645057Y-185671486D01*
X190716486Y-185528629D01*
X190787914Y-185457200D01*
X190930772Y-185385771D01*
X191145057Y-185385771D01*
X191287914Y-185457200D01*
X191359343Y-185528629D01*
X191430772Y-185671486D01*
X191430772Y-186100057D01*
X191359343Y-186242914D01*
X191287914Y-186314343D01*
X191145057Y-186385771D01*
X190930772Y-186385771D01*
X192073629Y-186385771D02*
X192073629Y-185385771D01*
X192073629Y-185671486D02*
X192145057Y-185528629D01*
X192216486Y-185457200D01*
X192359343Y-185385771D01*
X192502200Y-185385771D01*
X192787914Y-185385771D02*
X193359343Y-185385771D01*
X193002200Y-184885771D02*
X193002200Y-186171486D01*
X193073628Y-186314343D01*
X193216486Y-186385771D01*
X193359343Y-186385771D01*
X193859343Y-185600057D02*
X194359343Y-185600057D01*
X194573629Y-186385771D02*
X193859343Y-186385771D01*
X193859343Y-184885771D01*
X194573629Y-184885771D01*
X195073629Y-186385771D02*
X195859343Y-185385771D01*
X195073629Y-185385771D02*
X195859343Y-186385771D01*
X196430772Y-185385771D02*
X196430772Y-186885771D01*
X196430772Y-185457200D02*
X196573629Y-185385771D01*
X196859343Y-185385771D01*
X197002200Y-185457200D01*
X197073629Y-185528629D01*
X197145058Y-185671486D01*
X197145058Y-186100057D01*
X197073629Y-186242914D01*
X197002200Y-186314343D01*
X196859343Y-186385771D01*
X196573629Y-186385771D01*
X196430772Y-186314343D01*
X198430772Y-186385771D02*
X198430772Y-185600057D01*
X198359343Y-185457200D01*
X198216486Y-185385771D01*
X197930772Y-185385771D01*
X197787915Y-185457200D01*
X198430772Y-186314343D02*
X198287915Y-186385771D01*
X197930772Y-186385771D01*
X197787915Y-186314343D01*
X197716486Y-186171486D01*
X197716486Y-186028629D01*
X197787915Y-185885771D01*
X197930772Y-185814343D01*
X198287915Y-185814343D01*
X198430772Y-185742914D01*
X199145058Y-185385771D02*
X199145058Y-186385771D01*
X199145058Y-185528629D02*
X199216486Y-185457200D01*
X199359344Y-185385771D01*
X199573629Y-185385771D01*
X199716486Y-185457200D01*
X199787915Y-185600057D01*
X199787915Y-186385771D01*
X201145058Y-186385771D02*
X201145058Y-184885771D01*
X201145058Y-186314343D02*
X201002201Y-186385771D01*
X200716487Y-186385771D01*
X200573629Y-186314343D01*
X200502201Y-186242914D01*
X200430772Y-186100057D01*
X200430772Y-185671486D01*
X200502201Y-185528629D01*
X200573629Y-185457200D01*
X200716487Y-185385771D01*
X201002201Y-185385771D01*
X201145058Y-185457200D01*
X202430772Y-186314343D02*
X202287915Y-186385771D01*
X202002201Y-186385771D01*
X201859344Y-186314343D01*
X201787915Y-186171486D01*
X201787915Y-185600057D01*
X201859344Y-185457200D01*
X202002201Y-185385771D01*
X202287915Y-185385771D01*
X202430772Y-185457200D01*
X202502201Y-185600057D01*
X202502201Y-185742914D01*
X201787915Y-185885771D01*
X203145058Y-186385771D02*
X203145058Y-185385771D01*
X203145058Y-185671486D02*
X203216486Y-185528629D01*
X203287915Y-185457200D01*
X203430772Y-185385771D01*
X203573629Y-185385771D01*
X204073629Y-186385771D02*
X204073629Y-184885771D01*
X204645057Y-184885771D01*
X204787915Y-184957200D01*
X204859343Y-185028629D01*
X204930772Y-185171486D01*
X204930772Y-185385771D01*
X204859343Y-185528629D01*
X204787915Y-185600057D01*
X204645057Y-185671486D01*
X204073629Y-185671486D01*
X206430772Y-186242914D02*
X206359343Y-186314343D01*
X206145057Y-186385771D01*
X206002200Y-186385771D01*
X205787915Y-186314343D01*
X205645057Y-186171486D01*
X205573629Y-186028629D01*
X205502200Y-185742914D01*
X205502200Y-185528629D01*
X205573629Y-185242914D01*
X205645057Y-185100057D01*
X205787915Y-184957200D01*
X206002200Y-184885771D01*
X206145057Y-184885771D01*
X206359343Y-184957200D01*
X206430772Y-185028629D01*
X207002200Y-185957200D02*
X207716486Y-185957200D01*
X206859343Y-186385771D02*
X207359343Y-184885771D01*
X207859343Y-186385771D01*
X209002200Y-184885771D02*
X208716486Y-184885771D01*
X208573629Y-184957200D01*
X208502200Y-185028629D01*
X208359343Y-185242914D01*
X208287914Y-185528629D01*
X208287914Y-186100057D01*
X208359343Y-186242914D01*
X208430771Y-186314343D01*
X208573629Y-186385771D01*
X208859343Y-186385771D01*
X209002200Y-186314343D01*
X209073629Y-186242914D01*
X209145057Y-186100057D01*
X209145057Y-185742914D01*
X209073629Y-185600057D01*
X209002200Y-185528629D01*
X208859343Y-185457200D01*
X208573629Y-185457200D01*
X208430771Y-185528629D01*
X208359343Y-185600057D01*
X208287914Y-185742914D01*
X210430771Y-185385771D02*
X210430771Y-186385771D01*
X210073628Y-184814343D02*
X209716485Y-185885771D01*
X210645057Y-185885771D01*
X211502199Y-184885771D02*
X211645056Y-184885771D01*
X211787913Y-184957200D01*
X211859342Y-185028629D01*
X211930771Y-185171486D01*
X212002199Y-185457200D01*
X212002199Y-185814343D01*
X211930771Y-186100057D01*
X211859342Y-186242914D01*
X211787913Y-186314343D01*
X211645056Y-186385771D01*
X211502199Y-186385771D01*
X211359342Y-186314343D01*
X211287913Y-186242914D01*
X211216485Y-186100057D01*
X211145056Y-185814343D01*
X211145056Y-185457200D01*
X211216485Y-185171486D01*
X211287913Y-185028629D01*
X211359342Y-184957200D01*
X211502199Y-184885771D01*
X212859342Y-185528629D02*
X212716484Y-185457200D01*
X212645056Y-185385771D01*
X212573627Y-185242914D01*
X212573627Y-185171486D01*
X212645056Y-185028629D01*
X212716484Y-184957200D01*
X212859342Y-184885771D01*
X213145056Y-184885771D01*
X213287913Y-184957200D01*
X213359342Y-185028629D01*
X213430770Y-185171486D01*
X213430770Y-185242914D01*
X213359342Y-185385771D01*
X213287913Y-185457200D01*
X213145056Y-185528629D01*
X212859342Y-185528629D01*
X212716484Y-185600057D01*
X212645056Y-185671486D01*
X212573627Y-185814343D01*
X212573627Y-186100057D01*
X212645056Y-186242914D01*
X212716484Y-186314343D01*
X212859342Y-186385771D01*
X213145056Y-186385771D01*
X213287913Y-186314343D01*
X213359342Y-186242914D01*
X213430770Y-186100057D01*
X213430770Y-185814343D01*
X213359342Y-185671486D01*
X213287913Y-185600057D01*
X213145056Y-185528629D01*
X214002198Y-185957200D02*
X214716484Y-185957200D01*
X213859341Y-186385771D02*
X214359341Y-184885771D01*
X214859341Y-186385771D01*
X215359341Y-186242914D02*
X215430769Y-186314343D01*
X215359341Y-186385771D01*
X215287912Y-186314343D01*
X215359341Y-186242914D01*
X215359341Y-186385771D01*
X216073627Y-186385771D02*
X216073627Y-184885771D01*
X216216484Y-185814343D02*
X216645055Y-186385771D01*
X216645055Y-185385771D02*
X216073627Y-185957200D01*
X217287913Y-186385771D02*
X217287913Y-185385771D01*
X217287913Y-184885771D02*
X217216484Y-184957200D01*
X217287913Y-185028629D01*
X217359341Y-184957200D01*
X217287913Y-184885771D01*
X217287913Y-185028629D01*
X218645056Y-186314343D02*
X218502199Y-186385771D01*
X218216485Y-186385771D01*
X218073627Y-186314343D01*
X218002199Y-186242914D01*
X217930770Y-186100057D01*
X217930770Y-185671486D01*
X218002199Y-185528629D01*
X218073627Y-185457200D01*
X218216485Y-185385771D01*
X218502199Y-185385771D01*
X218645056Y-185457200D01*
X219930770Y-186385771D02*
X219930770Y-185600057D01*
X219859341Y-185457200D01*
X219716484Y-185385771D01*
X219430770Y-185385771D01*
X219287913Y-185457200D01*
X219930770Y-186314343D02*
X219787913Y-186385771D01*
X219430770Y-186385771D01*
X219287913Y-186314343D01*
X219216484Y-186171486D01*
X219216484Y-186028629D01*
X219287913Y-185885771D01*
X219430770Y-185814343D01*
X219787913Y-185814343D01*
X219930770Y-185742914D01*
X221287913Y-186385771D02*
X221287913Y-184885771D01*
X221287913Y-186314343D02*
X221145056Y-186385771D01*
X220859342Y-186385771D01*
X220716484Y-186314343D01*
X220645056Y-186242914D01*
X220573627Y-186100057D01*
X220573627Y-185671486D01*
X220645056Y-185528629D01*
X220716484Y-185457200D01*
X220859342Y-185385771D01*
X221145056Y-185385771D01*
X221287913Y-185457200D01*
X221645056Y-186528629D02*
X222787913Y-186528629D01*
X223145056Y-185385771D02*
X223145056Y-186885771D01*
X223145056Y-185457200D02*
X223287913Y-185385771D01*
X223573627Y-185385771D01*
X223716484Y-185457200D01*
X223787913Y-185528629D01*
X223859342Y-185671486D01*
X223859342Y-186100057D01*
X223787913Y-186242914D01*
X223716484Y-186314343D01*
X223573627Y-186385771D01*
X223287913Y-186385771D01*
X223145056Y-186314343D01*
X225145056Y-186314343D02*
X225002199Y-186385771D01*
X224716485Y-186385771D01*
X224573627Y-186314343D01*
X224502199Y-186242914D01*
X224430770Y-186100057D01*
X224430770Y-185671486D01*
X224502199Y-185528629D01*
X224573627Y-185457200D01*
X224716485Y-185385771D01*
X225002199Y-185385771D01*
X225145056Y-185457200D01*
X225787913Y-186385771D02*
X225787913Y-184885771D01*
X225787913Y-185457200D02*
X225930770Y-185385771D01*
X226216484Y-185385771D01*
X226359341Y-185457200D01*
X226430770Y-185528629D01*
X226502199Y-185671486D01*
X226502199Y-186100057D01*
X226430770Y-186242914D01*
X226359341Y-186314343D01*
X226216484Y-186385771D01*
X225930770Y-186385771D01*
X225787913Y-186314343D01*
D10*
D11*
X177002200Y-181507200D02*
X285002200Y-181507200D01*
D10*
D11*
X178287914Y-183614343D02*
X178502200Y-183685771D01*
X178859343Y-183685771D01*
X179002200Y-183614343D01*
X179073629Y-183542914D01*
X179145057Y-183400057D01*
X179145057Y-183257200D01*
X179073629Y-183114343D01*
X179002200Y-183042914D01*
X178859343Y-182971486D01*
X178573629Y-182900057D01*
X178430771Y-182828629D01*
X178359343Y-182757200D01*
X178287914Y-182614343D01*
X178287914Y-182471486D01*
X178359343Y-182328629D01*
X178430771Y-182257200D01*
X178573629Y-182185771D01*
X178930771Y-182185771D01*
X179145057Y-182257200D01*
X179787914Y-183685771D02*
X179787914Y-182185771D01*
X180430771Y-183685771D02*
X180430771Y-182900057D01*
X180359342Y-182757200D01*
X180216485Y-182685771D01*
X180002200Y-182685771D01*
X179859342Y-182757200D01*
X179787914Y-182828629D01*
X181716485Y-183614343D02*
X181573628Y-183685771D01*
X181287914Y-183685771D01*
X181145057Y-183614343D01*
X181073628Y-183471486D01*
X181073628Y-182900057D01*
X181145057Y-182757200D01*
X181287914Y-182685771D01*
X181573628Y-182685771D01*
X181716485Y-182757200D01*
X181787914Y-182900057D01*
X181787914Y-183042914D01*
X181073628Y-183185771D01*
X183002199Y-183614343D02*
X182859342Y-183685771D01*
X182573628Y-183685771D01*
X182430771Y-183614343D01*
X182359342Y-183471486D01*
X182359342Y-182900057D01*
X182430771Y-182757200D01*
X182573628Y-182685771D01*
X182859342Y-182685771D01*
X183002199Y-182757200D01*
X183073628Y-182900057D01*
X183073628Y-183042914D01*
X182359342Y-183185771D01*
X183502199Y-182685771D02*
X184073628Y-182685771D01*
X183716485Y-182185771D02*
X183716485Y-183471486D01*
X183787913Y-183614343D01*
X183930771Y-183685771D01*
X184073628Y-183685771D01*
X184573628Y-183542914D02*
X184645056Y-183614343D01*
X184573628Y-183685771D01*
X184502199Y-183614343D01*
X184573628Y-183542914D01*
X184573628Y-183685771D01*
X184573628Y-182757200D02*
X184645056Y-182828629D01*
X184573628Y-182900057D01*
X184502199Y-182828629D01*
X184573628Y-182757200D01*
X184573628Y-182900057D01*
D10*
D11*
X197002200Y-191507200D02*
X197002200Y-194507200D01*
D10*
D11*
X261002200Y-191507200D02*
X261002200Y-198007200D01*
D14*
X172339000Y-96647000D03*
D15*
X172339000Y-99187000D03*
X172339000Y-101727000D03*
X172339000Y-104267000D03*
X172339000Y-106807000D03*
X172339000Y-109347000D03*
X172339000Y-111887000D03*
D16*
X180905000Y-83164000D03*
X180905000Y-110164000D03*
D17*
X183505000Y-80314000D03*
X183505000Y-113014000D03*
D18*
X137922000Y-89154000D03*
D19*
X137922000Y-86614000D03*
X140462000Y-89154000D03*
X140462000Y-86614000D03*
X143002000Y-89154000D03*
X143002000Y-86614000D03*
X145542000Y-89154000D03*
X145542000Y-86614000D03*
X148082000Y-89154000D03*
X148082000Y-86614000D03*
X150622000Y-89154000D03*
X150622000Y-86614000D03*
X153162000Y-89154000D03*
X153162000Y-86614000D03*
X155702000Y-89154000D03*
D20*
X155702000Y-86614000D03*
D19*
X158242000Y-89154000D03*
X158242000Y-86614000D03*
X160782000Y-89154000D03*
X160782000Y-86614000D03*
X163322000Y-89154000D03*
X163322000Y-86614000D03*
X165862000Y-89154000D03*
X165862000Y-86614000D03*
D21*
X164465000Y-112014000D03*
X164465000Y-117856000D03*
X143129000Y-116332000D03*
X136398000Y-116332000D03*
X169672000Y-117856000D03*
X148082000Y-106934000D03*
X139192000Y-91948000D03*
X141859000Y-91948000D03*
X144780000Y-91948000D03*
X147447000Y-91948000D03*
X149860000Y-91821000D03*
X152400000Y-91821000D03*
X154940000Y-91948000D03*
X157353000Y-91948000D03*
X160147000Y-91948000D03*
X162941000Y-91948000D03*
X165862000Y-91948000D03*
X154940000Y-76962000D03*
X151003000Y-76962000D03*
X147320000Y-76962000D03*
X143256000Y-76962000D03*
X139700000Y-76835000D03*
X170307000Y-91948000D03*
X169672000Y-110617000D03*
X150241000Y-117094000D03*
X150241000Y-113665000D03*
X163195000Y-106680000D03*
X169672000Y-106807000D03*
X157861000Y-116459000D03*
X155067000Y-117094000D03*
X172466000Y-91186000D03*
X177292000Y-118618000D03*
X175133000Y-109347000D03*
X163195000Y-112776000D03*
X165100000Y-110490000D03*
X151638000Y-113284000D03*
X175006000Y-99060000D03*
X175006000Y-91186000D03*
X168783000Y-99187000D03*
X137033000Y-109728000D03*
X151765000Y-109220000D03*
X168656000Y-103505000D03*
X135636000Y-110744000D03*
X150749000Y-110236000D03*
X168656000Y-105029000D03*
X137160000Y-111887000D03*
X151892000Y-111887000D03*
D22*
X164465000Y-117856000D02*
X164465000Y-112014000D01*
X134493000Y-114427000D02*
X136398000Y-116332000D01*
X147447000Y-107569000D02*
X136271000Y-107569000D01*
X136271000Y-107569000D02*
X134493000Y-109347000D01*
X134493000Y-109347000D02*
X134493000Y-114427000D01*
X143129000Y-116332000D02*
X136398000Y-116332000D01*
X147447000Y-107569000D02*
X148082000Y-106934000D01*
X169672000Y-110617000D02*
X169672000Y-117856000D01*
X169926000Y-98552000D02*
X169926000Y-98425000D01*
X169926000Y-98425000D02*
X169545000Y-98044000D01*
X169545000Y-98044000D02*
X168275000Y-98044000D01*
X168275000Y-98044000D02*
X167132000Y-99187000D01*
X167132000Y-99187000D02*
X167132000Y-101600000D01*
X167132000Y-101600000D02*
X166624000Y-102108000D01*
X166624000Y-102108000D02*
X162687000Y-102108000D01*
X162687000Y-102108000D02*
X160020000Y-104775000D01*
X160020000Y-104775000D02*
X160020000Y-106426000D01*
X160020000Y-106426000D02*
X158877000Y-107569000D01*
X158877000Y-107569000D02*
X148717000Y-107569000D01*
X148717000Y-107569000D02*
X148082000Y-106934000D01*
X169926000Y-100838000D02*
X169926000Y-98552000D01*
X169926000Y-98552000D02*
X169926000Y-92329000D01*
X169926000Y-92329000D02*
X170307000Y-91948000D01*
X169672000Y-106807000D02*
X169672000Y-106680000D01*
X170307000Y-92075000D02*
X170307000Y-91948000D01*
X169926000Y-106426000D02*
X169926000Y-100838000D01*
X169926000Y-100838000D02*
X169926000Y-101092000D01*
X169672000Y-106680000D02*
X169926000Y-106426000D01*
X141859000Y-91948000D02*
X139192000Y-91948000D01*
X144780000Y-91948000D02*
X141859000Y-91948000D01*
X147447000Y-91948000D02*
X144780000Y-91948000D01*
X149860000Y-91821000D02*
X147574000Y-91821000D01*
X147574000Y-91821000D02*
X147447000Y-91948000D01*
X152400000Y-91821000D02*
X149860000Y-91821000D01*
X154940000Y-91948000D02*
X152527000Y-91948000D01*
X152527000Y-91948000D02*
X152400000Y-91821000D01*
X157353000Y-91948000D02*
X154940000Y-91948000D01*
X160147000Y-91948000D02*
X157353000Y-91948000D01*
X162941000Y-91948000D02*
X160147000Y-91948000D01*
X165862000Y-91948000D02*
X162941000Y-91948000D01*
X170307000Y-91948000D02*
X165862000Y-91948000D01*
X151003000Y-76962000D02*
X154940000Y-76962000D01*
X147320000Y-76962000D02*
X151003000Y-76962000D01*
X143256000Y-76962000D02*
X147320000Y-76962000D01*
X139700000Y-76835000D02*
X143129000Y-76835000D01*
X143129000Y-76835000D02*
X143256000Y-76962000D01*
X169672000Y-110617000D02*
X169672000Y-106807000D01*
D13*
X150241000Y-113665000D02*
X150241000Y-117094000D01*
D22*
X169672000Y-106807000D02*
X163322000Y-106807000D01*
X163322000Y-106807000D02*
X163195000Y-106680000D01*
D13*
X155702000Y-116459000D02*
X155067000Y-117094000D01*
X157861000Y-116459000D02*
X155702000Y-116459000D01*
D23*
X175133000Y-109347000D02*
X175133000Y-109093000D01*
D13*
X175133000Y-109093000D02*
X176403000Y-107823000D01*
X172466000Y-90678000D02*
X172466000Y-91186000D01*
X173101000Y-90043000D02*
X172466000Y-90678000D01*
X175768000Y-90043000D02*
X173101000Y-90043000D01*
X176403000Y-90678000D02*
X175768000Y-90043000D01*
X176403000Y-107823000D02*
X176403000Y-90678000D01*
D22*
X175133000Y-109347000D02*
X175768000Y-109982000D01*
X175768000Y-117094000D02*
X177292000Y-118618000D01*
X175768000Y-109982000D02*
X175768000Y-117094000D01*
D13*
X175133000Y-109347000D02*
X175260000Y-109220000D01*
X165100000Y-110490000D02*
X162941000Y-110490000D01*
X152273000Y-113284000D02*
X151638000Y-113284000D01*
X152908000Y-112649000D02*
X152273000Y-113284000D01*
X160782000Y-112649000D02*
X152908000Y-112649000D01*
X162941000Y-110490000D02*
X160782000Y-112649000D01*
X175006000Y-99060000D02*
X175006000Y-91186000D01*
X168021000Y-102235000D02*
X167386000Y-102870000D01*
X167386000Y-102870000D02*
X163068000Y-102870000D01*
X163068000Y-102870000D02*
X160782000Y-105156000D01*
X160782000Y-105156000D02*
X160782000Y-108458000D01*
X160782000Y-108458000D02*
X160020000Y-109220000D01*
X160020000Y-109220000D02*
X151765000Y-109220000D01*
X168021000Y-99949000D02*
X168021000Y-102235000D01*
X168783000Y-99187000D02*
X168021000Y-99949000D01*
X151765000Y-109220000D02*
X137541000Y-109220000D01*
X137541000Y-109220000D02*
X137033000Y-109728000D01*
X167894000Y-103505000D02*
X163449000Y-103505000D01*
X163449000Y-103505000D02*
X161451998Y-105502002D01*
X161451998Y-105502002D02*
X161451998Y-109947002D01*
X161451998Y-109947002D02*
X160655000Y-110744000D01*
X160655000Y-110744000D02*
X151257000Y-110744000D01*
X151257000Y-110744000D02*
X150749000Y-110236000D01*
X168656000Y-103505000D02*
X167894000Y-103505000D01*
X150114000Y-110744000D02*
X135636000Y-110744000D01*
X150749000Y-110236000D02*
X150622000Y-110236000D01*
X150622000Y-110236000D02*
X150114000Y-110744000D01*
X168656000Y-105029000D02*
X162941000Y-105029000D01*
X151892000Y-111887000D02*
X150749000Y-111887000D01*
X137541000Y-111506000D02*
X137160000Y-111887000D01*
X150368000Y-111506000D02*
X137541000Y-111506000D01*
X150749000Y-111887000D02*
X150368000Y-111506000D01*
X162941000Y-105029000D02*
X162052000Y-105918000D01*
X162052000Y-105918000D02*
X162052000Y-110490000D01*
X162052000Y-110490000D02*
X160655000Y-111887000D01*
X160655000Y-111887000D02*
X151892000Y-111887000D01*
D23*
X131060000Y-72640000D02*
X185805000Y-72640000D01*
X131060000Y-73040000D02*
X185805000Y-73040000D01*
X131060000Y-73440000D02*
X185805000Y-73440000D01*
X131060000Y-73840000D02*
X185805000Y-73840000D01*
X131060000Y-74240000D02*
X185805000Y-74240000D01*
X131060000Y-74640000D02*
X185805000Y-74640000D01*
X131060000Y-75040000D02*
X185805000Y-75040000D01*
X131060000Y-75440000D02*
X185805000Y-75440000D01*
X131060000Y-75840000D02*
X185805000Y-75840000D01*
X131060000Y-76240000D02*
X185805000Y-76240000D01*
X131060000Y-76640000D02*
X185805000Y-76640000D01*
X131060000Y-77040000D02*
X181161189Y-77040000D01*
X131060000Y-77440000D02*
X180533035Y-77440000D01*
X131060000Y-77840000D02*
X180398271Y-77840000D01*
X131060000Y-78240000D02*
X180388348Y-78240000D01*
X131060000Y-78640000D02*
X180388348Y-78640000D01*
X131060000Y-79040000D02*
X180388348Y-79040000D01*
X131060000Y-79440000D02*
X180388348Y-79440000D01*
X131060000Y-79840000D02*
X180388348Y-79840000D01*
X131060000Y-80240000D02*
X180388348Y-80240000D01*
X131060000Y-80640000D02*
X180388348Y-80640000D01*
X131060000Y-81040000D02*
X180388348Y-81040000D01*
X131060000Y-81440000D02*
X180388348Y-81440000D01*
X131060000Y-81840000D02*
X180312292Y-81840000D01*
X131060000Y-82240000D02*
X179778214Y-82240000D01*
X131060000Y-82640000D02*
X179552548Y-82640000D01*
X131060000Y-83040000D02*
X179455108Y-83040000D01*
X131060000Y-83440000D02*
X179454759Y-83440000D01*
X131060000Y-83840000D02*
X179615415Y-83840000D01*
X182194336Y-83840000D02*
X185805000Y-83840000D01*
X131060000Y-84240000D02*
X149324232Y-84240000D01*
X150069558Y-84240000D02*
X151174443Y-84240000D01*
X152609558Y-84240000D02*
X153714443Y-84240000D01*
X154459769Y-84240000D02*
X154620198Y-84240000D01*
X154992494Y-84240000D02*
X156411507Y-84240000D01*
X156783803Y-84240000D02*
X156944232Y-84240000D01*
X157689558Y-84240000D02*
X158794443Y-84240000D01*
X160229558Y-84240000D02*
X161334443Y-84240000D01*
X162769558Y-84240000D02*
X163874443Y-84240000D01*
X165309558Y-84240000D02*
X166414443Y-84240000D01*
X167159769Y-84240000D02*
X179930301Y-84240000D01*
X181879521Y-84240000D02*
X185805000Y-84240000D01*
X131060000Y-84640000D02*
X148834199Y-84640000D01*
X150190200Y-84640000D02*
X151053800Y-84640000D01*
X152730200Y-84640000D02*
X153593800Y-84640000D01*
X155270200Y-84640000D02*
X156133800Y-84640000D01*
X157810200Y-84640000D02*
X158673800Y-84640000D01*
X160350200Y-84640000D02*
X161213800Y-84640000D01*
X162890200Y-84640000D02*
X163753800Y-84640000D01*
X165430200Y-84640000D02*
X166293800Y-84640000D01*
X167649802Y-84640000D02*
X185805000Y-84640000D01*
X131060000Y-85040000D02*
X136994146Y-85040000D01*
X138849855Y-85040000D02*
X139534146Y-85040000D01*
X141389855Y-85040000D02*
X142074146Y-85040000D01*
X143929855Y-85040000D02*
X144614146Y-85040000D01*
X146469855Y-85040000D02*
X147154146Y-85040000D01*
X150190200Y-85040000D02*
X151035164Y-85040000D01*
X152748837Y-85040000D02*
X153593800Y-85040000D01*
X155288837Y-85040000D02*
X156115164Y-85040000D01*
X157810200Y-85040000D02*
X158655164Y-85040000D01*
X160368837Y-85040000D02*
X161195164Y-85040000D01*
X162908837Y-85040000D02*
X163735164Y-85040000D01*
X165448837Y-85040000D02*
X166293800Y-85040000D01*
X167988837Y-85040000D02*
X185805000Y-85040000D01*
X131060000Y-85440000D02*
X136569756Y-85440000D01*
X150190200Y-85440000D02*
X150820000Y-85440000D01*
X152964001Y-85440000D02*
X153420427Y-85440000D01*
X155504001Y-85440000D02*
X155900000Y-85440000D01*
X157983575Y-85440000D02*
X158440000Y-85440000D01*
X160584001Y-85440000D02*
X160980000Y-85440000D01*
X163124001Y-85440000D02*
X163520000Y-85440000D01*
X165664001Y-85440000D02*
X166293800Y-85440000D01*
X168204001Y-85440000D02*
X185805000Y-85440000D01*
X131060000Y-85840000D02*
X136328018Y-85840000D01*
X150190200Y-85840000D02*
X150781263Y-85840000D01*
X153002735Y-85840000D02*
X153270944Y-85840000D01*
X155542736Y-85840000D02*
X155861263Y-85840000D01*
X158133055Y-85840000D02*
X158401263Y-85840000D01*
X160622736Y-85840000D02*
X160941263Y-85840000D01*
X163162736Y-85840000D02*
X163481263Y-85840000D01*
X165702736Y-85840000D02*
X166293800Y-85840000D01*
X168242736Y-85840000D02*
X185805000Y-85840000D01*
X131060000Y-86240000D02*
X136248453Y-86240000D01*
X149758400Y-86240000D02*
X185805000Y-86240000D01*
X131060000Y-86640000D02*
X136208400Y-86640000D01*
X149795600Y-86640000D02*
X164811096Y-86640000D01*
X165148349Y-86640000D02*
X166575652Y-86640000D01*
X166912905Y-86640000D02*
X185805000Y-86640000D01*
X131060000Y-87040000D02*
X136258795Y-87040000D01*
X149758400Y-87040000D02*
X164245711Y-87040000D01*
X165430200Y-87040000D02*
X166293800Y-87040000D01*
X167478290Y-87040000D02*
X185805000Y-87040000D01*
X131060000Y-87440000D02*
X136338360Y-87440000D01*
X165748215Y-87440000D02*
X166293800Y-87440000D01*
X168288215Y-87440000D02*
X185805000Y-87440000D01*
X131060000Y-87840000D02*
X136337391Y-87840000D01*
X165636029Y-87840000D02*
X166293800Y-87840000D01*
X168176029Y-87840000D02*
X185805000Y-87840000D01*
X131060000Y-88240000D02*
X136201955Y-88240000D01*
X165430200Y-88240000D02*
X166293800Y-88240000D01*
X168343857Y-88240000D02*
X185805000Y-88240000D01*
X131060000Y-88640000D02*
X136191748Y-88640000D01*
X165430200Y-88640000D02*
X166293800Y-88640000D01*
X168015346Y-88640000D02*
X185805000Y-88640000D01*
X131060000Y-89040000D02*
X136191748Y-89040000D01*
X165249679Y-89040000D02*
X166474320Y-89040000D01*
X167096064Y-89040000D02*
X172864714Y-89040000D01*
X176004287Y-89040000D02*
X185805000Y-89040000D01*
X131060000Y-89440000D02*
X136191748Y-89440000D01*
X165013052Y-89440000D02*
X172219076Y-89440000D01*
X176649924Y-89440000D02*
X185805000Y-89440000D01*
X131060000Y-89840000D02*
X136191748Y-89840000D01*
X165430200Y-89840000D02*
X166293800Y-89840000D01*
X168165774Y-89840000D02*
X171819076Y-89840000D01*
X177049924Y-89840000D02*
X185805000Y-89840000D01*
X131060000Y-90240000D02*
X136233595Y-90240000D01*
X165430200Y-90240000D02*
X166293800Y-90240000D01*
X168251336Y-90240000D02*
X171502796Y-90240000D01*
X177348898Y-90240000D02*
X185805000Y-90240000D01*
X131060000Y-90640000D02*
X136463680Y-90640000D01*
X139388061Y-90640000D02*
X139402443Y-90640000D01*
X141521556Y-90640000D02*
X141942443Y-90640000D01*
X144061556Y-90640000D02*
X144482443Y-90640000D01*
X146601556Y-90640000D02*
X147022443Y-90640000D01*
X149141556Y-90640000D02*
X149562443Y-90640000D01*
X151681556Y-90640000D02*
X152102443Y-90640000D01*
X154221556Y-90640000D02*
X154642443Y-90640000D01*
X156761556Y-90640000D02*
X157182443Y-90640000D01*
X159301556Y-90640000D02*
X159722443Y-90640000D01*
X161841556Y-90640000D02*
X162262443Y-90640000D01*
X165430200Y-90640000D02*
X166293800Y-90640000D01*
X168036172Y-90640000D02*
X171230961Y-90640000D01*
X177445442Y-90640000D02*
X185805000Y-90640000D01*
X131060000Y-91040000D02*
X140460773Y-91040000D01*
X140463226Y-91040000D02*
X143000773Y-91040000D01*
X143003226Y-91040000D02*
X145540773Y-91040000D01*
X145543226Y-91040000D02*
X148080773Y-91040000D01*
X148083226Y-91040000D02*
X150620773Y-91040000D01*
X150623226Y-91040000D02*
X153160773Y-91040000D01*
X153163226Y-91040000D02*
X155700773Y-91040000D01*
X155703226Y-91040000D02*
X158240773Y-91040000D01*
X158243226Y-91040000D02*
X160780773Y-91040000D01*
X160783226Y-91040000D02*
X163320773Y-91040000D01*
X163323226Y-91040000D02*
X163966391Y-91040000D01*
X165430200Y-91040000D02*
X166293800Y-91040000D01*
X167757608Y-91040000D02*
X171116127Y-91040000D01*
X177453000Y-91040000D02*
X185805000Y-91040000D01*
X131060000Y-91440000D02*
X164456424Y-91440000D01*
X165410888Y-91440000D02*
X166313111Y-91440000D01*
X167267575Y-91440000D02*
X171115778Y-91440000D01*
X177453000Y-91440000D02*
X185805000Y-91440000D01*
X131060000Y-91840000D02*
X171275524Y-91840000D01*
X173656193Y-91840000D02*
X173815524Y-91840000D01*
X177453000Y-91840000D02*
X185805000Y-91840000D01*
X131060000Y-92240000D02*
X171610637Y-92240000D01*
X173321016Y-92240000D02*
X173956000Y-92240000D01*
X177453000Y-92240000D02*
X185805000Y-92240000D01*
X131060000Y-92640000D02*
X173956000Y-92640000D01*
X177453000Y-92640000D02*
X185805000Y-92640000D01*
X131060000Y-93040000D02*
X173956000Y-93040000D01*
X177453000Y-93040000D02*
X185805000Y-93040000D01*
X131060000Y-93440000D02*
X173956000Y-93440000D01*
X177453000Y-93440000D02*
X185805000Y-93440000D01*
X131060000Y-93840000D02*
X173956000Y-93840000D01*
X177453000Y-93840000D02*
X185805000Y-93840000D01*
X131060000Y-94240000D02*
X173956000Y-94240000D01*
X177453000Y-94240000D02*
X185805000Y-94240000D01*
X131060000Y-94640000D02*
X173956000Y-94640000D01*
X177453000Y-94640000D02*
X185805000Y-94640000D01*
X131060000Y-95040000D02*
X170908578Y-95040000D01*
X173772631Y-95040000D02*
X173956000Y-95040000D01*
X177453000Y-95040000D02*
X185805000Y-95040000D01*
X131060000Y-95440000D02*
X170528881Y-95440000D01*
X177453000Y-95440000D02*
X185805000Y-95440000D01*
X131060000Y-95840000D02*
X170456348Y-95840000D01*
X177453000Y-95840000D02*
X185805000Y-95840000D01*
X131060000Y-96240000D02*
X170456348Y-96240000D01*
X177453000Y-96240000D02*
X185805000Y-96240000D01*
X131060000Y-96640000D02*
X170456348Y-96640000D01*
X177453000Y-96640000D02*
X185805000Y-96640000D01*
X131060000Y-97040000D02*
X170456348Y-97040000D01*
X177453000Y-97040000D02*
X185805000Y-97040000D01*
X131060000Y-97440000D02*
X170456348Y-97440000D01*
X177453000Y-97440000D02*
X185805000Y-97440000D01*
X131060000Y-97840000D02*
X168507821Y-97840000D01*
X169059369Y-97840000D02*
X170524889Y-97840000D01*
X177453000Y-97840000D02*
X185805000Y-97840000D01*
X131060000Y-98240000D02*
X167820798Y-98240000D01*
X169745177Y-98240000D02*
X170761480Y-98240000D01*
X177453000Y-98240000D02*
X185805000Y-98240000D01*
X131060000Y-98640000D02*
X167548376Y-98640000D01*
X170017687Y-98640000D02*
X170545249Y-98640000D01*
X177453000Y-98640000D02*
X185805000Y-98640000D01*
X131060000Y-99040000D02*
X167433128Y-99040000D01*
X170133128Y-99040000D02*
X170465684Y-99040000D01*
X177453000Y-99040000D02*
X185805000Y-99040000D01*
X131060000Y-99440000D02*
X167122544Y-99440000D01*
X170132779Y-99440000D02*
X170486767Y-99440000D01*
X177453000Y-99440000D02*
X185805000Y-99440000D01*
X131060000Y-99840000D02*
X166992682Y-99840000D01*
X169973609Y-99840000D02*
X170566332Y-99840000D01*
X177453000Y-99840000D02*
X185805000Y-99840000D01*
X131060000Y-100240000D02*
X166971000Y-100240000D01*
X169639017Y-100240000D02*
X170832306Y-100240000D01*
X173845693Y-100240000D02*
X174327450Y-100240000D01*
X177453000Y-100240000D02*
X185805000Y-100240000D01*
X131060000Y-100640000D02*
X166971000Y-100640000D01*
X169071000Y-100640000D02*
X170855025Y-100640000D01*
X173822976Y-100640000D02*
X175353000Y-100640000D01*
X177453000Y-100640000D02*
X185805000Y-100640000D01*
X131060000Y-101040000D02*
X166971000Y-101040000D01*
X169071000Y-101040000D02*
X170587753Y-101040000D01*
X174090248Y-101040000D02*
X175353000Y-101040000D01*
X177453000Y-101040000D02*
X185805000Y-101040000D01*
X131060000Y-101440000D02*
X166971000Y-101440000D01*
X169071000Y-101440000D02*
X170493531Y-101440000D01*
X174184470Y-101440000D02*
X175353000Y-101440000D01*
X177453000Y-101440000D02*
X185805000Y-101440000D01*
X131060000Y-101840000D02*
X162967453Y-101840000D01*
X169071000Y-101840000D02*
X170458920Y-101840000D01*
X174219079Y-101840000D02*
X175353000Y-101840000D01*
X177453000Y-101840000D02*
X185805000Y-101840000D01*
X131060000Y-102240000D02*
X162213076Y-102240000D01*
X169129847Y-102240000D02*
X170538485Y-102240000D01*
X174139514Y-102240000D02*
X175353000Y-102240000D01*
X177453000Y-102240000D02*
X185805000Y-102240000D01*
X131060000Y-102640000D02*
X161813076Y-102640000D01*
X169700034Y-102640000D02*
X170738761Y-102640000D01*
X173939238Y-102640000D02*
X175353000Y-102640000D01*
X177453000Y-102640000D02*
X185805000Y-102640000D01*
X131060000Y-103040000D02*
X161413076Y-103040000D01*
X169924569Y-103040000D02*
X170961247Y-103040000D01*
X173716754Y-103040000D02*
X175353000Y-103040000D01*
X177453000Y-103040000D02*
X185805000Y-103040000D01*
X131060000Y-103440000D02*
X161013076Y-103440000D01*
X170006057Y-103440000D02*
X170681298Y-103440000D01*
X173996703Y-103440000D02*
X175353000Y-103440000D01*
X177453000Y-103440000D02*
X185805000Y-103440000D01*
X131060000Y-103840000D02*
X160613076Y-103840000D01*
X169978654Y-103840000D02*
X170521379Y-103840000D01*
X174156622Y-103840000D02*
X175353000Y-103840000D01*
X177453000Y-103840000D02*
X185805000Y-103840000D01*
X131060000Y-104240000D02*
X160213076Y-104240000D01*
X169812559Y-104240000D02*
X170441814Y-104240000D01*
X174236187Y-104240000D02*
X175353000Y-104240000D01*
X177453000Y-104240000D02*
X185805000Y-104240000D01*
X131060000Y-104640000D02*
X159888221Y-104640000D01*
X169955971Y-104640000D02*
X170510637Y-104640000D01*
X174167362Y-104640000D02*
X175353000Y-104640000D01*
X177453000Y-104640000D02*
X185805000Y-104640000D01*
X131060000Y-105040000D02*
X159755074Y-105040000D01*
X170005990Y-105040000D02*
X170333904Y-105040000D01*
X174344097Y-105040000D02*
X175353000Y-105040000D01*
X177453000Y-105040000D02*
X185805000Y-105040000D01*
X131060000Y-105440000D02*
X159732000Y-105440000D01*
X169947096Y-105440000D02*
X170005353Y-105440000D01*
X174672648Y-105440000D02*
X175353000Y-105440000D01*
X177453000Y-105440000D02*
X185805000Y-105440000D01*
X131060000Y-105840000D02*
X159732000Y-105840000D01*
X169754439Y-105840000D02*
X169771284Y-105840000D01*
X174906717Y-105840000D02*
X175353000Y-105840000D01*
X177453000Y-105840000D02*
X185805000Y-105840000D01*
X131060000Y-106240000D02*
X159732000Y-106240000D01*
X163214924Y-106240000D02*
X168052106Y-106240000D01*
X169260326Y-106240000D02*
X169936358Y-106240000D01*
X171831000Y-106240000D02*
X172847000Y-106240000D01*
X174741641Y-106240000D02*
X175353000Y-106240000D01*
X177453000Y-106240000D02*
X185805000Y-106240000D01*
X131060000Y-106640000D02*
X159732000Y-106640000D01*
X163102000Y-106640000D02*
X175353000Y-106640000D01*
X177453000Y-106640000D02*
X185805000Y-106640000D01*
X131060000Y-107040000D02*
X159732000Y-107040000D01*
X163102000Y-107040000D02*
X175353000Y-107040000D01*
X177453000Y-107040000D02*
X185805000Y-107040000D01*
X131060000Y-107440000D02*
X159732000Y-107440000D01*
X163102000Y-107440000D02*
X169879042Y-107440000D01*
X171831000Y-107440000D02*
X172847000Y-107440000D01*
X174798959Y-107440000D02*
X175301076Y-107440000D01*
X177453000Y-107440000D02*
X185805000Y-107440000D01*
X131060000Y-107840000D02*
X159732000Y-107840000D01*
X163102000Y-107840000D02*
X169801612Y-107840000D01*
X174876387Y-107840000D02*
X174901076Y-107840000D01*
X177449618Y-107840000D02*
X185805000Y-107840000D01*
X131060000Y-108240000D02*
X137189084Y-108240000D01*
X163102000Y-108240000D02*
X170059563Y-108240000D01*
X177362929Y-108240000D02*
X185805000Y-108240000D01*
X131060000Y-108640000D02*
X136212044Y-108640000D01*
X163102000Y-108640000D02*
X170388113Y-108640000D01*
X177070924Y-108640000D02*
X185805000Y-108640000D01*
X131060000Y-109040000D02*
X135856925Y-109040000D01*
X163102000Y-109040000D02*
X170497509Y-109040000D01*
X176670924Y-109040000D02*
X179978563Y-109040000D01*
X181831782Y-109040000D02*
X185805000Y-109040000D01*
X131060000Y-109440000D02*
X135256752Y-109440000D01*
X165959356Y-109440000D02*
X170454941Y-109440000D01*
X176762365Y-109440000D02*
X179635595Y-109440000D01*
X182174752Y-109440000D02*
X185805000Y-109440000D01*
X131060000Y-109840000D02*
X134630723Y-109840000D01*
X166292128Y-109840000D02*
X170534506Y-109840000D01*
X176889755Y-109840000D02*
X179469500Y-109840000D01*
X131060000Y-110240000D02*
X134383521Y-110240000D01*
X166450218Y-110240000D02*
X170725397Y-110240000D01*
X173952602Y-110240000D02*
X174116918Y-110240000D01*
X176918000Y-110240000D02*
X179454934Y-110240000D01*
X131060000Y-110640000D02*
X134286091Y-110640000D01*
X166449869Y-110640000D02*
X170991179Y-110640000D01*
X173686822Y-110640000D02*
X174618000Y-110640000D01*
X176918000Y-110640000D02*
X179532777Y-110640000D01*
X131060000Y-111040000D02*
X134297602Y-111040000D01*
X166333378Y-111040000D02*
X170694662Y-111040000D01*
X173983339Y-111040000D02*
X174618000Y-111040000D01*
X176918000Y-111040000D02*
X179730649Y-111040000D01*
X131060000Y-111440000D02*
X134462878Y-111440000D01*
X166059197Y-111440000D02*
X170525357Y-111440000D01*
X174152644Y-111440000D02*
X174618000Y-111440000D01*
X176918000Y-111440000D02*
X180196881Y-111440000D01*
X131060000Y-111840000D02*
X134822564Y-111840000D01*
X165815152Y-111840000D02*
X170445792Y-111840000D01*
X174232209Y-111840000D02*
X174618000Y-111840000D01*
X176918000Y-111840000D02*
X180388348Y-111840000D01*
X131060000Y-112240000D02*
X135845154Y-112240000D01*
X165814803Y-112240000D02*
X170506659Y-112240000D01*
X174171340Y-112240000D02*
X174618000Y-112240000D01*
X176918000Y-112240000D02*
X180388348Y-112240000D01*
X131060000Y-112640000D02*
X136010430Y-112640000D01*
X138309085Y-112640000D02*
X150022309Y-112640000D01*
X165666820Y-112640000D02*
X170631852Y-112640000D01*
X174046147Y-112640000D02*
X174618000Y-112640000D01*
X176918000Y-112640000D02*
X180388348Y-112640000D01*
X131060000Y-113040000D02*
X136416427Y-113040000D01*
X137904697Y-113040000D02*
X150288213Y-113040000D01*
X165615000Y-113040000D02*
X170899124Y-113040000D01*
X173778875Y-113040000D02*
X174618000Y-113040000D01*
X176918000Y-113040000D02*
X180388348Y-113040000D01*
X131060000Y-113440000D02*
X150287864Y-113440000D01*
X161451820Y-113440000D02*
X162008656Y-113440000D01*
X165615000Y-113440000D02*
X171449139Y-113440000D01*
X173228860Y-113440000D02*
X174618000Y-113440000D01*
X176918000Y-113440000D02*
X180388348Y-113440000D01*
X131060000Y-113840000D02*
X150407032Y-113840000D01*
X153201924Y-113840000D02*
X162349619Y-113840000D01*
X165615000Y-113840000D02*
X174618000Y-113840000D01*
X176918000Y-113840000D02*
X180388348Y-113840000D01*
X131060000Y-114240000D02*
X150684808Y-114240000D01*
X152695881Y-114240000D02*
X163315000Y-114240000D01*
X165615000Y-114240000D02*
X174618000Y-114240000D01*
X176918000Y-114240000D02*
X180388348Y-114240000D01*
X131060000Y-114640000D02*
X163315000Y-114640000D01*
X165615000Y-114640000D02*
X174618000Y-114640000D01*
X176918000Y-114640000D02*
X180388348Y-114640000D01*
X131060000Y-115040000D02*
X163315000Y-115040000D01*
X165615000Y-115040000D02*
X174618000Y-115040000D01*
X176918000Y-115040000D02*
X180388348Y-115040000D01*
X131060000Y-115440000D02*
X163315000Y-115440000D01*
X165615000Y-115440000D02*
X174618000Y-115440000D01*
X176918000Y-115440000D02*
X180388536Y-115440000D01*
X131060000Y-115840000D02*
X163315000Y-115840000D01*
X165615000Y-115840000D02*
X174618000Y-115840000D01*
X176918000Y-115840000D02*
X180502963Y-115840000D01*
X131060000Y-116240000D02*
X163315000Y-116240000D01*
X165615000Y-116240000D02*
X174618000Y-116240000D01*
X176918000Y-116240000D02*
X180930801Y-116240000D01*
X131060000Y-116640000D02*
X163315000Y-116640000D01*
X165615000Y-116640000D02*
X174618000Y-116640000D01*
X176940346Y-116640000D02*
X185805000Y-116640000D01*
X131060000Y-117040000D02*
X163315000Y-117040000D01*
X165615000Y-117040000D02*
X174618000Y-117040000D01*
X177340346Y-117040000D02*
X185805000Y-117040000D01*
X131060000Y-117440000D02*
X163175980Y-117440000D01*
X165753815Y-117440000D02*
X174686824Y-117440000D01*
X177975366Y-117440000D02*
X185805000Y-117440000D01*
X131060000Y-117840000D02*
X163115014Y-117840000D01*
X165815014Y-117840000D02*
X174909943Y-117840000D01*
X178422882Y-117840000D02*
X185805000Y-117840000D01*
X131060000Y-118240000D02*
X163162963Y-118240000D01*
X165767307Y-118240000D02*
X175287654Y-118240000D01*
X178596516Y-118240000D02*
X185805000Y-118240000D01*
X131060000Y-118640000D02*
X163340107Y-118640000D01*
X165590487Y-118640000D02*
X175687654Y-118640000D01*
X178641981Y-118640000D02*
X185805000Y-118640000D01*
X131060000Y-119040000D02*
X163796083Y-119040000D01*
X165134671Y-119040000D02*
X176005664Y-119040000D01*
X178578528Y-119040000D02*
X185805000Y-119040000D01*
X131060000Y-119440000D02*
X176205041Y-119440000D01*
X178379420Y-119440000D02*
X185805000Y-119440000D01*
X131060000Y-119840000D02*
X176714597Y-119840000D01*
X177869703Y-119840000D02*
X185805000Y-119840000D01*
X131060000Y-120240000D02*
X185805000Y-120240000D01*
X131060000Y-120640000D02*
X185805000Y-120640000D01*
X131060000Y-121040000D02*
X185805000Y-121040000D01*
X131060000Y-121440000D02*
X185805000Y-121440000D01*
X131060000Y-121840000D02*
X185805000Y-121840000D01*
X131060000Y-122240000D02*
X185805000Y-122240000D01*
X131060000Y-122640000D02*
X185805000Y-122640000D01*
X131060000Y-123040000D02*
X185805000Y-123040000D01*
X131060000Y-123440000D02*
X185805000Y-123440000D01*
X131060000Y-123840000D02*
X185805000Y-123840000D01*
X185805000Y-77032473D02*
X185755000Y-77022348D01*
X181255000Y-77022348D01*
X180940009Y-77081618D01*
X180650709Y-77267777D01*
X180456628Y-77551824D01*
X180388348Y-77889000D01*
X180388348Y-81808574D01*
X180084714Y-81934033D01*
X179676467Y-82341569D01*
X179455252Y-82874312D01*
X179454749Y-83451157D01*
X179675033Y-83984286D01*
X180082569Y-84392533D01*
X180615312Y-84613748D01*
X181192157Y-84614251D01*
X181725286Y-84393967D01*
X182133533Y-83986431D01*
X182291647Y-83605652D01*
X185755000Y-83605652D01*
X185805000Y-83596244D01*
X185805000Y-109732473D01*
X185755000Y-109722348D01*
X182291415Y-109722348D01*
X182134967Y-109343714D01*
X181727431Y-108935467D01*
X181194688Y-108714252D01*
X180617843Y-108713749D01*
X180084714Y-108934033D01*
X179676467Y-109341569D01*
X179455252Y-109874312D01*
X179454749Y-110451157D01*
X179675033Y-110984286D01*
X180082569Y-111392533D01*
X180388348Y-111519504D01*
X180388348Y-115439000D01*
X180447618Y-115753991D01*
X180633777Y-116043291D01*
X180917824Y-116237372D01*
X181255000Y-116305652D01*
X185755000Y-116305652D01*
X185805000Y-116296244D01*
X185805000Y-124210000D01*
X131060000Y-124210000D01*
X131060000Y-111011353D01*
X134285766Y-111011353D01*
X134490858Y-111507715D01*
X134870288Y-111887807D01*
X135366290Y-112093765D01*
X135809819Y-112094152D01*
X135809766Y-112154353D01*
X136014858Y-112650715D01*
X136394288Y-113030807D01*
X136890290Y-113236765D01*
X137427353Y-113237234D01*
X137923715Y-113032142D01*
X138303807Y-112652712D01*
X138343965Y-112556000D01*
X149933076Y-112556000D01*
X150006538Y-112629462D01*
X150347182Y-112857074D01*
X150353033Y-112858238D01*
X150288235Y-113014290D01*
X150287766Y-113551353D01*
X150492858Y-114047715D01*
X150872288Y-114427807D01*
X151368290Y-114633765D01*
X151905353Y-114634234D01*
X152401715Y-114429142D01*
X152552769Y-114278351D01*
X152674818Y-114254074D01*
X153015462Y-114026462D01*
X153342924Y-113699000D01*
X160782000Y-113699000D01*
X161183818Y-113619074D01*
X161524462Y-113391462D01*
X161852896Y-113063028D01*
X162049858Y-113539715D01*
X162429288Y-113919807D01*
X162925290Y-114125765D01*
X163315000Y-114126105D01*
X163315000Y-117105202D01*
X163115235Y-117586290D01*
X163114766Y-118123353D01*
X163319858Y-118619715D01*
X163699288Y-118999807D01*
X164195290Y-119205765D01*
X164732353Y-119206234D01*
X165228715Y-119001142D01*
X165608807Y-118621712D01*
X165814765Y-118125710D01*
X165815234Y-117588647D01*
X165615000Y-117104042D01*
X165615000Y-112764798D01*
X165814765Y-112283710D01*
X165815234Y-111746647D01*
X165782950Y-111668513D01*
X165863715Y-111635142D01*
X166243807Y-111255712D01*
X166449765Y-110759710D01*
X166450234Y-110222647D01*
X166245142Y-109726285D01*
X165865712Y-109346193D01*
X165369710Y-109140235D01*
X164832647Y-109139766D01*
X164336285Y-109344858D01*
X164240977Y-109440000D01*
X163102000Y-109440000D01*
X163102000Y-106352924D01*
X163375924Y-106079000D01*
X167796644Y-106079000D01*
X167890288Y-106172807D01*
X168386290Y-106378765D01*
X168923353Y-106379234D01*
X169419715Y-106174142D01*
X169785558Y-105808936D01*
X169708200Y-105977278D01*
X170053771Y-106375200D01*
X171831000Y-106375200D01*
X171831000Y-105943400D01*
X171963027Y-105943400D01*
X172150043Y-105980600D01*
X172527957Y-105980600D01*
X172714973Y-105943400D01*
X172847000Y-105943400D01*
X172847000Y-106375200D01*
X174624229Y-106375200D01*
X174969800Y-105977278D01*
X174786729Y-105578891D01*
X174142031Y-104793991D01*
X174137241Y-104791433D01*
X174241557Y-104267000D01*
X174111117Y-103611234D01*
X173739655Y-103055302D01*
X173652400Y-102997000D01*
X173739655Y-102938698D01*
X174111117Y-102382766D01*
X174241557Y-101727000D01*
X174111117Y-101071234D01*
X173739655Y-100515302D01*
X173652400Y-100457000D01*
X173739655Y-100398698D01*
X174018398Y-99981530D01*
X174240288Y-100203807D01*
X174736290Y-100409765D01*
X175273353Y-100410234D01*
X175353000Y-100377325D01*
X175353000Y-107388076D01*
X174855396Y-107885680D01*
X174969800Y-107636722D01*
X174624229Y-107238800D01*
X172847000Y-107238800D01*
X172847000Y-107670600D01*
X172714973Y-107670600D01*
X172527957Y-107633400D01*
X172150043Y-107633400D01*
X171963027Y-107670600D01*
X171831000Y-107670600D01*
X171831000Y-107238800D01*
X170053771Y-107238800D01*
X169708200Y-107636722D01*
X169891271Y-108035109D01*
X170535969Y-108820009D01*
X170540759Y-108822567D01*
X170436443Y-109347000D01*
X170566883Y-110002766D01*
X170938345Y-110558698D01*
X171025600Y-110617000D01*
X170938345Y-110675302D01*
X170566883Y-111231234D01*
X170436443Y-111887000D01*
X170566883Y-112542766D01*
X170938345Y-113098698D01*
X171494277Y-113470160D01*
X172150043Y-113600600D01*
X172527957Y-113600600D01*
X173183723Y-113470160D01*
X173739655Y-113098698D01*
X174111117Y-112542766D01*
X174241557Y-111887000D01*
X174111117Y-111231234D01*
X173739655Y-110675302D01*
X173652400Y-110617000D01*
X173739655Y-110558698D01*
X174018487Y-110141397D01*
X174367288Y-110490807D01*
X174618000Y-110594912D01*
X174618000Y-117094000D01*
X174705539Y-117534086D01*
X174954827Y-117907173D01*
X175947933Y-118900278D01*
X176146858Y-119381715D01*
X176526288Y-119761807D01*
X177022290Y-119967765D01*
X177559353Y-119968234D01*
X178055715Y-119763142D01*
X178435807Y-119383712D01*
X178641765Y-118887710D01*
X178642234Y-118350647D01*
X178437142Y-117854285D01*
X178057712Y-117474193D01*
X177573459Y-117273114D01*
X176918000Y-116617654D01*
X176918000Y-109982005D01*
X176918001Y-109982000D01*
X176841788Y-109598858D01*
X176830461Y-109541914D01*
X176581173Y-109168827D01*
X176561635Y-109149289D01*
X177145462Y-108565462D01*
X177373074Y-108224818D01*
X177453000Y-107823000D01*
X177453000Y-90678000D01*
X177373074Y-90276182D01*
X177145462Y-89935538D01*
X176510462Y-89300538D01*
X176169818Y-89072926D01*
X175768000Y-88993000D01*
X173101000Y-88993000D01*
X172699182Y-89072926D01*
X172465901Y-89228800D01*
X172358538Y-89300538D01*
X171723538Y-89935538D01*
X171554770Y-90188116D01*
X171322193Y-90420288D01*
X171116235Y-90916290D01*
X171115766Y-91453353D01*
X171320858Y-91949715D01*
X171700288Y-92329807D01*
X172196290Y-92535765D01*
X172733353Y-92536234D01*
X173229715Y-92331142D01*
X173609807Y-91951712D01*
X173736056Y-91647670D01*
X173860858Y-91949715D01*
X173956000Y-92045023D01*
X173956000Y-95165291D01*
X173692176Y-94985028D01*
X173355000Y-94916748D01*
X171323000Y-94916748D01*
X171008009Y-94976018D01*
X170718709Y-95162177D01*
X170524628Y-95446224D01*
X170456348Y-95783400D01*
X170456348Y-97510600D01*
X170515618Y-97825591D01*
X170701777Y-98114891D01*
X170800159Y-98182112D01*
X170566883Y-98531234D01*
X170436443Y-99187000D01*
X170566883Y-99842766D01*
X170938345Y-100398698D01*
X171025600Y-100457000D01*
X170938345Y-100515302D01*
X170566883Y-101071234D01*
X170436443Y-101727000D01*
X170566883Y-102382766D01*
X170938345Y-102938698D01*
X171025600Y-102997000D01*
X170938345Y-103055302D01*
X170566883Y-103611234D01*
X170436443Y-104267000D01*
X170540759Y-104791433D01*
X170535969Y-104793991D01*
X169891271Y-105578891D01*
X169872106Y-105620596D01*
X170005765Y-105298710D01*
X170006234Y-104761647D01*
X169801600Y-104266394D01*
X170005765Y-103774710D01*
X170006234Y-103237647D01*
X169801142Y-102741285D01*
X169421712Y-102361193D01*
X169071000Y-102215565D01*
X169071000Y-100528703D01*
X169546715Y-100332142D01*
X169926807Y-99952712D01*
X170132765Y-99456710D01*
X170133234Y-98919647D01*
X169928142Y-98423285D01*
X169548712Y-98043193D01*
X169052710Y-97837235D01*
X168515647Y-97836766D01*
X168019285Y-98041858D01*
X167639193Y-98421288D01*
X167433235Y-98917290D01*
X167433117Y-99051959D01*
X167278538Y-99206538D01*
X167050926Y-99547182D01*
X166971000Y-99949000D01*
X166971000Y-101800076D01*
X166951076Y-101820000D01*
X163068000Y-101820000D01*
X162666182Y-101899926D01*
X162325538Y-102127538D01*
X160039538Y-104413538D01*
X159811926Y-104754182D01*
X159732000Y-105156000D01*
X159732000Y-108023076D01*
X159585076Y-108170000D01*
X152624356Y-108170000D01*
X152530712Y-108076193D01*
X152034710Y-107870235D01*
X151497647Y-107869766D01*
X151001285Y-108074858D01*
X150905977Y-108170000D01*
X137541000Y-108170000D01*
X137139182Y-108249926D01*
X136947619Y-108377925D01*
X136765647Y-108377766D01*
X136269285Y-108582858D01*
X135889193Y-108962288D01*
X135709904Y-109394064D01*
X135368647Y-109393766D01*
X134872285Y-109598858D01*
X134492193Y-109978288D01*
X134286235Y-110474290D01*
X134285766Y-111011353D01*
X131060000Y-111011353D01*
X131060000Y-88290400D01*
X136191748Y-88290400D01*
X136191748Y-90017600D01*
X136251018Y-90332591D01*
X136437177Y-90621891D01*
X136721224Y-90815972D01*
X137058400Y-90884252D01*
X138785600Y-90884252D01*
X139100591Y-90824982D01*
X139389891Y-90638823D01*
X139393274Y-90633873D01*
X139806234Y-90909804D01*
X140462000Y-91040244D01*
X141117766Y-90909804D01*
X141673698Y-90538342D01*
X141732000Y-90451087D01*
X141790302Y-90538342D01*
X142346234Y-90909804D01*
X143002000Y-91040244D01*
X143657766Y-90909804D01*
X144213698Y-90538342D01*
X144272000Y-90451087D01*
X144330302Y-90538342D01*
X144886234Y-90909804D01*
X145542000Y-91040244D01*
X146197766Y-90909804D01*
X146753698Y-90538342D01*
X146812000Y-90451087D01*
X146870302Y-90538342D01*
X147426234Y-90909804D01*
X148082000Y-91040244D01*
X148737766Y-90909804D01*
X149293698Y-90538342D01*
X149352000Y-90451087D01*
X149410302Y-90538342D01*
X149966234Y-90909804D01*
X150622000Y-91040244D01*
X151277766Y-90909804D01*
X151833698Y-90538342D01*
X151892000Y-90451087D01*
X151950302Y-90538342D01*
X152506234Y-90909804D01*
X153162000Y-91040244D01*
X153817766Y-90909804D01*
X154373698Y-90538342D01*
X154432000Y-90451087D01*
X154490302Y-90538342D01*
X155046234Y-90909804D01*
X155702000Y-91040244D01*
X156357766Y-90909804D01*
X156913698Y-90538342D01*
X156972000Y-90451087D01*
X157030302Y-90538342D01*
X157586234Y-90909804D01*
X158242000Y-91040244D01*
X158897766Y-90909804D01*
X159453698Y-90538342D01*
X159512000Y-90451087D01*
X159570302Y-90538342D01*
X160126234Y-90909804D01*
X160782000Y-91040244D01*
X161437766Y-90909804D01*
X161993698Y-90538342D01*
X162052000Y-90451087D01*
X162110302Y-90538342D01*
X162666234Y-90909804D01*
X163322000Y-91040244D01*
X163846954Y-90935824D01*
X163853361Y-90947736D01*
X164640495Y-91590252D01*
X165032278Y-91768800D01*
X165430200Y-91423229D01*
X165430200Y-89654000D01*
X166293800Y-89654000D01*
X166293800Y-91423229D01*
X166691722Y-91768800D01*
X167083505Y-91590252D01*
X167870639Y-90947736D01*
X168351976Y-90052906D01*
X168003102Y-89654000D01*
X166293800Y-89654000D01*
X165430200Y-89654000D01*
X164998400Y-89654000D01*
X164998400Y-89513661D01*
X165035600Y-89326644D01*
X165035600Y-89225915D01*
X165430200Y-88883229D01*
X165430200Y-88222647D01*
X165811976Y-87512906D01*
X165463102Y-87114000D01*
X165430200Y-87114000D01*
X165430200Y-86884771D01*
X166293800Y-86884771D01*
X166293800Y-88883229D01*
X166691722Y-89228800D01*
X167083505Y-89050252D01*
X167568946Y-88654000D01*
X168003102Y-88654000D01*
X168351976Y-88255094D01*
X168152361Y-87884000D01*
X168351976Y-87512906D01*
X168003102Y-87114000D01*
X167568946Y-87114000D01*
X167083505Y-86717748D01*
X166691722Y-86539200D01*
X166293800Y-86884771D01*
X165430200Y-86884771D01*
X165032278Y-86539200D01*
X164640495Y-86717748D01*
X164155054Y-87114000D01*
X163720898Y-87114000D01*
X163547242Y-87312560D01*
X163322000Y-87267756D01*
X163096758Y-87312560D01*
X162923102Y-87114000D01*
X161180898Y-87114000D01*
X161007242Y-87312560D01*
X160782000Y-87267756D01*
X160556758Y-87312560D01*
X160383102Y-87114000D01*
X158640898Y-87114000D01*
X158467242Y-87312560D01*
X158242000Y-87267756D01*
X158061389Y-87303682D01*
X157842203Y-87045800D01*
X156133800Y-87045800D01*
X156133800Y-87114000D01*
X156100898Y-87114000D01*
X155927242Y-87312560D01*
X155702000Y-87267756D01*
X155476758Y-87312560D01*
X155303102Y-87114000D01*
X155270200Y-87114000D01*
X155270200Y-87045800D01*
X153561797Y-87045800D01*
X153342611Y-87303682D01*
X153162000Y-87267756D01*
X152936758Y-87312560D01*
X152763102Y-87114000D01*
X151020898Y-87114000D01*
X150847242Y-87312560D01*
X150622000Y-87267756D01*
X150190200Y-87353646D01*
X150190200Y-87114000D01*
X149758400Y-87114000D01*
X149758400Y-86973661D01*
X149795600Y-86786644D01*
X149795600Y-86441356D01*
X149758400Y-86254339D01*
X149758400Y-86114000D01*
X150190200Y-86114000D01*
X150190200Y-85715094D01*
X150672024Y-85715094D01*
X151020898Y-86114000D01*
X152763102Y-86114000D01*
X153051471Y-85784275D01*
X153223581Y-85784275D01*
X153561797Y-86182200D01*
X155270200Y-86182200D01*
X155270200Y-86114000D01*
X155303102Y-86114000D01*
X155651976Y-85715094D01*
X155752024Y-85715094D01*
X156100898Y-86114000D01*
X156133800Y-86114000D01*
X156133800Y-86182200D01*
X157842203Y-86182200D01*
X158180419Y-85784275D01*
X158140864Y-85715094D01*
X158292024Y-85715094D01*
X158640898Y-86114000D01*
X160383102Y-86114000D01*
X160731976Y-85715094D01*
X160832024Y-85715094D01*
X161180898Y-86114000D01*
X162923102Y-86114000D01*
X163271976Y-85715094D01*
X163372024Y-85715094D01*
X163720898Y-86114000D01*
X165463102Y-86114000D01*
X165811976Y-85715094D01*
X165430200Y-85005353D01*
X165430200Y-84344771D01*
X166293800Y-84344771D01*
X166293800Y-86114000D01*
X168003102Y-86114000D01*
X168351976Y-85715094D01*
X167870639Y-84820264D01*
X167083505Y-84177748D01*
X166691722Y-83999200D01*
X166293800Y-84344771D01*
X165430200Y-84344771D01*
X165032278Y-83999200D01*
X164640495Y-84177748D01*
X164592000Y-84217333D01*
X164543505Y-84177748D01*
X164151722Y-83999200D01*
X163753800Y-84344771D01*
X163753800Y-85005353D01*
X163372024Y-85715094D01*
X163271976Y-85715094D01*
X162890200Y-85005353D01*
X162890200Y-84344771D01*
X162492278Y-83999200D01*
X162100495Y-84177748D01*
X162052000Y-84217333D01*
X162003505Y-84177748D01*
X161611722Y-83999200D01*
X161213800Y-84344771D01*
X161213800Y-85005353D01*
X160832024Y-85715094D01*
X160731976Y-85715094D01*
X160350200Y-85005353D01*
X160350200Y-84344771D01*
X159952278Y-83999200D01*
X159560495Y-84177748D01*
X159512000Y-84217333D01*
X159463505Y-84177748D01*
X159071722Y-83999200D01*
X158673800Y-84344771D01*
X158673800Y-85005353D01*
X158292024Y-85715094D01*
X158140864Y-85715094D01*
X157810200Y-85136775D01*
X157810200Y-84344771D01*
X157412278Y-83999200D01*
X157020495Y-84177748D01*
X156885157Y-84288221D01*
X156867803Y-84274789D01*
X156531722Y-84135600D01*
X156133800Y-84481171D01*
X156133800Y-85005353D01*
X155752024Y-85715094D01*
X155651976Y-85715094D01*
X155270200Y-85005353D01*
X155270200Y-84481171D01*
X154872278Y-84135600D01*
X154536197Y-84274789D01*
X154518843Y-84288221D01*
X154383505Y-84177748D01*
X153991722Y-83999200D01*
X153593800Y-84344771D01*
X153593800Y-85136775D01*
X153223581Y-85784275D01*
X153051471Y-85784275D01*
X153111976Y-85715094D01*
X152730200Y-85005353D01*
X152730200Y-84344771D01*
X152332278Y-83999200D01*
X151940495Y-84177748D01*
X151892000Y-84217333D01*
X151843505Y-84177748D01*
X151451722Y-83999200D01*
X151053800Y-84344771D01*
X151053800Y-85005353D01*
X150672024Y-85715094D01*
X150190200Y-85715094D01*
X150190200Y-84344771D01*
X149792278Y-83999200D01*
X149400495Y-84177748D01*
X148613361Y-84820264D01*
X148606954Y-84832176D01*
X148082000Y-84727756D01*
X147426234Y-84858196D01*
X146870302Y-85229658D01*
X146812000Y-85316913D01*
X146753698Y-85229658D01*
X146197766Y-84858196D01*
X145542000Y-84727756D01*
X144886234Y-84858196D01*
X144330302Y-85229658D01*
X144272000Y-85316913D01*
X144213698Y-85229658D01*
X143657766Y-84858196D01*
X143002000Y-84727756D01*
X142346234Y-84858196D01*
X141790302Y-85229658D01*
X141732000Y-85316913D01*
X141673698Y-85229658D01*
X141117766Y-84858196D01*
X140462000Y-84727756D01*
X139806234Y-84858196D01*
X139250302Y-85229658D01*
X139192000Y-85316913D01*
X139133698Y-85229658D01*
X138577766Y-84858196D01*
X137922000Y-84727756D01*
X137266234Y-84858196D01*
X136710302Y-85229658D01*
X136338840Y-85785590D01*
X136208400Y-86441356D01*
X136208400Y-86786644D01*
X136338840Y-87442410D01*
X136479461Y-87652864D01*
X136454109Y-87669177D01*
X136260028Y-87953224D01*
X136191748Y-88290400D01*
X131060000Y-88290400D01*
X131060000Y-72640000D01*
X185805000Y-72640000D01*
X185805000Y-77032473D01*
M02*
